<svg width="21" height="16" viewBox="0 0 21 16" fill="none" xmlns="http://www.w3.org/2000/svg">
<path d="M3.61418 3.98818C3.61418 2.93045 4.03436 1.91604 4.78229 1.16811C5.53022 0.420182 6.54462 0 7.60235 0C8.66008 0 9.67449 0.420182 10.4224 1.16811C11.1703 1.91604 11.5905 2.93045 11.5905 3.98818C11.5905 5.04591 11.1703 6.06031 10.4224 6.80824C9.67449 7.55617 8.66008 7.97635 7.60235 7.97635C6.54462 7.97635 5.53022 7.55617 4.78229 6.80824C4.03436 6.06031 3.61418 5.04591 3.61418 3.98818ZM0.623047 15.0273C0.623047 11.9583 3.10943 9.47192 6.17845 9.47192H9.02626C12.0953 9.47192 14.5817 11.9583 14.5817 15.0273C14.5817 15.5383 14.1673 15.9527 13.6563 15.9527H1.54843C1.03744 15.9527 0.623047 15.5383 0.623047 15.0273ZM20.0966 5.5149L16.1084 9.50307C15.8155 9.79596 15.3419 9.79596 15.0521 9.50307L13.0581 7.50899C12.7652 7.2161 12.7652 6.74251 13.0581 6.45274C13.3509 6.16298 13.8245 6.15986 14.1143 6.45274L15.5787 7.91715L19.0372 4.45554C19.3301 4.16266 19.8037 4.16266 20.0934 4.45554C20.3832 4.74842 20.3863 5.22202 20.0934 5.51178L20.0966 5.5149Z" fill="#131313"/>
</svg>
