<svg width="12" height="20" viewBox="0 0 12 20" fill="none" xmlns="http://www.w3.org/2000/svg">
<g clip-path="url(#clip0_2234_113857)">
<path d="M5.95792 -0.00976562C6.61707 -0.00976562 7.1496 0.522767 7.1496 1.18192V2.51139C7.20918 2.51883 7.26504 2.52628 7.32463 2.53745C7.33952 2.54118 7.35069 2.54118 7.36559 2.5449L9.15311 2.87261C9.80109 2.99178 10.2293 3.61369 10.1102 4.25794C9.99101 4.9022 9.3691 5.33418 8.72485 5.21501L6.95595 4.89102C5.79034 4.71972 4.76251 4.83516 4.04005 5.12191C3.3176 5.40866 3.02713 5.8034 2.96009 6.16836C2.88561 6.56683 2.94147 6.79027 3.00478 6.92805C3.07181 7.07329 3.2096 7.23715 3.48145 7.41962C4.08847 7.81809 5.01947 8.07877 6.22604 8.39904L6.33404 8.42883C7.39911 8.71185 8.70251 9.05446 9.67075 9.68754C10.1996 10.0339 10.6986 10.5031 11.0077 11.1585C11.3242 11.8251 11.3912 12.5699 11.246 13.3631C10.989 14.7783 10.0134 15.7242 8.80306 16.2194C8.29287 16.428 7.73799 16.5621 7.1496 16.6291V17.8655C7.1496 18.5246 6.61707 19.0571 5.95792 19.0571C5.29877 19.0571 4.76623 18.5246 4.76623 17.8655V16.5658C4.75134 16.5621 4.73272 16.5621 4.71782 16.5583H4.71037C3.80172 16.4168 2.30839 16.0258 1.30291 15.5789C0.703347 15.3108 0.431495 14.607 0.699623 14.0074C0.967751 13.4078 1.67159 13.136 2.27115 13.4041C3.04947 13.7504 4.33053 14.093 5.0716 14.2085C6.25956 14.3835 7.23897 14.283 7.90185 14.0111C8.5312 13.7542 8.81795 13.3818 8.89988 12.9349C8.97064 12.5401 8.91478 12.313 8.85147 12.1752C8.78071 12.0262 8.64292 11.8624 8.36735 11.6799C7.75661 11.2814 6.82189 11.0207 5.61158 10.7005L5.50731 10.6744C4.44597 10.3914 3.14257 10.045 2.17433 9.41197C1.64552 9.06563 1.15023 8.59268 0.841135 7.93726C0.528319 7.27066 0.465011 6.52586 0.613971 5.73265C0.882099 4.31008 1.94716 3.38653 3.15747 2.90613C3.65276 2.70876 4.19646 2.57469 4.76623 2.49649V1.18192C4.76623 0.522767 5.29877 -0.00976562 5.95792 -0.00976562Z" fill="#131313"/>
</g>
<defs>
<clipPath id="clip0_2234_113857">
<rect width="11.9168" height="19.0669" fill="white" transform="translate(0 -0.00976562)"/>
</clipPath>
</defs>
</svg>
