<svg width="19" height="18" viewBox="0 0 19 18" fill="none" xmlns="http://www.w3.org/2000/svg">
<g clip-path="url(#clip0_2306_41245)">
<g clip-path="url(#clip1_2306_41245)">
<path d="M8.88379 13.4238C9.2435 13.1678 9.72323 13.1679 10.083 13.4238H10.084C10.8268 13.9355 11.7351 14.286 12.6445 14.2861C13.4231 14.2861 14.2418 14.0132 14.9209 13.6064L15.2031 13.4238C15.5888 13.1483 16.1139 13.1716 16.4736 13.4795C16.9497 13.8729 17.5489 14.1736 18.1475 14.3125C18.7046 14.4423 19.0512 14.9994 18.9219 15.5566C18.7922 16.1142 18.2343 16.4617 17.6768 16.332C16.8725 16.1449 16.2026 15.79 15.7656 15.5107L15.7578 15.5059L15.749 15.5098C14.7958 16.0225 13.7278 16.3613 12.6445 16.3613C11.5975 16.3612 10.6547 16.0361 10.0039 15.7402C9.81321 15.6515 9.63896 15.5661 9.49121 15.4873L9.4834 15.4834L9.47559 15.4873C9.3276 15.5662 9.15645 15.6549 8.96289 15.7402C8.31202 16.0361 7.36934 16.3613 6.32227 16.3613C5.23918 16.3613 4.17183 16.023 3.21875 15.5137L3.20996 15.5088L3.20215 15.5137C2.76171 15.7898 2.09437 16.1478 1.29004 16.335C0.732644 16.4645 0.175624 16.1179 0.0458984 15.5605C-0.0837623 15.003 0.262786 14.4451 0.820312 14.3154C1.34406 14.1939 1.86794 13.949 2.30957 13.626L2.49316 13.4824C2.85294 13.1777 3.3789 13.1554 3.76465 13.4277C4.49438 13.9295 5.43259 14.2861 6.32227 14.2861C7.23192 14.2861 8.14082 13.9357 8.88379 13.4238ZM15.7959 1.6416C17.378 1.6416 18.7116 2.82064 18.9082 4.38965L18.9414 4.66016C19.0125 5.22728 18.6105 5.74608 18.04 5.81738C17.4696 5.88866 16.9542 5.48652 16.8828 4.91602L16.8496 4.64551C16.7825 4.1139 16.3309 3.71582 15.7959 3.71582C15.2107 3.71603 14.7363 4.19114 14.7363 4.77637V12.4502L14.585 12.5479C13.9995 12.9511 13.2823 13.2075 12.6611 13.2119V10.0381H6.30566V13.2148C5.68777 13.2103 4.96775 12.9539 4.38574 12.5508C4.33589 12.5165 4.28515 12.4814 4.23145 12.4521V4.77637C4.23145 3.0468 5.63665 1.64164 7.36621 1.6416C8.94834 1.6416 10.2819 2.82062 10.4785 4.38965L10.5107 4.66016C10.5819 5.22722 10.1807 5.74595 9.61035 5.81738C9.03988 5.88869 8.5245 5.48652 8.45312 4.91602L8.41992 4.64551C8.35286 4.11388 7.90126 3.71582 7.36621 3.71582C6.78089 3.71586 6.30567 4.19103 6.30566 4.77637V7.96387H12.6611V4.77637C12.6611 3.04691 14.0665 1.64181 15.7959 1.6416Z" fill="white" stroke="white" stroke-width="0.0329297"/>
</g>
</g>
<defs>
<clipPath id="clip0_2306_41245">
<rect width="18.9675" height="16.86" fill="white" transform="translate(0 0.570312)"/>
</clipPath>
<clipPath id="clip1_2306_41245">
<rect width="18.9675" height="16.86" fill="white" transform="translate(0 0.570312)"/>
</clipPath>
</defs>
</svg>
