<svg width="16" height="21" viewBox="0 0 16 21" fill="none" xmlns="http://www.w3.org/2000/svg">
<g clip-path="url(#clip0_2086_70186)">
<path d="M2.599 0.901367C1.60516 0.901367 0.798828 1.7077 0.798828 2.70154V18.3031C0.798828 19.2969 1.60516 20.1032 2.599 20.1032H6.19936V17.103C6.19936 16.1091 7.00568 15.3028 7.99953 15.3028C8.99338 15.3028 9.79971 16.1091 9.79971 17.103V20.1032H13.4001C14.3939 20.1032 15.2002 19.2969 15.2002 18.3031V2.70154C15.2002 1.7077 14.3939 0.901367 13.4001 0.901367H2.599ZM3.19906 9.90225C3.19906 9.57222 3.46909 9.30219 3.79912 9.30219H4.99924C5.32927 9.30219 5.5993 9.57222 5.5993 9.90225V11.1024C5.5993 11.4324 5.32927 11.7024 4.99924 11.7024H3.79912C3.46909 11.7024 3.19906 11.4324 3.19906 11.1024V9.90225ZM7.39947 9.30219H8.59959C8.92962 9.30219 9.19965 9.57222 9.19965 9.90225V11.1024C9.19965 11.4324 8.92962 11.7024 8.59959 11.7024H7.39947C7.06944 11.7024 6.79941 11.4324 6.79941 11.1024V9.90225C6.79941 9.57222 7.06944 9.30219 7.39947 9.30219ZM10.3998 9.90225C10.3998 9.57222 10.6698 9.30219 10.9998 9.30219H12.1999C12.53 9.30219 12.8 9.57222 12.8 9.90225V11.1024C12.8 11.4324 12.53 11.7024 12.1999 11.7024H10.9998C10.6698 11.7024 10.3998 11.4324 10.3998 11.1024V9.90225ZM3.79912 4.50172H4.99924C5.32927 4.50172 5.5993 4.77175 5.5993 5.10178V6.3019C5.5993 6.63193 5.32927 6.90195 4.99924 6.90195H3.79912C3.46909 6.90195 3.19906 6.63193 3.19906 6.3019V5.10178C3.19906 4.77175 3.46909 4.50172 3.79912 4.50172ZM6.79941 5.10178C6.79941 4.77175 7.06944 4.50172 7.39947 4.50172H8.59959C8.92962 4.50172 9.19965 4.77175 9.19965 5.10178V6.3019C9.19965 6.63193 8.92962 6.90195 8.59959 6.90195H7.39947C7.06944 6.90195 6.79941 6.63193 6.79941 6.3019V5.10178ZM10.9998 4.50172H12.1999C12.53 4.50172 12.8 4.77175 12.8 5.10178V6.3019C12.8 6.63193 12.53 6.90195 12.1999 6.90195H10.9998C10.6698 6.90195 10.3998 6.63193 10.3998 6.3019V5.10178C10.3998 4.77175 10.6698 4.50172 10.9998 4.50172Z" fill="#131313"/>
</g>
<defs>
<clipPath id="clip0_2086_70186">
<rect width="14.4014" height="19.2019" fill="white" transform="translate(0.798828 0.899414)"/>
</clipPath>
</defs>
</svg>
