<svg width="18" height="16" viewBox="0 0 18 16" fill="none" xmlns="http://www.w3.org/2000/svg">
<g clip-path="url(#clip0_2086_70177)">
<path d="M4.0793 0.84375C4.67258 0.84375 5.24157 1.07943 5.66108 1.49895C6.0806 1.91846 6.31628 2.48745 6.31628 3.08073C6.31628 3.67401 6.0806 4.243 5.66108 4.66251C5.24157 5.08203 4.67258 5.31771 4.0793 5.31771C3.48601 5.31771 2.91703 5.08203 2.49751 4.66251C2.078 4.243 1.84232 3.67401 1.84232 3.08073C1.84232 2.48745 2.078 1.91846 2.49751 1.49895C2.91703 1.07943 3.48601 0.84375 4.0793 0.84375ZM14.3694 0.84375C14.9627 0.84375 15.5317 1.07943 15.9512 1.49895C16.3707 1.91846 16.6064 2.48745 16.6064 3.08073C16.6064 3.67401 16.3707 4.243 15.9512 4.66251C15.5317 5.08203 14.9627 5.31771 14.3694 5.31771C13.7761 5.31771 13.2071 5.08203 12.7876 4.66251C12.3681 4.243 12.1324 3.67401 12.1324 3.08073C12.1324 2.48745 12.3681 1.91846 12.7876 1.49895C13.2071 1.07943 13.7761 0.84375 14.3694 0.84375ZM0.0527344 9.19607C0.0527344 7.5491 1.38933 6.2125 3.03631 6.2125H4.23029C4.67489 6.2125 5.09712 6.31037 5.47741 6.48373C5.44106 6.68506 5.42428 6.89478 5.42428 7.10729C5.42428 8.17545 5.89405 9.13456 6.63505 9.79167C6.62945 9.79167 6.62386 9.79167 6.61547 9.79167H0.64833C0.321172 9.79167 0.0527344 9.52323 0.0527344 9.19607ZM11.3858 9.79167C11.3802 9.79167 11.3746 9.79167 11.3663 9.79167C12.1101 9.13456 12.577 8.17545 12.577 7.10729C12.577 6.89478 12.5575 6.68786 12.5239 6.48373C12.9042 6.30757 13.3264 6.2125 13.771 6.2125H14.965C16.612 6.2125 17.9486 7.5491 17.9486 9.19607C17.9486 9.52603 17.6801 9.79167 17.353 9.79167H11.3858ZM6.31628 7.10729C6.31628 6.39535 6.5991 5.71257 7.10251 5.20915C7.60593 4.70573 8.28871 4.42292 9.00065 4.42292C9.71259 4.42292 10.3954 4.70573 10.8988 5.20915C11.4022 5.71257 11.685 6.39535 11.685 7.10729C11.685 7.81923 11.4022 8.50202 10.8988 9.00543C10.3954 9.50885 9.71259 9.79167 9.00065 9.79167C8.28871 9.79167 7.60593 9.50885 7.10251 9.00543C6.5991 8.50202 6.31628 7.81923 6.31628 7.10729ZM3.6319 14.4138C3.6319 12.3558 5.30125 10.6865 7.35927 10.6865H10.642C12.7001 10.6865 14.3694 12.3558 14.3694 14.4138C14.3694 14.8249 14.0367 15.1604 13.6228 15.1604H4.37849C3.96745 15.1604 3.6319 14.8277 3.6319 14.4138Z" fill="#131313"/>
</g>
<defs>
<clipPath id="clip0_2086_70177">
<rect width="17.8958" height="14.3167" fill="white" transform="translate(0.0527344 0.841797)"/>
</clipPath>
</defs>
</svg>
