<svg width="22" height="20" viewBox="0 0 22 20" fill="none" xmlns="http://www.w3.org/2000/svg">
<g clip-path="url(#clip0_2234_113839)">
<path d="M13.1085 5.3528C13.1085 3.70679 14.4417 2.3736 16.0877 2.3736C17.7337 2.3736 19.0669 3.70679 19.0669 5.3528V7.14032C19.0669 7.79947 19.5994 8.332 20.2586 8.332C20.9177 8.332 21.4503 7.79947 21.4503 7.14032V5.3528C21.4503 2.39222 19.0483 -0.00976562 16.0877 -0.00976562C13.1271 -0.00976562 10.7251 2.39222 10.7251 5.3528V7.14032H2.38336C1.06879 7.14032 0 8.20911 0 9.52369V16.6738C0 17.9883 1.06879 19.0571 2.38336 19.0571H14.3002C15.6147 19.0571 16.6835 17.9883 16.6835 16.6738V9.52369C16.6835 8.20911 15.6147 7.14032 14.3002 7.14032H13.1085V5.3528Z" fill="#131313"/>
</g>
<defs>
<clipPath id="clip0_2234_113839">
<rect width="21.4503" height="19.0669" fill="white" transform="translate(0 -0.00976562)"/>
</clipPath>
</defs>
</svg>
