<svg width="20" height="24" viewBox="0 0 20 24" fill="none" xmlns="http://www.w3.org/2000/svg">
<g clip-path="url(#clip0_2234_113847)">
<path d="M9.53345 21.0571C12.0619 21.0571 14.4868 20.0527 16.2746 18.2649C18.0625 16.477 19.0669 14.0521 19.0669 11.5237C19.0669 8.99526 18.0625 6.57039 16.2746 4.78252C14.4868 2.99465 12.0619 1.99023 9.53345 1.99023C7.00502 1.99023 4.58015 2.99465 2.79228 4.78252C1.00441 6.57039 0 8.99526 0 11.5237C0 14.0521 1.00441 16.477 2.79228 18.2649C4.58015 20.0527 7.00502 21.0571 9.53345 21.0571ZM13.7416 9.7734L8.97485 14.5401C8.62479 14.8902 8.05875 14.8902 7.71241 14.5401L5.32905 12.1568C4.97899 11.8067 4.97899 11.2407 5.32905 10.8943C5.67911 10.548 6.24516 10.5443 6.59149 10.8943L8.34177 12.6446L12.4754 8.50724C12.8255 8.15719 13.3915 8.15719 13.7379 8.50724C14.0842 8.8573 14.0879 9.42335 13.7379 9.76968L13.7416 9.7734Z" fill="#131313"/>
</g>
<defs>
<clipPath id="clip0_2234_113847">
<rect width="19.0669" height="19.0669" fill="white" transform="translate(0 1.99023)"/>
</clipPath>
</defs>
</svg>
