<svg width="18" height="18" viewBox="0 0 18 18" fill="none" xmlns="http://www.w3.org/2000/svg">
<g clip-path="url(#clip0_1786_6373)">
<path d="M2.44275 2.32715C1.55458 2.32715 0.833984 3.04774 0.833984 3.93592C0.833984 4.44201 1.07195 4.91794 1.47749 5.22293L8.77058 10.6928C9.15267 10.9776 9.67552 10.9776 10.0576 10.6928L17.3507 5.22293C17.7562 4.91794 17.9942 4.44201 17.9942 3.93592C17.9942 3.04774 17.2736 2.32715 16.3854 2.32715H2.44275ZM0.833984 6.08094V13.0523C0.833984 14.2354 1.79589 15.1973 2.97901 15.1973H15.8492C17.0323 15.1973 17.9942 14.2354 17.9942 13.0523V6.08094L10.7011 11.5508C9.93694 12.1239 8.89124 12.1239 8.12707 11.5508L0.833984 6.08094Z" fill="#131313"/>
</g>
<defs>
<clipPath id="clip0_1786_6373">
<rect width="17.1602" height="17.1602" fill="white" transform="translate(0.833984 0.181641)"/>
</clipPath>
</defs>
</svg>
