<svg width="14" height="14" viewBox="0 0 14 14" fill="none" xmlns="http://www.w3.org/2000/svg">
<g clip-path="url(#clip0_1935_15365)">
<path d="M7 -0.000976562C8.85652 -0.000976562 10.637 0.736521 11.9497 2.04928C13.2625 3.36203 14 5.14251 14 6.99902C14 8.85554 13.2625 10.636 11.9497 11.9488C10.637 13.2615 8.85652 13.999 7 13.999C5.14348 13.999 3.36301 13.2615 2.05025 11.9488C0.737498 10.636 0 8.85554 0 6.99902C0 5.14251 0.737498 3.36203 2.05025 2.04928C3.36301 0.736521 5.14348 -0.000976562 7 -0.000976562ZM6.34375 3.28027V6.99902C6.34375 7.21777 6.45312 7.42285 6.63633 7.5459L9.26133 9.2959C9.56211 9.49824 9.96953 9.41621 10.1719 9.11269C10.3742 8.80918 10.2922 8.40449 9.98867 8.20215L7.65625 6.64902V3.28027C7.65625 2.9166 7.36367 2.62402 7 2.62402C6.63633 2.62402 6.34375 2.9166 6.34375 3.28027Z" fill="#333333"/>
</g>
<defs>
<clipPath id="clip0_1935_15365">
<rect width="14" height="14" fill="white"/>
</clipPath>
</defs>
</svg>
