<svg width="21" height="18" viewBox="0 0 21 18" fill="none" xmlns="http://www.w3.org/2000/svg">
<path fill-rule="evenodd" clip-rule="evenodd" d="M17.8426 9.13801C16.7362 8.69041 15.1642 8.40001 13.4002 8.40001V7.20001C15.2806 7.20001 17.0098 7.50721 18.2914 8.02441C18.931 8.28361 19.489 8.60521 19.8958 8.99521C20.3038 9.38521 20.6002 9.88321 20.6002 10.4664C20.6002 11.0508 20.305 11.5476 19.8958 11.9388C19.4878 12.3276 18.931 12.6504 18.2914 12.9084C17.0098 13.4268 15.2794 13.7328 13.4002 13.7328C11.5198 13.7328 9.79059 13.4268 8.50899 12.9084C7.8694 12.6504 7.3114 12.3276 6.9046 11.9388C6.4966 11.5476 6.2002 11.0508 6.2002 10.4664H7.4002C7.4002 10.6188 7.4746 10.8228 7.7338 11.0712C7.993 11.3196 8.4034 11.5716 8.9578 11.796C10.0654 12.2436 11.635 12.5328 13.4002 12.5328C15.1642 12.5328 16.7362 12.2436 17.8426 11.796C18.397 11.5716 18.8062 11.3196 19.0666 11.0712C19.327 10.8228 19.4002 10.6188 19.4002 10.4664C19.4002 10.314 19.3258 10.11 19.0666 9.86281C18.8062 9.61321 18.397 9.36121 17.8426 9.13801Z" fill="white"/>
<path fill-rule="evenodd" clip-rule="evenodd" d="M6.8002 10.4004C6.95933 10.4004 7.11194 10.4636 7.22446 10.5761C7.33698 10.6886 7.4002 10.8413 7.4002 11.0004V14.7324C7.4002 14.886 7.4746 15.09 7.7338 15.3372C7.9942 15.5868 8.4034 15.8388 8.9578 16.0632C10.0654 16.5096 11.635 16.8 13.4002 16.8C15.1642 16.8 16.7362 16.5096 17.8426 16.0632C18.397 15.8388 18.8062 15.5868 19.0666 15.3372C19.3258 15.09 19.4002 14.886 19.4002 14.7336V11.0004C19.4002 10.8413 19.4634 10.6886 19.5759 10.5761C19.6885 10.4636 19.8411 10.4004 20.0002 10.4004C20.1593 10.4004 20.3119 10.4636 20.4245 10.5761C20.537 10.6886 20.6002 10.8413 20.6002 11.0004V14.7324C20.6002 15.318 20.305 15.8148 19.8958 16.2048C19.4866 16.5948 18.931 16.9164 18.2914 17.1756C17.0098 17.6928 15.2794 18 13.4002 18C11.5198 18 9.79059 17.6928 8.50899 17.1756C7.8694 16.9176 7.3114 16.5948 6.9046 16.2048C6.4966 15.8148 6.2002 15.3168 6.2002 14.7336V11.0004C6.2002 10.8413 6.26341 10.6886 6.37593 10.5761C6.48845 10.4636 6.64107 10.4004 6.8002 10.4004Z" fill="white"/>
<path fill-rule="evenodd" clip-rule="evenodd" d="M9.4402 17.0712V12.6H10.6402V17.0712H9.4402ZM14.7202 16.8V13.2H15.9202V16.8H14.7202ZM1.7338 2.6628C1.4746 2.91 1.4002 3.114 1.4002 3.2664C1.4002 3.4188 1.4746 3.6228 1.7338 3.8712C1.993 4.1196 2.4034 4.3716 2.9578 4.596C4.0654 5.0436 5.635 5.3328 7.4002 5.3328C9.1642 5.3328 10.7362 5.0436 11.8426 4.596C12.397 4.3716 12.8062 4.1196 13.0666 3.8712C13.327 3.6228 13.4002 3.4188 13.4002 3.2664C13.4002 3.114 13.3258 2.91 13.0666 2.6628C12.8062 2.4132 12.397 2.1612 11.8426 1.9368C10.735 1.4904 9.1642 1.2 7.4002 1.2C5.6362 1.2 4.0642 1.4904 2.9578 1.9368C2.4034 2.1612 1.9942 2.4132 1.7338 2.6628ZM2.509 0.8244C3.7906 0.3072 5.521 0 7.4002 0C9.2806 0 11.0098 0.3072 12.2914 0.8244C12.931 1.0836 13.489 1.4052 13.8958 1.7952C14.3038 2.1852 14.6002 2.6832 14.6002 3.2664C14.6002 3.8508 14.305 4.3476 13.8958 4.7388C13.4878 5.1276 12.931 5.4504 12.2914 5.7084C11.0098 6.2268 9.2794 6.5328 7.4002 6.5328C5.5198 6.5328 3.7906 6.2268 2.509 5.7084C1.8694 5.4504 1.3114 5.1276 0.904595 4.7388C0.496595 4.3476 0.200195 3.8508 0.200195 3.2664C0.200195 2.6832 0.495395 2.1864 0.904595 1.7952C1.3138 1.404 1.8694 1.0836 2.509 0.8244Z" fill="white"/>
<path fill-rule="evenodd" clip-rule="evenodd" d="M0.800195 3.20038C0.959325 3.20038 1.11194 3.26359 1.22446 3.37611C1.33698 3.48864 1.4002 3.64125 1.4002 3.80038V7.53238C1.4002 7.68598 1.4746 7.88998 1.7338 8.13718C1.9942 8.38678 2.4034 8.63878 2.9578 8.86318C4.0654 9.30958 5.63499 9.59998 7.4002 9.59998C9.1642 9.59998 10.7362 9.30958 11.8426 8.86318C12.397 8.63878 12.8062 8.38678 13.0666 8.13718C13.3258 7.88998 13.4002 7.68598 13.4002 7.53358V3.80038C13.4002 3.64125 13.4634 3.48864 13.5759 3.37611C13.6885 3.26359 13.8411 3.20038 14.0002 3.20038C14.1593 3.20038 14.3119 3.26359 14.4245 3.37611C14.537 3.48864 14.6002 3.64125 14.6002 3.80038V7.53238C14.6002 8.11798 14.305 8.61478 13.8958 9.00478C13.4866 9.39478 12.931 9.71758 12.2914 9.97558C11.0098 10.4928 9.2794 10.8 7.4002 10.8C5.51979 10.8 3.7906 10.4928 2.509 9.97558C1.8694 9.71638 1.3114 9.39478 0.904595 9.00478C0.496595 8.61598 0.200195 8.11678 0.200195 7.53358V3.80038C0.200195 3.64125 0.263409 3.48864 0.375931 3.37611C0.488453 3.26359 0.641065 3.20038 0.800195 3.20038Z" fill="white"/>
<path fill-rule="evenodd" clip-rule="evenodd" d="M3.44043 9.60004V5.53564H4.64043V9.60004H3.44043ZM8.72043 9.60004V6.00004H9.92043V9.60004H8.72043Z" fill="white"/>
</svg>
