<svg width="22" height="17" viewBox="0 0 22 17" fill="none" xmlns="http://www.w3.org/2000/svg">
<path fill-rule="evenodd" clip-rule="evenodd" d="M16.8752 13.5818L18.6932 6.66259L16.0364 8.35459C15.5066 8.69237 14.8655 8.80893 14.2507 8.67925C13.636 8.54957 13.0966 8.18398 12.7484 7.66099L11 5.03419L9.25038 7.66219C8.902 8.18498 8.36251 8.55032 7.74776 8.67978C7.13301 8.80924 6.49201 8.69249 5.96238 8.35459L3.30798 6.66259L5.12598 13.5818H16.8752ZM3.95118 5.64979C3.03078 5.06299 1.86798 5.91139 2.14518 6.96739L3.96438 13.8866C4.03173 14.143 4.18211 14.37 4.39204 14.5319C4.60198 14.6939 4.85964 14.7817 5.12478 14.7818H16.8752C17.1403 14.7817 17.398 14.6939 17.6079 14.5319C17.8179 14.37 17.9682 14.143 18.0356 13.8866L19.8548 6.96739C20.1308 5.91139 18.9692 5.06419 18.0488 5.64979L15.392 7.34179C15.1272 7.5108 14.8068 7.56927 14.4994 7.50465C14.192 7.44004 13.9223 7.25749 13.748 6.99619L11.9984 4.36819C11.8888 4.20384 11.7403 4.06909 11.5662 3.97589C11.392 3.88269 11.1975 3.83392 11 3.83392C10.8024 3.83392 10.608 3.88269 10.4338 3.97589C10.2596 4.06909 10.1112 4.20384 10.0016 4.36819L8.25198 6.99619C8.07788 7.25769 7.80818 7.44048 7.5008 7.50532C7.19342 7.57016 6.87287 7.51188 6.60798 7.34299L3.95118 5.64979Z" fill="white"/>
<path d="M12.1328 1.734C12.1331 2.03475 12.014 2.32332 11.8015 2.53621C11.5891 2.7491 11.3008 2.86888 11 2.8692C10.6993 2.86951 10.4107 2.75035 10.1978 2.5379C9.98493 2.32546 9.86515 2.03715 9.86483 1.7364C9.86451 1.43564 9.98368 1.14708 10.1961 0.934187C10.4086 0.721295 10.6969 0.601515 10.9976 0.601197C11.2984 0.600879 11.5869 0.720048 11.7998 0.932489C12.0127 1.14493 12.1325 1.43324 12.1328 1.734ZM21.2 4.0032C21.2002 4.30395 21.0809 4.59245 20.8683 4.80523C20.6558 5.01801 20.3674 5.13764 20.0666 5.1378C19.7659 5.13796 19.4774 5.01863 19.2646 4.80608C19.0518 4.59353 18.9322 4.30515 18.932 4.0044C18.932 3.70364 19.0515 3.4152 19.2642 3.20254C19.4768 2.98987 19.7653 2.8704 20.066 2.8704C20.3668 2.8704 20.6552 2.98987 20.8679 3.20254C21.0806 3.4152 21.2 3.70244 21.2 4.0032ZM3.06683 4.0032C3.06691 4.15212 3.03765 4.29959 2.98074 4.43721C2.92382 4.57482 2.84036 4.69987 2.73511 4.80523C2.62987 4.91059 2.5049 4.99418 2.36735 5.05125C2.22979 5.10831 2.08235 5.13772 1.93343 5.1378C1.78451 5.13788 1.63703 5.10862 1.49942 5.05171C1.36181 4.99479 1.23675 4.91133 1.13139 4.80608C1.02604 4.70083 0.94244 4.57587 0.885378 4.43831C0.828317 4.30076 0.798907 4.15332 0.798828 4.0044C0.798828 3.70364 0.918303 3.4152 1.13097 3.20254C1.34364 2.98987 1.63207 2.8704 1.93283 2.8704C2.23358 2.8704 2.52202 2.98987 2.73469 3.20254C2.94735 3.4152 3.06683 3.70244 3.06683 4.0032Z" fill="white"/>
<path fill-rule="evenodd" clip-rule="evenodd" d="M5.2998 16.2001C5.2998 16.041 5.36302 15.8884 5.47554 15.7758C5.58806 15.6633 5.74067 15.6001 5.8998 15.6001H16.3842C16.5433 15.6001 16.6959 15.6633 16.8085 15.7758C16.921 15.8884 16.9842 16.041 16.9842 16.2001C16.9842 16.3592 16.921 16.5118 16.8085 16.6244C16.6959 16.7369 16.5433 16.8001 16.3842 16.8001H5.8998C5.74067 16.8001 5.58806 16.7369 5.47554 16.6244C5.36302 16.5118 5.2998 16.3592 5.2998 16.2001Z" fill="white"/>
</svg>
