<svg width="15" height="18" viewBox="0 0 15 18" fill="none" xmlns="http://www.w3.org/2000/svg">
<g clip-path="url(#clip0_1819_8235)">
<path d="M7.37601 0.570312C7.95886 0.570312 8.42976 1.04121 8.42976 1.62406V2.61525L8.9237 2.1213C9.23324 1.81176 9.73377 1.81176 10.04 2.1213C10.3463 2.43084 10.3496 2.93137 10.04 3.23762L8.42646 4.85117V7.16613L10.4483 5.98725L11.0312 3.81059C11.1432 3.38909 11.5778 3.13883 11.9993 3.25079C12.4208 3.36275 12.6711 3.79742 12.5591 4.21892L12.3879 4.85447L13.165 4.40004C13.6689 4.10696 14.3143 4.2782 14.6074 4.77873C14.9004 5.27926 14.7325 5.92797 14.2287 6.22105L13.3956 6.70841L14.1101 6.8994C14.5316 7.01136 14.7819 7.44603 14.6699 7.86753C14.558 8.28903 14.1233 8.5393 13.7018 8.42734L11.4725 7.83131L9.46704 9.00031L11.4725 10.1693L13.7018 9.57329C14.1233 9.46133 14.558 9.71159 14.6699 10.1331C14.7819 10.5546 14.5316 10.9893 14.1101 11.1012L13.3956 11.2922L14.2287 11.7796C14.7325 12.0727 14.9004 12.7181 14.6074 13.2219C14.3143 13.7257 13.6689 13.8937 13.165 13.6006L12.3879 13.1462L12.5591 13.7817C12.6711 14.2032 12.4208 14.6379 11.9993 14.7498C11.5778 14.8618 11.1432 14.6115 11.0312 14.19L10.4483 12.0134L8.42976 10.8345V13.1495L10.0433 14.763C10.3529 15.0725 10.3529 15.5731 10.0433 15.8793C9.73377 16.1856 9.23324 16.1889 8.927 15.8793L8.43305 15.3854V16.3766C8.43305 16.9594 7.96216 17.4303 7.3793 17.4303C6.79645 17.4303 6.32555 16.9594 6.32555 16.3766V15.3854L5.83161 15.8793C5.52207 16.1889 5.02153 16.1889 4.71529 15.8793C4.40904 15.5698 4.40575 15.0693 4.71529 14.763L6.32884 13.1495V10.8345L4.30696 12.0134L3.72411 14.19C3.61214 14.6115 3.17747 14.8618 2.75597 14.7498C2.33447 14.6379 2.08421 14.2032 2.19617 13.7817L2.3674 13.1462L1.58368 13.5973C1.07985 13.8904 0.43443 13.7191 0.141356 13.2186C-0.151718 12.7181 0.019516 12.0694 0.520047 11.7763L1.35317 11.2889L0.638594 11.0979C0.217094 10.986 -0.0331715 10.5513 0.0787894 10.1298C0.19075 9.7083 0.625422 9.45804 1.04692 9.57L3.27626 10.166L5.28497 9.00031L3.27955 7.83131L1.05022 8.42734C0.628715 8.5393 0.194043 8.28903 0.0820824 7.86753C-0.0298786 7.44603 0.220387 7.01136 0.641887 6.8994L1.35646 6.70841L0.52334 6.22105C0.0195159 5.92797 -0.148425 5.28255 0.144649 4.78202C0.437723 4.28149 1.08314 4.11025 1.58697 4.40333L2.36411 4.85776L2.19288 4.22221C2.08091 3.80071 2.33118 3.36604 2.75268 3.25408C3.17418 3.14212 3.60885 3.39239 3.72081 3.81389L4.30367 5.99054L6.32226 7.16613V4.84788L4.7087 3.23762C4.39916 2.92808 4.39916 2.42755 4.7087 2.1213C5.01824 1.81505 5.51877 1.81176 5.82502 2.1213L6.31896 2.61525V1.62406C6.31896 1.04121 6.78986 0.570312 7.37271 0.570312H7.37601Z" fill="#131313"/>
</g>
<defs>
<clipPath id="clip0_1819_8235">
<rect width="14.7525" height="16.86" fill="white" transform="translate(0 0.570312)"/>
</clipPath>
</defs>
</svg>
