<svg width="28" height="29" viewBox="0 0 28 29" fill="none" xmlns="http://www.w3.org/2000/svg">
<path d="M14 26.9375C7.245 26.9375 1.75 21.4425 1.75 14.6875C1.75 7.9325 7.245 2.4375 14 2.4375C20.755 2.4375 26.25 7.9325 26.25 14.6875C26.25 21.4425 20.755 26.9375 14 26.9375ZM14 4.1875C8.2075 4.1875 3.5 8.895 3.5 14.6875C3.5 20.48 8.2075 25.1875 14 25.1875C19.7925 25.1875 24.5 20.48 24.5 14.6875C24.5 8.895 19.7925 4.1875 14 4.1875Z" fill="#131313"/>
<path d="M17.5 19.0625C17.3425 19.0625 17.185 19.0275 17.045 18.94L12.67 16.315C12.541 16.2365 12.4346 16.1259 12.361 15.994C12.2874 15.8622 12.2491 15.7135 12.25 15.5625V8.5625C12.25 8.0725 12.635 7.6875 13.125 7.6875C13.615 7.6875 14 8.0725 14 8.5625V15.0725L17.955 17.435C18.1179 17.5348 18.2438 17.6851 18.3137 17.8629C18.3835 18.0408 18.3934 18.2365 18.342 18.4205C18.2906 18.6046 18.1805 18.7668 18.0286 18.8826C17.8766 18.9985 17.6911 19.0616 17.5 19.0625Z" fill="#131313"/>
</svg>
