<svg width="22" height="18" viewBox="0 0 22 18" fill="none" xmlns="http://www.w3.org/2000/svg">
<g clip-path="url(#clip0_1819_8246)">
<g clip-path="url(#clip1_1819_8246)">
<path d="M6.97469 0.570312C7.23154 0.570312 7.44559 0.758012 7.52462 1.00498C7.92965 2.27936 9.125 3.20469 10.5377 3.20469C11.9504 3.20469 13.1457 2.27936 13.5508 1.00498C13.6298 0.758012 13.8438 0.570312 14.1007 0.570312H14.5156C15.2565 0.570312 15.9711 0.830457 16.5408 1.30464L20.6965 4.76555C20.9138 4.94667 21.0488 5.21011 21.0719 5.4933C21.0949 5.7765 21.0027 6.0564 20.815 6.27044L18.971 8.37794C18.5956 8.80932 17.9436 8.85872 17.5023 8.4932L15.8064 7.08051V15.3228C15.8064 16.4852 14.8614 17.4303 13.6989 17.4303H7.37643C6.21402 17.4303 5.26893 16.4852 5.26893 15.3228V7.08051L3.57306 8.4932C3.13509 8.85872 2.48308 8.80932 2.10439 8.37794L0.260329 6.27044C0.07263 6.0564 -0.0195731 5.7765 0.00347763 5.4933C0.0265284 5.21011 0.16154 4.94667 0.378876 4.76555L4.5346 1.30464C5.10429 0.830457 5.81886 0.570312 6.55978 0.570312H6.97469Z" fill="#131313"/>
</g>
</g>
<defs>
<clipPath id="clip0_1819_8246">
<rect width="21.075" height="16.86" fill="white" transform="translate(0 0.570312)"/>
</clipPath>
<clipPath id="clip1_1819_8246">
<rect width="21.075" height="16.86" fill="white" transform="translate(0 0.570312)"/>
</clipPath>
</defs>
</svg>
