<svg width="24" height="24" viewBox="0 0 24 24" fill="none" xmlns="http://www.w3.org/2000/svg">
<g clip-path="url(#clip0_1985_11131)">
<path d="M6.58742 4.12793C7.24004 4.12793 7.86592 4.38718 8.32738 4.84865C8.78885 5.31011 9.0481 5.93599 9.0481 6.58861C9.0481 7.24122 8.78885 7.8671 8.32738 8.32857C7.86592 8.79004 7.24004 9.04928 6.58742 9.04928C5.93481 9.04928 5.30893 8.79004 4.84746 8.32857C4.38599 7.8671 4.12675 7.24122 4.12675 6.58861C4.12675 5.93599 4.38599 5.31011 4.84746 4.84865C5.30893 4.38718 5.93481 4.12793 6.58742 4.12793ZM17.9065 4.12793C18.5592 4.12793 19.185 4.38718 19.6465 4.84865C20.108 5.31011 20.3672 5.93599 20.3672 6.58861C20.3672 7.24122 20.108 7.8671 19.6465 8.32857C19.185 8.79004 18.5592 9.04928 17.9065 9.04928C17.2539 9.04928 16.628 8.79004 16.1666 8.32857C15.7051 7.8671 15.4459 7.24122 15.4459 6.58861C15.4459 5.93599 15.7051 5.31011 16.1666 4.84865C16.628 4.38718 17.2539 4.12793 17.9065 4.12793ZM2.1582 13.3155C2.1582 11.5038 3.62846 10.0336 5.44013 10.0336H6.75352C7.24258 10.0336 7.70703 10.1412 8.12535 10.3319C8.08536 10.5534 8.06691 10.7841 8.06691 11.0178C8.06691 12.1928 8.58365 13.2478 9.39875 13.9706C9.3926 13.9706 9.38644 13.9706 9.37722 13.9706H2.81336C2.45348 13.9706 2.1582 13.6754 2.1582 13.3155ZM14.6246 13.9706C14.6185 13.9706 14.6123 13.9706 14.6031 13.9706C15.4213 13.2478 15.9349 12.1928 15.9349 11.0178C15.9349 10.7841 15.9134 10.5564 15.8765 10.3319C16.2948 10.1381 16.7592 10.0336 17.2483 10.0336H18.5617C20.3734 10.0336 21.8436 11.5038 21.8436 13.3155C21.8436 13.6784 21.5483 13.9706 21.1885 13.9706H14.6246ZM9.0481 11.0178C9.0481 10.2347 9.3592 9.48363 9.91296 8.92987C10.4667 8.37611 11.2178 8.06501 12.0009 8.06501C12.784 8.06501 13.5351 8.37611 14.0889 8.92987C14.6426 9.48363 14.9537 10.2347 14.9537 11.0178C14.9537 11.801 14.6426 12.552 14.0889 13.1058C13.5351 13.6595 12.784 13.9706 12.0009 13.9706C11.2178 13.9706 10.4667 13.6595 9.91296 13.1058C9.3592 12.552 9.0481 11.801 9.0481 11.0178ZM6.09529 19.055C6.09529 16.7912 7.93157 14.9549 10.1954 14.9549H13.8064C16.0703 14.9549 17.9065 16.7912 17.9065 19.055C17.9065 19.5072 17.5405 19.8763 17.0853 19.8763H6.91654C6.46439 19.8763 6.09529 19.5102 6.09529 19.055Z" fill="#131313"/>
</g>
<defs>
<clipPath id="clip0_1985_11131">
<rect width="19.6854" height="15.7483" fill="white" transform="translate(2.1582 4.12598)"/>
</clipPath>
</defs>
</svg>
