<svg width="24" height="24" viewBox="0 0 24 24" fill="none" xmlns="http://www.w3.org/2000/svg">
<path d="M22.9498 14.1C22.871 14.1591 22.7813 14.2021 22.6859 14.2265C22.5905 14.251 22.4912 14.2564 22.3937 14.2424C22.2962 14.2285 22.2024 14.1955 22.1177 14.1453C22.0329 14.0952 21.9589 14.0288 21.8998 13.95C21.4477 13.3424 20.8593 12.8493 20.182 12.5107C19.5046 12.172 18.7571 11.997 17.9998 12C17.8523 12 17.7081 11.9565 17.5852 11.8749C17.4623 11.7934 17.3662 11.6774 17.3089 11.5415C17.2699 11.4493 17.2499 11.3501 17.2499 11.25C17.2499 11.1498 17.2699 11.0507 17.3089 10.9584C17.3662 10.8225 17.4623 10.7066 17.5852 10.625C17.7081 10.5435 17.8523 10.5 17.9998 10.5C18.4206 10.4999 18.833 10.3819 19.1901 10.1592C19.5472 9.93659 19.8347 9.61825 20.0199 9.2404C20.2051 8.86254 20.2807 8.44031 20.238 8.02167C20.1953 7.60302 20.036 7.20474 19.7783 6.87207C19.5206 6.53939 19.1748 6.28566 18.7801 6.13969C18.3854 5.99371 17.9577 5.96135 17.5455 6.04628C17.1334 6.13121 16.7533 6.33002 16.4484 6.62013C16.1436 6.91024 15.9262 7.28003 15.821 7.68748C15.7964 7.7829 15.7532 7.87253 15.694 7.95125C15.6347 8.02998 15.5605 8.09627 15.4757 8.14632C15.3908 8.19638 15.2969 8.22923 15.1993 8.24299C15.1017 8.25676 15.0024 8.25117 14.907 8.22655C14.8116 8.20192 14.7219 8.15875 14.6432 8.09949C14.5645 8.04023 14.4982 7.96604 14.4481 7.88116C14.3981 7.79628 14.3652 7.70237 14.3515 7.6048C14.3377 7.50723 14.3433 7.4079 14.3679 7.31248C14.5139 6.74747 14.7898 6.22433 15.1736 5.78469C15.5574 5.34505 16.0385 5.00105 16.5786 4.78006C17.1187 4.55907 17.703 4.46719 18.2848 4.51173C18.8667 4.55627 19.4302 4.736 19.9304 5.03662C20.4306 5.33724 20.8537 5.75045 21.1661 6.24338C21.4785 6.7363 21.6715 7.29533 21.7299 7.87599C21.7882 8.45665 21.7102 9.04291 21.5021 9.58812C21.2939 10.1333 20.9615 10.6224 20.531 11.0165C21.5509 11.4581 22.4374 12.1588 23.1026 13.049C23.1617 13.128 23.2046 13.2179 23.2289 13.3135C23.2532 13.4091 23.2584 13.5086 23.2442 13.6062C23.23 13.7038 23.1967 13.7977 23.1462 13.8824C23.0957 13.9672 23.0289 14.0411 22.9498 14.1ZM17.8985 19.875C17.9528 19.9603 17.9892 20.0558 18.0057 20.1556C18.0221 20.2554 18.0181 20.3575 17.9941 20.4558C17.97 20.554 17.9263 20.6464 17.8656 20.7273C17.8049 20.8082 17.7285 20.876 17.6409 20.9267C17.5534 20.9773 17.4565 21.0097 17.356 21.0219C17.2556 21.0341 17.1538 21.0258 17.0566 20.9976C16.9595 20.9695 16.8691 20.9219 16.7908 20.8579C16.7125 20.7938 16.6479 20.7146 16.601 20.625C16.1286 19.825 15.4557 19.162 14.6488 18.7014C13.8419 18.2409 12.9289 17.9986 11.9998 17.9986C11.0707 17.9986 10.1577 18.2409 9.35077 18.7014C8.54388 19.162 7.871 19.825 7.39855 20.625C7.35166 20.7146 7.28713 20.7938 7.20883 20.8579C7.13054 20.9219 7.04009 20.9695 6.94295 20.9976C6.8458 21.0258 6.74396 21.0341 6.64355 21.0219C6.54313 21.0097 6.44622 20.9773 6.35865 20.9267C6.27108 20.876 6.19465 20.8082 6.13396 20.7273C6.07327 20.6464 6.02958 20.554 6.00552 20.4558C5.98145 20.3575 5.97751 20.2554 5.99393 20.1556C6.01034 20.0558 6.04678 19.9603 6.10105 19.875C6.82817 18.6257 7.93685 17.6425 9.26417 17.07C8.51729 16.4981 7.96838 15.7066 7.69461 14.8067C7.42083 13.9068 7.43595 12.9437 7.73784 12.0528C8.03973 11.1619 8.61321 10.388 9.37767 9.83987C10.1421 9.29175 11.0591 8.99698 11.9998 8.99698C12.9404 8.99698 13.8575 9.29175 14.6219 9.83987C15.3864 10.388 15.9599 11.1619 16.2617 12.0528C16.5636 12.9437 16.5788 13.9068 16.305 14.8067C16.0312 15.7066 15.4823 16.4981 14.7354 17.07C16.0627 17.6425 17.1714 18.6257 17.8985 19.875ZM11.9998 16.5C12.5931 16.5 13.1732 16.324 13.6665 15.9944C14.1599 15.6647 14.5444 15.1962 14.7714 14.648C14.9985 14.0999 15.0579 13.4967 14.9422 12.9147C14.8264 12.3328 14.5407 11.7982 14.1211 11.3787C13.7016 10.9591 13.167 10.6734 12.5851 10.5576C12.0031 10.4419 11.3999 10.5013 10.8517 10.7283C10.3036 10.9554 9.83503 11.3399 9.50539 11.8333C9.17574 12.3266 8.9998 12.9066 8.9998 13.5C8.9998 14.2956 9.31587 15.0587 9.87848 15.6213C10.4411 16.1839 11.2041 16.5 11.9998 16.5ZM6.7498 11.25C6.7498 11.0511 6.67078 10.8603 6.53013 10.7197C6.38947 10.579 6.19871 10.5 5.9998 10.5C5.57898 10.4999 5.1666 10.3819 4.80952 10.1592C4.45243 9.93659 4.16494 9.61825 3.9797 9.2404C3.79446 8.86254 3.7189 8.44031 3.76161 8.02167C3.80431 7.60302 3.96356 7.20474 4.22127 6.87207C4.47898 6.53939 4.82483 6.28566 5.21951 6.13969C5.6142 5.99371 6.04192 5.96135 6.45408 6.04628C6.86624 6.13121 7.24632 6.33002 7.55115 6.62013C7.85598 6.91024 8.07334 7.28003 8.17855 7.68748C8.22827 7.88018 8.35251 8.04523 8.52393 8.14632C8.69535 8.24742 8.89991 8.27627 9.09261 8.22655C9.2853 8.17682 9.45035 8.05258 9.55145 7.88116C9.65254 7.70974 9.6814 7.50518 9.63167 7.31248C9.48565 6.74747 9.20977 6.22433 8.82599 5.78469C8.44221 5.34505 7.96112 5.00105 7.421 4.78006C6.88088 4.55907 6.29664 4.46719 5.71476 4.51173C5.13288 4.55627 4.56942 4.736 4.06923 5.03662C3.56903 5.33724 3.1459 5.75045 2.8335 6.24338C2.5211 6.7363 2.32806 7.29533 2.26974 7.87599C2.21141 8.45665 2.28941 9.04291 2.49752 9.58812C2.70564 10.1333 3.03813 10.6224 3.46855 11.0165C2.44975 11.4585 1.56422 12.1592 0.899796 13.049C0.780324 13.2082 0.72896 13.4082 0.757003 13.6052C0.785045 13.8023 0.890197 13.98 1.04933 14.0995C1.20846 14.219 1.40853 14.2704 1.60553 14.2423C1.80253 14.2143 1.98032 14.1091 2.0998 13.95C2.55185 13.3424 3.14025 12.8493 3.81763 12.5107C4.49502 12.172 5.24246 11.997 5.9998 12C6.19871 12 6.38947 11.921 6.53013 11.7803C6.67078 11.6397 6.7498 11.4489 6.7498 11.25Z" fill="#131313"/>
</svg>
