<svg width="24" height="23" viewBox="0 0 24 23" fill="none" xmlns="http://www.w3.org/2000/svg">
<path d="M11.03 9.78255C11.03 9.51864 11.1083 9.26065 11.2549 9.04121C11.4015 8.82178 11.6099 8.65075 11.8537 8.54975C12.0976 8.44876 12.3659 8.42233 12.6247 8.47382C12.8836 8.5253 13.1213 8.65239 13.3079 8.83901C13.4946 9.02562 13.6216 9.26339 13.6731 9.52223C13.7246 9.78107 13.6982 10.0494 13.5972 10.2932C13.4962 10.537 13.3252 10.7454 13.1057 10.892C12.8863 11.0387 12.6283 11.1169 12.3644 11.1169C12.0105 11.1169 11.6711 10.9763 11.4208 10.7261C11.1706 10.4759 11.03 10.1365 11.03 9.78255ZM7.47168 11.1169C7.7356 11.1169 7.99358 11.0387 8.21302 10.892C8.43246 10.7454 8.60349 10.537 8.70448 10.2932C8.80548 10.0494 8.8319 9.78107 8.78042 9.52223C8.72893 9.26339 8.60184 9.02562 8.41523 8.83901C8.22861 8.65239 7.99085 8.5253 7.732 8.47382C7.47316 8.42233 7.20486 8.44876 6.96104 8.54975C6.71721 8.65075 6.50881 8.82178 6.36219 9.04121C6.21556 9.26065 6.13731 9.51864 6.13731 9.78255C6.13731 10.1365 6.27789 10.4759 6.52813 10.7261C6.77838 10.9763 7.11778 11.1169 7.47168 11.1169ZM17.2571 11.1169C17.521 11.1169 17.779 11.0387 17.9984 10.892C18.2179 10.7454 18.3889 10.537 18.4899 10.2932C18.5909 10.0494 18.6173 9.78107 18.5658 9.52223C18.5143 9.26339 18.3873 9.02562 18.2006 8.83901C18.014 8.65239 17.7763 8.5253 17.5174 8.47382C17.2586 8.42233 16.9903 8.44876 16.7465 8.54975C16.5026 8.65075 16.2942 8.82178 16.1476 9.04121C16.001 9.26065 15.9227 9.51864 15.9227 9.78255C15.9227 10.1365 16.0633 10.4759 16.3136 10.7261C16.5638 10.9763 16.9032 11.1169 17.2571 11.1169ZM23.929 2.66589V16.8992C23.929 17.3711 23.7415 17.8236 23.4079 18.1573C23.0742 18.4909 22.6217 18.6784 22.1498 18.6784H15.4301L13.9089 21.3405C13.7533 21.6127 13.5285 21.8389 13.2572 21.9963C12.986 22.1537 12.678 22.2366 12.3644 22.2366C12.0508 22.2366 11.7428 22.1537 11.4716 21.9963C11.2003 21.8389 10.9755 21.6127 10.8199 21.3405L9.29866 18.6784H2.57897C2.10711 18.6784 1.65457 18.4909 1.32091 18.1573C0.987252 17.8236 0.799805 17.3711 0.799805 16.8992V2.66589C0.799805 2.19402 0.987252 1.74148 1.32091 1.40782C1.65457 1.07417 2.10711 0.886719 2.57897 0.886719H22.1498C22.6217 0.886719 23.0742 1.07417 23.4079 1.40782C23.7415 1.74148 23.929 2.19402 23.929 2.66589ZM22.1498 2.66589H2.57897V16.8992H9.81462C9.97213 16.8978 10.1272 16.9382 10.2639 17.0164C10.4007 17.0945 10.5143 17.2076 10.593 17.344L12.3722 20.4576L14.1513 17.344C14.2301 17.2076 14.3436 17.0945 14.4804 17.0164C14.6172 16.9382 14.7722 16.8978 14.9297 16.8992H22.1498V2.66589Z" fill="#131313"/>
</svg>
