<svg width="20" height="20" viewBox="0 0 20 20" fill="none" xmlns="http://www.w3.org/2000/svg">
<g clip-path="url(#clip0_2234_120622)">
<path d="M3.38889 3.39062C2.34705 3.39062 1.5 4.23767 1.5 5.27951V6.22396H18.5V5.27951C18.5 4.23767 17.653 3.39062 16.6111 3.39062H3.38889ZM18.5 9.05729H1.5V14.724C1.5 15.7658 2.34705 16.6128 3.38889 16.6128H16.6111C17.653 16.6128 18.5 15.7658 18.5 14.724V9.05729ZM4.80556 12.8351H6.69444C6.95417 12.8351 7.16667 13.0476 7.16667 13.3073C7.16667 13.567 6.95417 13.7795 6.69444 13.7795H4.80556C4.54583 13.7795 4.33333 13.567 4.33333 13.3073C4.33333 13.0476 4.54583 12.8351 4.80556 12.8351ZM8.11111 13.3073C8.11111 13.0476 8.32361 12.8351 8.58333 12.8351H12.3611C12.6208 12.8351 12.8333 13.0476 12.8333 13.3073C12.8333 13.567 12.6208 13.7795 12.3611 13.7795H8.58333C8.32361 13.7795 8.11111 13.567 8.11111 13.3073Z" fill="white"/>
</g>
<defs>
<clipPath id="clip0_2234_120622">
<rect width="17" height="15.1111" fill="white" transform="translate(1.5 2.44531)"/>
</clipPath>
</defs>
</svg>
