<svg width="20" height="16" viewBox="0 0 20 16" fill="none" xmlns="http://www.w3.org/2000/svg">
<g clip-path="url(#clip0_2234_120631)">
<path d="M3.26058 4.14823C3.26058 3.12678 3.66635 2.14718 4.38862 1.42491C5.11089 0.702641 6.09049 0.296875 7.11194 0.296875C8.13338 0.296875 9.11298 0.702641 9.83525 1.42491C10.5575 2.14718 10.9633 3.12678 10.9633 4.14823C10.9633 5.16967 10.5575 6.14927 9.83525 6.87154C9.11298 7.59381 8.13338 7.99958 7.11194 7.99958C6.09049 7.99958 5.11089 7.59381 4.38862 6.87154C3.66635 6.14927 3.26058 5.16967 3.26058 4.14823ZM0.37207 14.8086C0.37207 11.8449 2.77315 9.44383 5.73688 9.44383H8.48699C11.4507 9.44383 13.8518 11.8449 13.8518 14.8086C13.8518 15.3021 13.4516 15.7023 12.9582 15.7023H1.2657C0.77225 15.7023 0.37207 15.3021 0.37207 14.8086ZM15.5368 9.68454V7.75887H13.6111C13.2109 7.75887 12.889 7.43692 12.889 7.03674C12.889 6.63656 13.2109 6.31461 13.6111 6.31461H15.5368V4.38894C15.5368 3.98876 15.8587 3.66681 16.2589 3.66681C16.6591 3.66681 16.981 3.98876 16.981 4.38894V6.31461H18.9067C19.3069 6.31461 19.6288 6.63656 19.6288 7.03674C19.6288 7.43692 19.3069 7.75887 18.9067 7.75887H16.981V9.68454C16.981 10.0847 16.6591 10.4067 16.2589 10.4067C15.8587 10.4067 15.5368 10.0847 15.5368 9.68454Z" fill="white"/>
</g>
<defs>
<clipPath id="clip0_2234_120631">
<rect width="19.2568" height="15.4054" fill="white" transform="translate(0.37207 0.296875)"/>
</clipPath>
</defs>
</svg>
