<svg width="20" height="20" viewBox="0 0 20 20" fill="none" xmlns="http://www.w3.org/2000/svg">
<g clip-path="url(#clip0_2234_120638)">
<path d="M17.2181 7.30965C17.3144 7.57142 17.2331 7.86328 17.0255 8.04983L15.7227 9.23533C15.7558 9.48506 15.7738 9.74081 15.7738 9.99958C15.7738 10.2583 15.7558 10.5141 15.7227 10.7638L17.0255 11.9493C17.2331 12.1359 17.3144 12.4277 17.2181 12.6895C17.0857 13.0476 16.9262 13.3906 16.7427 13.7215L16.6013 13.9653C16.4027 14.2962 16.18 14.6092 15.9363 14.904C15.7588 15.1207 15.4639 15.1929 15.1991 15.1086L13.5232 14.5761C13.12 14.886 12.6747 15.1447 12.1993 15.3403L11.8232 17.0584C11.763 17.3322 11.5524 17.5488 11.2756 17.594C10.8604 17.6632 10.4331 17.6993 9.99681 17.6993C9.56052 17.6993 9.13326 17.6632 8.71804 17.594C8.44122 17.5488 8.2306 17.3322 8.17042 17.0584L7.79432 15.3403C7.31891 15.1447 6.8736 14.886 6.47041 14.5761L4.79748 15.1116C4.5327 15.1959 4.23783 15.1207 4.06031 14.907C3.81659 14.6122 3.59394 14.2992 3.39535 13.9683L3.25393 13.7246C3.07039 13.3936 2.91092 13.0506 2.77853 12.6925C2.68225 12.4307 2.76349 12.1389 2.9711 11.9523L4.27394 10.7668C4.24084 10.5141 4.22279 10.2583 4.22279 9.99958C4.22279 9.74081 4.24084 9.48506 4.27394 9.23533L2.9711 8.04983C2.76349 7.86328 2.68225 7.57142 2.77853 7.30965C2.91092 6.95159 3.07039 6.60858 3.25393 6.27761L3.39535 6.03389C3.59394 5.70291 3.81659 5.38999 4.06031 5.09512C4.23783 4.87848 4.5327 4.80627 4.79748 4.89052L6.47342 5.42309C6.87661 5.11318 7.32192 4.85441 7.79732 4.65884L8.17343 2.94077C8.23361 2.66697 8.44423 2.45033 8.72105 2.40519C9.13627 2.33298 9.56353 2.29688 9.99982 2.29688C10.4361 2.29688 10.8634 2.33298 11.2786 2.40219C11.5554 2.44732 11.766 2.66396 11.8262 2.93776L12.2023 4.65583C12.6777 4.8514 13.123 5.11017 13.5262 5.42008L15.2021 4.88751C15.4669 4.80326 15.7618 4.87848 15.9393 5.09211C16.183 5.38698 16.4057 5.6999 16.6043 6.03088L16.7457 6.2746C16.9292 6.60557 17.0887 6.94859 17.2211 7.30664L17.2181 7.30965ZM9.99982 12.4067C10.6382 12.4067 11.2505 12.1531 11.7019 11.7017C12.1533 11.2502 12.4069 10.638 12.4069 9.99958C12.4069 9.36118 12.1533 8.74892 11.7019 8.2975C11.2505 7.84609 10.6382 7.59248 9.99982 7.59248C9.36141 7.59248 8.74916 7.84609 8.29774 8.2975C7.84633 8.74892 7.59272 9.36118 7.59272 9.99958C7.59272 10.638 7.84633 11.2502 8.29774 11.7017C8.74916 12.1531 9.36141 12.4067 9.99982 12.4067Z" fill="white"/>
</g>
<defs>
<clipPath id="clip0_2234_120638">
<rect width="15.4054" height="15.4054" fill="white" transform="translate(2.29688 2.29688)"/>
</clipPath>
</defs>
</svg>
