<svg width="20" height="20" viewBox="0 0 20 20" fill="none" xmlns="http://www.w3.org/2000/svg">
<g clip-path="url(#clip0_2033_41358)">
<path d="M3.38889 3.38867C2.34705 3.38867 1.5 4.23572 1.5 5.27756V6.22201H18.5V5.27756C18.5 4.23572 17.653 3.38867 16.6111 3.38867H3.38889ZM18.5 9.05534H1.5V14.722C1.5 15.7638 2.34705 16.6109 3.38889 16.6109H16.6111C17.653 16.6109 18.5 15.7638 18.5 14.722V9.05534ZM4.80556 12.8331H6.69444C6.95417 12.8331 7.16667 13.0456 7.16667 13.3053C7.16667 13.5651 6.95417 13.7776 6.69444 13.7776H4.80556C4.54583 13.7776 4.33333 13.5651 4.33333 13.3053C4.33333 13.0456 4.54583 12.8331 4.80556 12.8331ZM8.11111 13.3053C8.11111 13.0456 8.32361 12.8331 8.58333 12.8331H12.3611C12.6208 12.8331 12.8333 13.0456 12.8333 13.3053C12.8333 13.5651 12.6208 13.7776 12.3611 13.7776H8.58333C8.32361 13.7776 8.11111 13.5651 8.11111 13.3053Z" fill="#131313"/>
</g>
<defs>
<clipPath id="clip0_2033_41358">
<rect width="17" height="15.1111" fill="white" transform="translate(1.5 2.44434)"/>
</clipPath>
</defs>
</svg>
