<svg width="20" height="16" viewBox="0 0 20 16" fill="none" xmlns="http://www.w3.org/2000/svg">
<g clip-path="url(#clip0_2033_41519)">
<path d="M10.1018 2.86054L7.18919 5.21949C6.70476 5.61064 6.61149 6.31472 6.97857 6.8172C7.36671 7.35278 8.12194 7.45809 8.64247 7.05189L11.6303 4.72904C11.8409 4.56656 12.1418 4.60267 12.3073 4.81329C12.4728 5.02391 12.4336 5.3248 12.223 5.49029L11.5942 5.97772L15.7765 9.82907V4.14833H15.7554L15.6381 4.07311L13.4537 2.67399C12.9933 2.37912 12.4547 2.22266 11.9071 2.22266C11.2512 2.22266 10.6133 2.44832 10.1018 2.86054ZM10.7878 6.60357L9.23221 7.81313C8.28442 8.55332 6.90936 8.36075 6.19927 7.38587C5.5313 6.46817 5.6998 5.18639 6.5814 4.47329L9.08478 2.44832C8.73575 2.30089 8.35964 2.22567 7.97751 2.22567C7.41185 2.22266 6.86122 2.39115 6.38883 2.70408L4.22245 4.14833V10.8882H5.07095L7.82105 13.3976C8.41079 13.9362 9.32248 13.8941 9.86106 13.3043C10.0266 13.1208 10.1379 12.9071 10.195 12.6845L10.7066 13.1539C11.2933 13.6925 12.208 13.6533 12.7466 13.0666C12.882 12.9192 12.9813 12.7477 13.0444 12.5702C13.6282 12.9613 14.4225 12.8801 14.913 12.3445C15.4515 11.7578 15.4124 10.8431 14.8257 10.3045L10.7878 6.60357ZM0.852513 4.14833C0.587732 4.14833 0.371094 4.36497 0.371094 4.62975V10.8882C0.371094 11.4208 0.801362 11.851 1.33393 11.851H2.29677C2.82934 11.851 3.25961 11.4208 3.25961 10.8882V4.14833H0.852513ZM1.81535 9.92536C1.94303 9.92536 2.06548 9.97608 2.15577 10.0664C2.24605 10.1566 2.29677 10.2791 2.29677 10.4068C2.29677 10.5345 2.24605 10.6569 2.15577 10.7472C2.06548 10.8375 1.94303 10.8882 1.81535 10.8882C1.68767 10.8882 1.56522 10.8375 1.47494 10.7472C1.38465 10.6569 1.33393 10.5345 1.33393 10.4068C1.33393 10.2791 1.38465 10.1566 1.47494 10.0664C1.56522 9.97608 1.68767 9.92536 1.81535 9.92536ZM16.7393 4.14833V10.8882C16.7393 11.4208 17.1696 11.851 17.7022 11.851H18.665C19.1976 11.851 19.6278 11.4208 19.6278 10.8882V4.62975C19.6278 4.36497 19.4112 4.14833 19.1464 4.14833H16.7393ZM17.7022 10.4068C17.7022 10.2791 17.7529 10.1566 17.8432 10.0664C17.9335 9.97608 18.0559 9.92536 18.1836 9.92536C18.3113 9.92536 18.4337 9.97608 18.524 10.0664C18.6143 10.1566 18.665 10.2791 18.665 10.4068C18.665 10.5345 18.6143 10.6569 18.524 10.7472C18.4337 10.8375 18.3113 10.8882 18.1836 10.8882C18.0559 10.8882 17.9335 10.8375 17.8432 10.7472C17.7529 10.6569 17.7022 10.5345 17.7022 10.4068Z" fill="#A3A3A3"/>
</g>
<defs>
<clipPath id="clip0_2033_41519">
<path d="M0.371094 0.296875H19.6278V15.7023H0.371094V0.296875Z" fill="white"/>
</clipPath>
</defs>
</svg>
