<svg width="14" height="16" viewBox="0 0 14 16" fill="none" xmlns="http://www.w3.org/2000/svg">
<g clip-path="url(#clip0_2033_41514)">
<path d="M7.96347 2.70307C7.96347 2.1705 7.5332 1.74023 7.00063 1.74023C6.46806 1.74023 6.0378 2.1705 6.0378 2.70307V7.03584H1.70503C1.17246 7.03584 0.742188 7.46611 0.742188 7.99868C0.742188 8.53125 1.17246 8.96152 1.70503 8.96152H6.0378V13.2943C6.0378 13.8269 6.46806 14.2571 7.00063 14.2571C7.5332 14.2571 7.96347 13.8269 7.96347 13.2943V8.96152H12.2962C12.8288 8.96152 13.2591 8.53125 13.2591 7.99868C13.2591 7.46611 12.8288 7.03584 12.2962 7.03584H7.96347V2.70307Z" fill="#A3A3A3"/>
</g>
<defs>
<clipPath id="clip0_2033_41514">
<path d="M0.261719 0.296875H13.7414V15.7023H0.261719V0.296875Z" fill="white"/>
</clipPath>
</defs>
</svg>
