<svg width="28" height="24" viewBox="0 0 28 24" fill="none" xmlns="http://www.w3.org/2000/svg">
<g clip-path="url(#clip0_4791_79263)">
<path d="M6.41185 21.6578C2.98412 21.6578 0.203125 18.8768 0.203125 15.4491C0.203125 12.7414 1.93639 10.439 4.3509 9.58962C4.34659 9.47321 4.34228 9.3568 4.34228 9.24038C4.34228 5.42891 7.42939 2.3418 11.2409 2.3418C13.7976 2.3418 16.0268 3.73014 17.2211 5.79971C17.8764 5.35993 18.6698 5.10123 19.5192 5.10123C21.8043 5.10123 23.6583 6.95523 23.6583 9.24038C23.6583 9.7664 23.5591 10.2665 23.3824 10.7322C25.9004 11.241 27.7975 13.4701 27.7975 16.139C27.7975 19.1873 25.3269 21.6578 22.2786 21.6578H6.41185ZM9.81803 12.3016C9.41274 12.7069 9.41274 13.3623 9.81803 13.7633C10.2233 14.1642 10.8787 14.1686 11.2797 13.7633L12.9612 12.0817V17.8636C12.9612 18.4371 13.4225 18.8984 13.996 18.8984C14.5694 18.8984 15.0308 18.4371 15.0308 17.8636V12.0817L16.7123 13.7633C17.1176 14.1686 17.773 14.1686 18.1739 13.7633C18.5749 13.358 18.5792 12.7026 18.1739 12.3016L14.7246 8.85234C14.3194 8.44704 13.664 8.44704 13.263 8.85234L9.81372 12.3016H9.81803Z" fill="#EEB887"/>
</g>
<defs>
<clipPath id="clip0_4791_79263">
<rect width="27.5943" height="22.0755" fill="white" transform="translate(0.203125 0.962891)"/>
</clipPath>
</defs>
</svg>
