<svg width="19" height="18" viewBox="0 0 19 18" fill="none" xmlns="http://www.w3.org/2000/svg">
<g clip-path="url(#clip0_1819_8228)">
<g clip-path="url(#clip1_1819_8228)">
<path d="M4.21492 4.77637C4.21492 3.03768 5.6276 1.625 7.36629 1.625C8.95679 1.625 10.297 2.81047 10.4946 4.3878L10.5275 4.65782C10.6 5.23409 10.1917 5.76097 9.6121 5.83341C9.03253 5.90586 8.50895 5.49753 8.43651 4.91797L8.40358 4.64795C8.33772 4.12436 7.89317 3.7325 7.36629 3.7325C6.79002 3.7325 6.32242 4.2001 6.32242 4.77637V7.9475H12.6449V4.77637C12.6449 3.03768 14.0576 1.625 15.7963 1.625C17.3868 1.625 18.727 2.81047 18.9246 4.3878L18.9575 4.65782C19.03 5.23409 18.6217 5.76097 18.0421 5.83341C17.4625 5.90586 16.939 5.49753 16.8665 4.91797L16.8336 4.64795C16.7677 4.12436 16.3232 3.7325 15.7963 3.7325C15.22 3.7325 14.7524 4.2001 14.7524 4.77637V12.4589C14.6997 12.4918 14.6438 12.5247 14.5944 12.561C14.0016 12.9693 13.2739 13.2294 12.6449 13.2294V10.055H6.32242V13.2327C5.69676 13.2327 4.96572 12.9726 4.37628 12.5642C4.32359 12.528 4.2709 12.4918 4.21492 12.4622V4.77637ZM10.0929 13.4105C10.8338 13.9209 11.7394 14.27 12.6449 14.27C13.5307 14.27 14.4692 13.9144 15.1937 13.4105C15.5855 13.1306 16.119 13.1537 16.4845 13.4665C16.9587 13.8584 17.5547 14.158 18.1508 14.2963C18.7172 14.4281 19.0695 14.9945 18.9378 15.5608C18.8061 16.1272 18.2397 16.4796 17.6733 16.3479C16.8665 16.1602 16.1947 15.8045 15.7568 15.5246C14.8018 16.0383 13.7316 16.3775 12.6449 16.3775C11.5945 16.3775 10.6494 16.0515 9.99737 15.7551C9.80638 15.6662 9.63185 15.5806 9.48367 15.5016C9.33549 15.5806 9.16425 15.6695 8.96997 15.7551C8.31796 16.0515 7.37288 16.3775 6.32242 16.3775C5.23574 16.3775 4.16553 16.0383 3.21056 15.5279C2.76931 15.8045 2.10083 16.1635 1.29406 16.3512C0.727666 16.4829 0.161275 16.1305 0.0295565 15.5641C-0.102162 14.9977 0.250185 14.4314 0.816576 14.2996C1.4126 14.1613 2.00863 13.8617 2.48282 13.4698C2.84834 13.1603 3.3818 13.1372 3.77366 13.4138C4.50141 13.9144 5.43661 14.27 6.32242 14.27C7.22799 14.27 8.13355 13.9209 8.87447 13.4105C9.23999 13.1504 9.72735 13.1504 10.0929 13.4105Z" fill="#131313"/>
</g>
</g>
<defs>
<clipPath id="clip0_1819_8228">
<rect width="18.9675" height="16.86" fill="white" transform="translate(0 0.570312)"/>
</clipPath>
<clipPath id="clip1_1819_8228">
<rect width="18.9675" height="16.86" fill="white" transform="translate(0 0.570312)"/>
</clipPath>
</defs>
</svg>
