<svg width="24" height="18" viewBox="0 0 24 18" fill="none" xmlns="http://www.w3.org/2000/svg">
<path d="M22.9498 10.1C22.871 10.1591 22.7813 10.2021 22.6859 10.2265C22.5905 10.251 22.4912 10.2564 22.3937 10.2424C22.2962 10.2285 22.2024 10.1955 22.1177 10.1453C22.0329 10.0952 21.9589 10.0288 21.8998 9.94998C21.4477 9.34235 20.8593 8.84935 20.182 8.51066C19.5046 8.17196 18.7571 7.99705 17.9998 7.99998C17.8523 7.99997 17.7081 7.95647 17.5852 7.87493C17.4623 7.79339 17.3662 7.67743 17.3089 7.54155C17.2699 7.44927 17.2499 7.35014 17.2499 7.24998C17.2499 7.14983 17.2699 7.0507 17.3089 6.95842C17.3662 6.82254 17.4623 6.70657 17.5852 6.62503C17.7081 6.54349 17.8523 6.5 17.9998 6.49998C18.4206 6.49995 18.833 6.3819 19.1901 6.15924C19.5472 5.93659 19.8347 5.61825 20.0199 5.2404C20.2051 4.86254 20.2807 4.44031 20.238 4.02167C20.1953 3.60302 20.036 3.20474 19.7783 2.87207C19.5206 2.53939 19.1748 2.28566 18.7801 2.13969C18.3854 1.99371 17.9577 1.96135 17.5455 2.04628C17.1334 2.13121 16.7533 2.33002 16.4484 2.62013C16.1436 2.91024 15.9262 3.28003 15.821 3.68748C15.7964 3.7829 15.7532 3.87253 15.694 3.95125C15.6347 4.02998 15.5605 4.09627 15.4757 4.14632C15.3908 4.19638 15.2969 4.22923 15.1993 4.24299C15.1017 4.25676 15.0024 4.25117 14.907 4.22655C14.8116 4.20192 14.7219 4.15875 14.6432 4.09949C14.5645 4.04023 14.4982 3.96604 14.4481 3.88116C14.3981 3.79628 14.3652 3.70237 14.3515 3.6048C14.3377 3.50723 14.3433 3.4079 14.3679 3.31248C14.5139 2.74747 14.7898 2.22433 15.1736 1.78469C15.5574 1.34505 16.0385 1.00105 16.5786 0.780063C17.1187 0.559073 17.703 0.467192 18.2848 0.511732C18.8667 0.556271 19.4302 0.736001 19.9304 1.03662C20.4306 1.33724 20.8537 1.75045 21.1661 2.24338C21.4785 2.7363 21.6715 3.29533 21.7299 3.87599C21.7882 4.45665 21.7102 5.04291 21.5021 5.58812C21.2939 6.13333 20.9615 6.62245 20.531 7.01655C21.5509 7.45811 22.4374 8.15881 23.1026 9.04905C23.1617 9.12804 23.2046 9.21791 23.2289 9.31352C23.2532 9.40913 23.2584 9.5086 23.2442 9.60622C23.23 9.70384 23.1967 9.79771 23.1462 9.88243C23.0957 9.96716 23.0289 10.0411 22.9498 10.1ZM17.8985 15.875C17.9528 15.9603 17.9892 16.0558 18.0057 16.1556C18.0221 16.2554 18.0181 16.3575 17.9941 16.4558C17.97 16.554 17.9263 16.6464 17.8656 16.7273C17.8049 16.8082 17.7285 16.876 17.6409 16.9267C17.5534 16.9773 17.4565 17.0097 17.356 17.0219C17.2556 17.0341 17.1538 17.0258 17.0566 16.9976C16.9595 16.9695 16.8691 16.9219 16.7908 16.8579C16.7125 16.7938 16.6479 16.7146 16.601 16.625C16.1286 15.825 15.4557 15.162 14.6488 14.7014C13.8419 14.2409 12.9289 13.9986 11.9998 13.9986C11.0707 13.9986 10.1577 14.2409 9.35077 14.7014C8.54388 15.162 7.871 15.825 7.39855 16.625C7.35166 16.7146 7.28713 16.7938 7.20883 16.8579C7.13054 16.9219 7.04009 16.9695 6.94295 16.9976C6.8458 17.0258 6.74396 17.0341 6.64355 17.0219C6.54313 17.0097 6.44622 16.9773 6.35865 16.9267C6.27108 16.876 6.19465 16.8082 6.13396 16.7273C6.07327 16.6464 6.02958 16.554 6.00552 16.4558C5.98145 16.3575 5.97751 16.2554 5.99393 16.1556C6.01034 16.0558 6.04678 15.9603 6.10105 15.875C6.82817 14.6257 7.93685 13.6425 9.26417 13.07C8.51729 12.4981 7.96838 11.7066 7.69461 10.8067C7.42083 9.90677 7.43595 8.94366 7.73784 8.05277C8.03973 7.16188 8.61321 6.38798 9.37767 5.83987C10.1421 5.29175 11.0591 4.99698 11.9998 4.99698C12.9404 4.99698 13.8575 5.29175 14.6219 5.83987C15.3864 6.38798 15.9599 7.16188 16.2617 8.05277C16.5636 8.94366 16.5788 9.90677 16.305 10.8067C16.0312 11.7066 15.4823 12.4981 14.7354 13.07C16.0627 13.6425 17.1714 14.6257 17.8985 15.875ZM11.9998 12.5C12.5931 12.5 13.1732 12.324 13.6665 11.9944C14.1599 11.6647 14.5444 11.1962 14.7714 10.648C14.9985 10.0999 15.0579 9.49666 14.9422 8.91471C14.8264 8.33277 14.5407 7.79822 14.1211 7.37866C13.7016 6.95911 13.167 6.67338 12.5851 6.55763C12.0031 6.44187 11.3999 6.50128 10.8517 6.72834C10.3036 6.95541 9.83503 7.33993 9.50539 7.83327C9.17574 8.32662 8.9998 8.90664 8.9998 9.49998C8.9998 10.2956 9.31587 11.0587 9.87848 11.6213C10.4411 12.1839 11.2041 12.5 11.9998 12.5ZM6.7498 7.24998C6.7498 7.05107 6.67078 6.86031 6.53013 6.71965C6.38947 6.579 6.19871 6.49998 5.9998 6.49998C5.57898 6.49995 5.1666 6.3819 4.80952 6.15924C4.45243 5.93659 4.16494 5.61825 3.9797 5.2404C3.79446 4.86254 3.7189 4.44031 3.76161 4.02167C3.80431 3.60302 3.96356 3.20474 4.22127 2.87207C4.47898 2.53939 4.82483 2.28566 5.21951 2.13969C5.6142 1.99371 6.04192 1.96135 6.45408 2.04628C6.86624 2.13121 7.24632 2.33002 7.55115 2.62013C7.85598 2.91024 8.07334 3.28003 8.17855 3.68748C8.22827 3.88018 8.35251 4.04523 8.52393 4.14632C8.69535 4.24742 8.89991 4.27627 9.09261 4.22655C9.2853 4.17682 9.45035 4.05258 9.55145 3.88116C9.65254 3.70974 9.6814 3.50518 9.63167 3.31248C9.48565 2.74747 9.20977 2.22433 8.82599 1.78469C8.44221 1.34505 7.96112 1.00105 7.421 0.780063C6.88088 0.559073 6.29664 0.467192 5.71476 0.511732C5.13288 0.556271 4.56942 0.736001 4.06923 1.03662C3.56903 1.33724 3.1459 1.75045 2.8335 2.24338C2.5211 2.7363 2.32806 3.29533 2.26974 3.87599C2.21141 4.45665 2.28941 5.04291 2.49752 5.58812C2.70564 6.13333 3.03813 6.62245 3.46855 7.01655C2.44975 7.45852 1.56422 8.15919 0.899796 9.04905C0.780324 9.20818 0.72896 9.40825 0.757003 9.60525C0.785045 9.80225 0.890197 9.98004 1.04933 10.0995C1.20846 10.219 1.40853 10.2704 1.60553 10.2423C1.80253 10.2143 1.98032 10.1091 2.0998 9.94998C2.55185 9.34235 3.14025 8.84935 3.81763 8.51066C4.49502 8.17196 5.24246 7.99705 5.9998 7.99998C6.19871 7.99998 6.38947 7.92097 6.53013 7.78031C6.67078 7.63966 6.7498 7.4489 6.7498 7.24998Z" fill="white"/>
</svg>
