<svg width="20" height="20" viewBox="0 0 20 20" fill="none" xmlns="http://www.w3.org/2000/svg">
<g clip-path="url(#clip0_2033_41523)">
<path d="M3.25971 3.25977C3.79228 3.25977 4.22255 3.69003 4.22255 4.2226V14.3324C4.22255 14.5972 4.43919 14.8138 4.70397 14.8138H16.7394C17.272 14.8138 17.7023 15.2441 17.7023 15.7767C17.7023 16.3092 17.272 16.7395 16.7394 16.7395H4.70397C3.37405 16.7395 2.29688 15.6623 2.29688 14.3324V4.2226C2.29688 3.69003 2.72714 3.25977 3.25971 3.25977ZM6.14823 6.14828C6.14823 5.61571 6.57849 5.18544 7.11106 5.18544H12.8881C13.4207 5.18544 13.8509 5.61571 13.8509 6.14828C13.8509 6.68085 13.4207 7.11112 12.8881 7.11112H7.11106C6.57849 7.11112 6.14823 6.68085 6.14823 6.14828ZM7.11106 8.07395H10.9624C11.495 8.07395 11.9253 8.50422 11.9253 9.03679C11.9253 9.56936 11.495 9.99963 10.9624 9.99963H7.11106C6.57849 9.99963 6.14823 9.56936 6.14823 9.03679C6.14823 8.50422 6.57849 8.07395 7.11106 8.07395ZM7.11106 10.9625H14.8138C15.3463 10.9625 15.7766 11.3927 15.7766 11.9253C15.7766 12.4579 15.3463 12.8881 14.8138 12.8881H7.11106C6.57849 12.8881 6.14823 12.4579 6.14823 11.9253C6.14823 11.3927 6.57849 10.9625 7.11106 10.9625Z" fill="#A3A3A3"/>
</g>
<defs>
<clipPath id="clip0_2033_41523">
<path d="M2.29688 2.29688H17.7023V17.7023H2.29688V2.29688Z" fill="white"/>
</clipPath>
</defs>
</svg>
