<svg width="20" height="22" viewBox="0 0 20 22" fill="none" xmlns="http://www.w3.org/2000/svg">
<path d="M3.21484 1.21429H14.7861C15.3922 1.21437 15.9738 1.45563 16.4023 1.88422C16.8308 2.31284 17.0713 2.89438 17.0713 3.50043V13.6498C17.0215 13.6922 16.9725 13.736 16.9258 13.7827L16.7861 13.9223V3.50043C16.7861 2.96999 16.5753 2.46046 16.2002 2.08539C15.8252 1.71047 15.3164 1.5005 14.7861 1.50043H3.21484C2.68441 1.50043 2.17488 1.71032 1.7998 2.08539C1.42473 2.46046 1.21484 2.96999 1.21484 3.50043V18.5004C1.21507 19.6044 2.11084 20.5004 3.21484 20.5004H9.92285L10.208 20.7856H3.21484C2.60883 20.7856 2.02725 20.545 1.59863 20.1166C1.17008 19.6881 0.928822 19.1065 0.928711 18.5004V3.50043C0.928711 2.89422 1.16998 2.31287 1.59863 1.88422C2.02729 1.45556 2.60863 1.21429 3.21484 1.21429ZM18.6494 15.3491C18.6684 15.3489 18.6875 15.3526 18.7051 15.3598C18.7226 15.367 18.7386 15.3777 18.752 15.3911C18.7653 15.4044 18.7761 15.4204 18.7832 15.4379C18.7903 15.4553 18.7941 15.4739 18.7939 15.4926C18.7938 15.5116 18.7897 15.5309 18.7822 15.5483C18.7748 15.5656 18.7636 15.581 18.75 15.5942L18.7441 15.601L13.6006 20.7436C13.5738 20.7701 13.5377 20.7856 13.5 20.7856C13.481 20.7856 13.4625 20.781 13.4453 20.7739L13.3994 20.7436L10.8398 18.184C10.816 18.1572 10.8031 18.1223 10.8037 18.0864C10.8044 18.0495 10.8196 18.0138 10.8457 17.9877C10.8718 17.9618 10.9075 17.9474 10.9443 17.9467C10.9628 17.9464 10.9811 17.949 10.998 17.9555L11.0439 17.9848L13.5 20.4409L18.542 15.3989L18.5479 15.392C18.561 15.3784 18.5773 15.3683 18.5947 15.3608C18.6121 15.3533 18.6305 15.3493 18.6494 15.3491ZM4.92871 14.9282C5.08026 14.9282 5.22584 14.989 5.33301 15.0961C5.44004 15.2033 5.5 15.349 5.5 15.5004C5.49989 15.6517 5.4399 15.7967 5.33301 15.9037C5.22584 16.0109 5.08026 16.0717 4.92871 16.0717C4.77716 16.0717 4.63158 16.0109 4.52441 15.9037C4.41752 15.7967 4.35753 15.6517 4.35742 15.5004C4.35742 15.349 4.41738 15.2033 4.52441 15.0961C4.63158 14.989 4.77716 14.9282 4.92871 14.9282ZM7.92871 15.3569H13.5C13.5379 15.3569 13.5748 15.3721 13.6016 15.3989C13.6283 15.4256 13.6426 15.4626 13.6426 15.5004C13.6425 15.5381 13.6281 15.5743 13.6016 15.601C13.5748 15.6278 13.5379 15.643 13.5 15.643H7.92871C7.89092 15.643 7.8549 15.6277 7.82812 15.601C7.80143 15.5743 7.78624 15.5382 7.78613 15.5004C7.78613 15.4625 7.80133 15.4257 7.82812 15.3989C7.85489 15.3722 7.89095 15.3569 7.92871 15.3569ZM4.92871 10.4282C5.08026 10.4282 5.22584 10.489 5.33301 10.5961C5.44004 10.7033 5.5 10.849 5.5 11.0004C5.49989 11.1517 5.4399 11.2967 5.33301 11.4037C5.22584 11.5109 5.08026 11.5717 4.92871 11.5717C4.77716 11.5717 4.63158 11.5109 4.52441 11.4037C4.41752 11.2967 4.35753 11.1517 4.35742 11.0004C4.35742 10.849 4.41738 10.7033 4.52441 10.5961C4.63158 10.489 4.77716 10.4282 4.92871 10.4282ZM7.92871 10.8569H13.5C13.5379 10.8569 13.5748 10.8721 13.6016 10.8989C13.6283 10.9256 13.6426 10.9626 13.6426 11.0004C13.6425 11.0381 13.6281 11.0743 13.6016 11.101C13.5748 11.1278 13.5379 11.143 13.5 11.143H7.92871C7.89092 11.143 7.8549 11.1277 7.82812 11.101C7.80143 11.0743 7.78624 11.0382 7.78613 11.0004C7.78613 10.9625 7.80133 10.9257 7.82812 10.8989C7.85489 10.8722 7.89095 10.8569 7.92871 10.8569ZM4.92871 5.92816C5.08026 5.92816 5.22584 5.98897 5.33301 6.09613C5.44004 6.20327 5.5 6.34897 5.5 6.50043C5.49989 6.6517 5.4399 6.79671 5.33301 6.90375C5.22584 7.01091 5.08026 7.07172 4.92871 7.07172C4.77716 7.07172 4.63158 7.01091 4.52441 6.90375C4.41752 6.79671 4.35753 6.6517 4.35742 6.50043C4.35742 6.34897 4.41738 6.20327 4.52441 6.09613C4.63158 5.98897 4.77716 5.92816 4.92871 5.92816ZM7.92871 6.35687H13.5C13.5379 6.35687 13.5748 6.37207 13.6016 6.39886C13.6283 6.42564 13.6426 6.4626 13.6426 6.50043C13.6425 6.53807 13.6281 6.57434 13.6016 6.60101C13.5748 6.62781 13.5379 6.64301 13.5 6.64301H7.92871C7.89092 6.64301 7.8549 6.62767 7.82812 6.60101C7.80143 6.57432 7.78624 6.53816 7.78613 6.50043C7.78613 6.46254 7.80133 6.42566 7.82812 6.39886C7.85489 6.37225 7.89096 6.35687 7.92871 6.35687Z" fill="white" stroke="white"/>
</svg>
