<svg width="20" height="20" viewBox="0 0 20 20" fill="none" xmlns="http://www.w3.org/2000/svg">
<g clip-path="url(#clip0_2033_41508)">
<path d="M12.4067 12.8861C15.3313 12.8861 17.7023 10.5152 17.7023 7.59053C17.7023 4.66591 15.3313 2.29492 12.4067 2.29492C9.48205 2.29492 7.11106 4.66591 7.11106 7.59053C7.11106 8.15319 7.19832 8.69779 7.3608 9.20629L2.5075 14.0596C2.3721 14.195 2.29688 14.3785 2.29688 14.5711V16.9782C2.29688 17.3784 2.61882 17.7003 3.019 17.7003H5.4261C5.82628 17.7003 6.14823 17.3784 6.14823 16.9782V15.7747H7.35177C7.75195 15.7747 8.0739 15.4527 8.0739 15.0525V13.849H9.27745C9.47002 13.849 9.65356 13.7738 9.78896 13.6384L10.7909 12.6364C11.2994 12.7989 11.844 12.8861 12.4067 12.8861ZM13.6102 5.18344C13.9294 5.18344 14.2355 5.31024 14.4613 5.53595C14.687 5.76166 14.8138 6.06778 14.8138 6.38698C14.8138 6.70618 14.687 7.01231 14.4613 7.23802C14.2355 7.46373 13.9294 7.59053 13.6102 7.59053C13.291 7.59053 12.9849 7.46373 12.7592 7.23802C12.5335 7.01231 12.4067 6.70618 12.4067 6.38698C12.4067 6.06778 12.5335 5.76166 12.7592 5.53595C12.9849 5.31024 13.291 5.18344 13.6102 5.18344Z" fill="#A3A3A3"/>
</g>
<defs>
<clipPath id="clip0_2033_41508">
<path d="M2.29688 2.29688H17.7023V17.7023H2.29688V2.29688Z" fill="white"/>
</clipPath>
</defs>
</svg>
