<svg width="12" height="16" viewBox="0 0 12 16" fill="none" xmlns="http://www.w3.org/2000/svg">
<g clip-path="url(#clip0_2033_41529)">
<path d="M0.707031 2.22255C0.707031 1.16042 1.57058 0.296875 2.63271 0.296875H9.37257C10.4347 0.296875 11.2982 1.16042 11.2982 2.22255V13.7766C11.2982 14.8387 10.4347 15.7023 9.37257 15.7023H2.63271C1.57058 15.7023 0.707031 14.8387 0.707031 13.7766V2.22255ZM6.96548 13.7766C6.96548 13.5212 6.86404 13.2763 6.68347 13.0958C6.5029 12.9152 6.258 12.8138 6.00264 12.8138C5.74728 12.8138 5.50238 12.9152 5.32181 13.0958C5.14124 13.2763 5.0398 13.5212 5.0398 13.7766C5.0398 14.032 5.14124 14.2769 5.32181 14.4574C5.50238 14.638 5.74728 14.7394 6.00264 14.7394C6.258 14.7394 6.5029 14.638 6.68347 14.4574C6.86404 14.2769 6.96548 14.032 6.96548 13.7766ZM9.37257 2.22255H2.63271V11.8509H9.37257V2.22255Z" fill="#A3A3A3"/>
</g>
<defs>
<clipPath id="clip0_2033_41529">
<path d="M0.222656 0.296875H11.7767V15.7023H0.222656V0.296875Z" fill="white"/>
</clipPath>
</defs>
</svg>
