<svg width="24" height="24" viewBox="0 0 24 24" fill="none" xmlns="http://www.w3.org/2000/svg">
<path fill-rule="evenodd" clip-rule="evenodd" d="M18.8426 12.138C17.7362 11.6904 16.1642 11.4 14.4002 11.4V10.2C16.2806 10.2 18.0098 10.5072 19.2914 11.0244C19.931 11.2836 20.489 11.6052 20.8958 11.9952C21.3038 12.3852 21.6002 12.8832 21.6002 13.4664C21.6002 14.0508 21.305 14.5476 20.8958 14.9388C20.4878 15.3276 19.931 15.6504 19.2914 15.9084C18.0098 16.4268 16.2794 16.7328 14.4002 16.7328C12.5198 16.7328 10.7906 16.4268 9.50899 15.9084C8.8694 15.6504 8.3114 15.3276 7.9046 14.9388C7.4966 14.5476 7.2002 14.0508 7.2002 13.4664H8.4002C8.4002 13.6188 8.4746 13.8228 8.7338 14.0712C8.993 14.3196 9.4034 14.5716 9.9578 14.796C11.0654 15.2436 12.635 15.5328 14.4002 15.5328C16.1642 15.5328 17.7362 15.2436 18.8426 14.796C19.397 14.5716 19.8062 14.3196 20.0666 14.0712C20.327 13.8228 20.4002 13.6188 20.4002 13.4664C20.4002 13.314 20.3258 13.11 20.0666 12.8628C19.8062 12.6132 19.397 12.3612 18.8426 12.138Z" fill="#131313"/>
<path fill-rule="evenodd" clip-rule="evenodd" d="M7.8002 13.4004C7.95933 13.4004 8.11194 13.4636 8.22446 13.5761C8.33698 13.6886 8.4002 13.8413 8.4002 14.0004V17.7324C8.4002 17.886 8.4746 18.09 8.7338 18.3372C8.9942 18.5868 9.4034 18.8388 9.9578 19.0632C11.0654 19.5096 12.635 19.8 14.4002 19.8C16.1642 19.8 17.7362 19.5096 18.8426 19.0632C19.397 18.8388 19.8062 18.5868 20.0666 18.3372C20.3258 18.09 20.4002 17.886 20.4002 17.7336V14.0004C20.4002 13.8413 20.4634 13.6886 20.5759 13.5761C20.6885 13.4636 20.8411 13.4004 21.0002 13.4004C21.1593 13.4004 21.3119 13.4636 21.4245 13.5761C21.537 13.6886 21.6002 13.8413 21.6002 14.0004V17.7324C21.6002 18.318 21.305 18.8148 20.8958 19.2048C20.4866 19.5948 19.931 19.9164 19.2914 20.1756C18.0098 20.6928 16.2794 21 14.4002 21C12.5198 21 10.7906 20.6928 9.50899 20.1756C8.8694 19.9176 8.3114 19.5948 7.9046 19.2048C7.4966 18.8148 7.2002 18.3168 7.2002 17.7336V14.0004C7.2002 13.8413 7.26341 13.6886 7.37593 13.5761C7.48845 13.4636 7.64107 13.4004 7.8002 13.4004Z" fill="#131313"/>
<path fill-rule="evenodd" clip-rule="evenodd" d="M10.4402 20.0712V15.6H11.6402V20.0712H10.4402ZM15.7202 19.8V16.2H16.9202V19.8H15.7202ZM2.7338 5.6628C2.4746 5.91 2.4002 6.114 2.4002 6.2664C2.4002 6.4188 2.4746 6.6228 2.7338 6.8712C2.993 7.1196 3.4034 7.3716 3.9578 7.596C5.0654 8.0436 6.635 8.3328 8.4002 8.3328C10.1642 8.3328 11.7362 8.0436 12.8426 7.596C13.397 7.3716 13.8062 7.1196 14.0666 6.8712C14.327 6.6228 14.4002 6.4188 14.4002 6.2664C14.4002 6.114 14.3258 5.91 14.0666 5.6628C13.8062 5.4132 13.397 5.1612 12.8426 4.9368C11.735 4.4904 10.1642 4.2 8.4002 4.2C6.6362 4.2 5.0642 4.4904 3.9578 4.9368C3.4034 5.1612 2.9942 5.4132 2.7338 5.6628ZM3.509 3.8244C4.7906 3.3072 6.521 3 8.4002 3C10.2806 3 12.0098 3.3072 13.2914 3.8244C13.931 4.0836 14.489 4.4052 14.8958 4.7952C15.3038 5.1852 15.6002 5.6832 15.6002 6.2664C15.6002 6.8508 15.305 7.3476 14.8958 7.7388C14.4878 8.1276 13.931 8.4504 13.2914 8.7084C12.0098 9.2268 10.2794 9.5328 8.4002 9.5328C6.5198 9.5328 4.7906 9.2268 3.509 8.7084C2.8694 8.4504 2.3114 8.1276 1.9046 7.7388C1.4966 7.3476 1.2002 6.8508 1.2002 6.2664C1.2002 5.6832 1.4954 5.1864 1.9046 4.7952C2.3138 4.404 2.8694 4.0836 3.509 3.8244Z" fill="#131313"/>
<path fill-rule="evenodd" clip-rule="evenodd" d="M1.8002 6.20038C1.95933 6.20038 2.11194 6.26359 2.22446 6.37611C2.33698 6.48864 2.4002 6.64125 2.4002 6.80038V10.5324C2.4002 10.686 2.4746 10.89 2.7338 11.1372C2.9942 11.3868 3.4034 11.6388 3.9578 11.8632C5.0654 12.3096 6.63499 12.6 8.4002 12.6C10.1642 12.6 11.7362 12.3096 12.8426 11.8632C13.397 11.6388 13.8062 11.3868 14.0666 11.1372C14.3258 10.89 14.4002 10.686 14.4002 10.5336V6.80038C14.4002 6.64125 14.4634 6.48864 14.5759 6.37611C14.6885 6.26359 14.8411 6.20038 15.0002 6.20038C15.1593 6.20038 15.3119 6.26359 15.4245 6.37611C15.537 6.48864 15.6002 6.64125 15.6002 6.80038V10.5324C15.6002 11.118 15.305 11.6148 14.8958 12.0048C14.4866 12.3948 13.931 12.7176 13.2914 12.9756C12.0098 13.4928 10.2794 13.8 8.4002 13.8C6.51979 13.8 4.7906 13.4928 3.509 12.9756C2.8694 12.7164 2.3114 12.3948 1.9046 12.0048C1.4966 11.616 1.2002 11.1168 1.2002 10.5336V6.80038C1.2002 6.64125 1.26341 6.48864 1.37593 6.37611C1.48845 6.26359 1.64107 6.20038 1.8002 6.20038Z" fill="#131313"/>
<path fill-rule="evenodd" clip-rule="evenodd" d="M4.44043 12.6V8.53564H5.64043V12.6H4.44043ZM9.72043 12.6V9.00004H10.9204V12.6H9.72043Z" fill="#131313"/>
</svg>
