<svg width="24" height="24" viewBox="0 0 24 24" fill="none" xmlns="http://www.w3.org/2000/svg">
<path fill-rule="evenodd" clip-rule="evenodd" d="M17.8752 16.5818L19.6932 9.66259L17.0364 11.3546C16.5066 11.6924 15.8655 11.8089 15.2507 11.6793C14.636 11.5496 14.0966 11.184 13.7484 10.661L12 8.03419L10.2504 10.6622C9.902 11.185 9.36251 11.5503 8.74776 11.6798C8.13301 11.8092 7.49201 11.6925 6.96238 11.3546L4.30798 9.66259L6.12598 16.5818H17.8752ZM4.95118 8.64979C4.03078 8.06299 2.86798 8.91139 3.14518 9.96739L4.96438 16.8866C5.03173 17.143 5.18211 17.37 5.39204 17.5319C5.60198 17.6939 5.85964 17.7817 6.12478 17.7818H17.8752C18.1403 17.7817 18.398 17.6939 18.6079 17.5319C18.8179 17.37 18.9682 17.143 19.0356 16.8866L20.8548 9.96739C21.1308 8.91139 19.9692 8.06419 19.0488 8.64979L16.392 10.3418C16.1272 10.5108 15.8068 10.5693 15.4994 10.5047C15.192 10.44 14.9223 10.2575 14.748 9.99619L12.9984 7.36819C12.8888 7.20384 12.7403 7.06909 12.5662 6.97589C12.392 6.88269 12.1975 6.83392 12 6.83392C11.8024 6.83392 11.608 6.88269 11.4338 6.97589C11.2596 7.06909 11.1112 7.20384 11.0016 7.36819L9.25198 9.99619C9.07788 10.2577 8.80818 10.4405 8.5008 10.5053C8.19342 10.5702 7.87287 10.5119 7.60798 10.343L4.95118 8.64979Z" fill="#131313"/>
<path d="M13.1328 4.734C13.1331 5.03475 13.014 5.32332 12.8015 5.53621C12.5891 5.7491 12.3008 5.86888 12 5.8692C11.6993 5.86951 11.4107 5.75035 11.1978 5.5379C10.9849 5.32546 10.8651 5.03715 10.8648 4.7364C10.8645 4.43564 10.9837 4.14708 11.1961 3.93419C11.4086 3.7213 11.6969 3.60152 11.9976 3.6012C12.2984 3.60088 12.5869 3.72005 12.7998 3.93249C13.0127 4.14493 13.1325 4.43324 13.1328 4.734ZM22.2 7.0032C22.2002 7.30395 22.0809 7.59245 21.8683 7.80523C21.6558 8.01801 21.3674 8.13764 21.0666 8.1378C20.7659 8.13796 20.4774 8.01863 20.2646 7.80608C20.0518 7.59353 19.9322 7.30515 19.932 7.0044C19.932 6.70364 20.0515 6.4152 20.2642 6.20254C20.4768 5.98987 20.7653 5.8704 21.066 5.8704C21.3668 5.8704 21.6552 5.98987 21.8679 6.20254C22.0806 6.4152 22.2 6.70244 22.2 7.0032ZM4.06683 7.0032C4.06691 7.15212 4.03765 7.29959 3.98074 7.43721C3.92382 7.57482 3.84036 7.69987 3.73511 7.80523C3.62987 7.91059 3.5049 7.99418 3.36735 8.05125C3.22979 8.10831 3.08235 8.13772 2.93343 8.1378C2.78451 8.13788 2.63703 8.10862 2.49942 8.05171C2.36181 7.99479 2.23675 7.91133 2.13139 7.80608C2.02604 7.70083 1.94244 7.57587 1.88538 7.43831C1.82832 7.30076 1.79891 7.15332 1.79883 7.0044C1.79883 6.70364 1.9183 6.4152 2.13097 6.20254C2.34364 5.98987 2.63207 5.8704 2.93283 5.8704C3.23358 5.8704 3.52202 5.98987 3.73469 6.20254C3.94735 6.4152 4.06683 6.70244 4.06683 7.0032Z" fill="#131313"/>
<path fill-rule="evenodd" clip-rule="evenodd" d="M6.2998 19.2001C6.2998 19.041 6.36302 18.8884 6.47554 18.7758C6.58806 18.6633 6.74067 18.6001 6.8998 18.6001H17.3842C17.5433 18.6001 17.6959 18.6633 17.8085 18.7758C17.921 18.8884 17.9842 19.041 17.9842 19.2001C17.9842 19.3592 17.921 19.5118 17.8085 19.6244C17.6959 19.7369 17.5433 19.8001 17.3842 19.8001H6.8998C6.74067 19.8001 6.58806 19.7369 6.47554 19.6244C6.36302 19.5118 6.2998 19.3592 6.2998 19.2001Z" fill="#131313"/>
</svg>
