<svg width="14" height="14" viewBox="0 0 14 14" fill="none" xmlns="http://www.w3.org/2000/svg">
<path d="M13.4993 9.5H2.99058C3.15683 9.1725 3.3237 8.83562 3.49058 8.49312C4.42808 8.59625 5.52683 7.94438 6.78183 6.54688C7.09433 7.38812 7.68495 8.48 8.69308 8.5C9.25933 8.51125 9.82495 8.175 10.4068 7.47688C10.8312 7.98438 11.7056 8.5 13.4993 8.5C13.6319 8.5 13.7591 8.44732 13.8529 8.35355C13.9466 8.25979 13.9993 8.13261 13.9993 8C13.9993 7.86739 13.9466 7.74021 13.8529 7.64645C13.7591 7.55268 13.6319 7.5 13.4993 7.5C11.5975 7.5 11.035 6.84688 10.9993 6.49312C11.005 6.38582 10.9744 6.27974 10.9125 6.1919C10.8506 6.10406 10.761 6.03956 10.6581 6.00875C10.5511 5.97662 10.4366 5.98057 10.3321 6.01999C10.2276 6.05941 10.139 6.13211 10.08 6.22687C9.32558 7.38562 8.8687 7.50375 8.70995 7.5C8.1937 7.49 7.6687 6.28 7.4887 5.41125C7.46949 5.3182 7.42418 5.23256 7.35805 5.16433C7.29193 5.09611 7.20774 5.04814 7.11533 5.02604C7.02293 5.00394 6.92615 5.00863 6.83631 5.03955C6.74647 5.07046 6.6673 5.12634 6.60808 5.20062C5.34558 6.78438 4.49933 7.3175 3.97245 7.45562C4.50308 6.27625 4.89933 5.24062 5.15308 4.36875C5.57933 2.90375 5.61058 1.87937 5.24745 1.2375C5.05995 0.90125 4.6637 0.5 3.8687 0.5C2.86495 0.5 2.07308 1.44875 1.69558 3.10313C1.4712 4.085 1.43433 5.17875 1.59433 6.10313C1.75433 7.0275 2.0862 7.7 2.5687 8.09937C2.33558 8.58187 2.09808 9.05313 1.86683 9.5H0.499326C0.366718 9.5 0.239541 9.55268 0.145773 9.64645C0.0520049 9.74021 -0.000673464 9.86739 -0.000673464 10C-0.000673464 10.1326 0.0520049 10.2598 0.145773 10.3536C0.239541 10.4473 0.366718 10.5 0.499326 10.5H1.33745C0.629952 11.8125 0.0799515 12.7275 0.0712015 12.7425C0.0355549 12.7988 0.0115228 12.8617 0.000517675 12.9274C-0.0104874 12.9931 -0.00824339 13.0604 0.00711782 13.1252C0.022479 13.1901 0.0506475 13.2512 0.0899675 13.305C0.129288 13.3588 0.178966 13.4042 0.236083 13.4385C0.293199 13.4728 0.356602 13.4954 0.422564 13.5049C0.488526 13.5144 0.555717 13.5105 0.620187 13.4937C0.684656 13.4768 0.745105 13.4472 0.797979 13.4067C0.850852 13.3661 0.895085 13.3154 0.928077 13.2575C0.937451 13.2413 1.63245 12.0831 2.47183 10.5H13.4993C13.6319 10.5 13.7591 10.4473 13.8529 10.3536C13.9466 10.2598 13.9993 10.1326 13.9993 10C13.9993 9.86739 13.9466 9.74021 13.8529 9.64645C13.7591 9.55268 13.6319 9.5 13.4993 9.5ZM2.67058 3.32562C2.91933 2.23375 3.4012 1.5 3.8687 1.5C4.20183 1.5 4.31245 1.61625 4.37683 1.72937C4.56433 2.0625 4.78433 3.24125 3.02308 7.12875C2.50683 6.42375 2.3312 4.8125 2.67058 3.32562Z" fill="#1F1F1F"/>
</svg>
