<svg width="28" height="23" viewBox="0 0 28 23" fill="none" xmlns="http://www.w3.org/2000/svg">
<g clip-path="url(#clip0_10_4194)">
<g clip-path="url(#clip1_10_4194)">
<path d="M6.41185 20.9221C2.98412 20.9221 0.203125 18.1411 0.203125 14.7134C0.203125 12.0057 1.93639 9.70329 4.3509 8.85391C4.34659 8.73749 4.34228 8.62108 4.34228 8.50466C4.34228 4.6932 7.42939 1.60608 11.2409 1.60608C13.7976 1.60608 16.0268 2.99442 17.2211 5.06399C17.8764 4.62421 18.6698 4.36551 19.5192 4.36551C21.8043 4.36551 23.6583 6.21951 23.6583 8.50466C23.6583 9.03068 23.5591 9.53083 23.3824 9.99648C25.9004 10.5053 27.7975 12.7344 27.7975 15.4032C27.7975 18.4516 25.3269 20.9221 22.2786 20.9221H6.41185ZM9.81803 11.5659C9.41274 11.9712 9.41274 12.6266 9.81803 13.0275C10.2233 13.4285 10.8787 13.4328 11.2797 13.0275L12.9612 11.346V17.1279C12.9612 17.7013 13.4225 18.1627 13.996 18.1627C14.5694 18.1627 15.0308 17.7013 15.0308 17.1279V11.346L16.7123 13.0275C17.1176 13.4328 17.773 13.4328 18.1739 13.0275C18.5749 12.6223 18.5792 11.9669 18.1739 11.5659L14.7246 8.11662C14.3194 7.71133 13.664 7.71133 13.263 8.11662L9.81372 11.5659H9.81803Z" fill="#A3A3A3"/>
</g>
</g>
<defs>
<clipPath id="clip0_10_4194">
<rect width="27.5943" height="22.0755" fill="white" transform="translate(0.203125 0.226318)"/>
</clipPath>
<clipPath id="clip1_10_4194">
<path d="M0.203125 0.226318H27.7975V22.3018H0.203125V0.226318Z" fill="white"/>
</clipPath>
</defs>
</svg>
