<svg width="596" height="173" viewBox="0 0 596 173" fill="none" xmlns="http://www.w3.org/2000/svg">
<path d="M195.147 74.2607L213.858 27.4822H224.15L242.928 74.2607H232.637L229.629 66.843H208.379L205.438 74.2607H195.147ZM211.92 58.1556H226.154L219.004 40.3129L211.92 58.1556ZM254.075 74.2607H244.92V24.1409H254.075V74.2607ZM259.775 30.6899C259.775 26.9476 261.446 25.1433 265.322 25.1433C269.265 25.1433 270.935 26.9476 270.935 30.6899C270.935 34.4322 269.265 36.2365 265.322 36.2365C261.446 36.2365 259.775 34.4322 259.775 30.6899ZM260.778 74.2607V40.8475H269.933V74.2607H260.778ZM300.56 53.0767C300.56 47.9311 295.815 47.3965 292.474 47.3965C289.199 47.3965 284.722 47.7306 284.722 52.4085H276.502C276.502 43.2532 282.65 39.8451 292.608 39.8451C304.035 39.8451 309.648 43.0528 309.648 54.5469V74.2607H300.56V69.7834C299.223 73.0579 296.149 75.2631 289.066 75.2631C280.98 75.2631 274.631 73.0579 274.631 64.6377C274.631 57.7546 279.977 55.1484 288.665 54.2796L300.56 53.2104V53.0767ZM300.56 59.5589L290.402 60.5613C286.66 60.8954 284.121 61.831 284.121 64.5041C284.121 66.6425 286.192 67.7117 290.536 67.7117C297.152 67.7117 300.293 65.1055 300.56 62.9002V59.5589ZM350.077 74.2607H340.922V56.6854C340.922 51.4729 339.385 48.3321 333.237 48.3321C327.757 48.3321 324.817 51.4729 324.817 57.5541V74.2607H315.662V40.8475H324.817V45.3917C327.022 41.9167 330.631 39.8451 335.977 39.8451C345.266 39.8451 350.077 43.9215 350.077 55.8166V74.2607ZM354.786 49.0672V40.8475H384.391V49.0672L367.684 66.0411H384.391V74.2607H354.786V66.0411L371.56 49.0672H354.786ZM413.656 53.0767C413.656 47.9311 408.911 47.3965 405.57 47.3965C402.295 47.3965 397.818 47.7306 397.818 52.4085H389.598C389.598 43.2532 395.746 39.8451 405.704 39.8451C417.131 39.8451 422.744 43.0528 422.744 54.5469V74.2607H413.656V69.7834C412.319 73.0579 409.245 75.2631 402.162 75.2631C394.076 75.2631 387.727 73.0579 387.727 64.6377C387.727 57.7546 393.073 55.1484 401.761 54.2796L413.656 53.2104V53.0767ZM413.656 59.5589L403.498 60.5613C399.756 60.8954 397.217 61.831 397.217 64.5041C397.217 66.6425 399.288 67.7117 403.632 67.7117C410.248 67.7117 413.389 65.1055 413.656 62.9002V59.5589ZM199.825 142.261V95.4822H222.947C236.512 95.4822 240.923 100.16 240.923 109.315C240.923 112.991 239.72 115.931 237.381 118.136C240.99 120.475 242.928 123.883 242.928 128.361C242.928 137.516 238.317 142.261 223.615 142.261H199.825ZM209.381 114.528H222.546C228.092 114.528 231.033 113.325 231.033 109.315C231.033 105.773 228.092 104.17 222.613 104.17H209.381V114.528ZM209.381 133.573H223.682C229.963 133.573 233.037 132.237 233.037 128.361C233.037 124.953 229.429 123.215 223.682 123.215H209.381V133.573ZM256.75 142.261H247.595V92.1409H256.75V142.261ZM287.377 121.077C287.377 115.931 282.633 115.396 279.291 115.396C276.017 115.396 271.539 115.731 271.539 120.408H263.32C263.32 111.253 269.468 107.845 279.425 107.845C290.852 107.845 296.466 111.053 296.466 122.547V142.261H287.377V137.783C286.041 141.058 282.967 143.263 275.883 143.263C267.797 143.263 261.449 141.058 261.449 132.638C261.449 125.755 266.795 123.148 275.482 122.28L287.377 121.21V121.077ZM287.377 127.559L277.22 128.561C273.477 128.895 270.938 129.831 270.938 132.504C270.938 134.643 273.01 135.712 277.353 135.712C283.969 135.712 287.11 133.106 287.377 130.9V127.559ZM319.52 107.845C330.078 107.845 335.759 114.194 335.759 122.213H327.539C327.539 118.738 324.599 116.332 319.453 116.332C314.174 116.332 310.632 118.738 310.632 125.487C310.632 132.504 314.575 134.776 319.988 134.776C325.334 134.776 327.873 132.37 327.873 128.895H336.093C336.093 136.915 330.814 143.263 319.653 143.263C307.625 143.263 301.143 137.182 301.143 125.554C301.143 113.793 306.689 107.845 319.52 107.845ZM349.942 142.261H340.787V92.1409H349.942V142.261ZM361.102 125.554L376.606 142.261H365.446L349.942 125.554L365.446 108.847H376.606L361.102 125.554ZM397.302 142.261V95.4822H416.481C431.985 95.4822 440.205 103.435 440.205 118.871C440.205 134.308 431.985 142.261 416.481 142.261H397.302ZM406.858 133.573H416.816C425.436 133.573 430.248 128.628 430.248 118.805C430.248 109.115 425.436 104.17 416.816 104.17H406.858V133.573ZM444.193 125.554C444.193 113.926 450.274 107.845 463.038 107.845C475.802 107.845 481.95 113.926 481.95 125.554C481.95 137.182 475.802 143.263 463.038 143.263C450.274 143.263 444.193 137.182 444.193 125.554ZM453.682 125.554C453.682 131.635 456.756 134.776 463.038 134.776C469.387 134.776 472.461 131.635 472.461 125.554C472.461 119.473 469.387 116.332 463.038 116.332C456.355 116.332 453.682 119.473 453.682 125.554ZM520.91 100.561V107.511C518.771 106.241 515.898 105.64 513.492 105.64C511.621 105.64 509.015 106.241 508.079 108.112C515.965 109.182 519.907 112.991 519.907 119.54C519.907 127.292 514.561 131.234 503.468 131.234C495.984 131.234 493.645 131.301 493.645 132.838C493.645 134.308 496.184 134.709 504.27 135.578C514.027 136.647 521.578 136.915 521.578 146.003C521.578 153.087 515.831 156.294 504.738 156.294C491.573 156.294 485.96 152.619 485.96 143.931H494.179C494.179 147.54 498.189 148.743 505.206 148.743C510.819 148.743 514.027 148.008 514.027 145.869C514.027 143.263 510.351 143.931 503.201 143.196C495.449 142.394 486.093 141.726 486.093 133.774C486.093 130.633 487.697 128.762 490.103 127.626C487.831 125.755 486.695 123.015 486.695 119.54C486.695 109.048 496.451 107.845 504.738 107.845C505.339 102.967 508.547 99.1577 513.96 99.1577C516.566 99.1577 519.106 99.8927 520.91 100.561ZM496.184 119.54C496.184 122.413 498.924 123.683 503.468 123.683C508.079 123.683 510.418 122.413 510.418 119.54C510.418 116.666 507.879 115.396 503.201 115.396C497.922 115.396 496.184 116.666 496.184 119.54Z" fill="#FBFBFB"/>
<path d="M167.279 0V172.068" stroke="#FBFBFB" stroke-width="3.47293"/>
<path d="M439.031 53.5701V44.0843H442.433C443.228 44.0843 443.91 44.2107 444.479 44.4637C445.048 44.7166 445.486 45.0825 445.793 45.5613C446.101 46.0311 446.254 46.6048 446.254 47.2823C446.254 47.9418 446.101 48.511 445.793 48.9898C445.486 49.4596 445.048 49.8254 444.479 50.0874C443.91 50.3404 443.228 50.4669 442.433 50.4669H439.411L439.723 50.1416V53.5701H439.031ZM445.617 53.5701L443.151 50.1281H443.937L446.403 53.5701H445.617ZM439.723 50.1823L439.411 49.8571H442.433C443.454 49.8571 444.226 49.6312 444.75 49.1795C445.283 48.7278 445.55 48.0954 445.55 47.2823C445.55 46.4602 445.283 45.8278 444.75 45.3852C444.226 44.9335 443.454 44.7076 442.433 44.7076H439.411L439.723 44.3688V50.1823Z" fill="#FBFBFB"/>
<circle cx="442.351" cy="49.3311" r="9.47162" stroke="#FBFBFB" stroke-width="0.789301"/>
<path d="M13.3732 62.3916C14.048 66.7408 17.1532 71.1726 19.4528 74.747C21.9523 78.1713 26.0917 80.2134 29.6411 82.5379C33.4654 84.6126 36.9897 87.962 40.2141 90.6365C43.9135 93.6609 43.8072 92.5611 46.2318 88.7118C50.506 81.8881 53.77 72.9397 51.6454 64.8662C48.096 56.8176 49.0167 47.1194 51.6662 38.5959C50.2415 47.3943 51.7662 56.1428 55.7655 64.1163C58.7399 73.1397 54.2407 82.6379 49.5916 90.2366C41.3681 102.234 34.1194 88.8118 26.3958 84.2626C22.7715 81.5881 18.6472 79.4135 16.1477 75.4392C14.073 71.365 13.4981 66.8158 13.3982 62.3416L13.3732 62.3916Z" fill="#EEB887"/>
<path d="M3.00012 109.234C3.00012 109.234 3.45004 95.886 6.32452 90.7369C9.199 85.5878 10.5737 82.3884 6.32452 75.8646C2.07529 69.3408 2.35024 59.9425 5.99958 54.9434C9.64891 49.9443 8.14918 43.2705 8.14918 43.2705L16.6476 34.0222C16.6476 34.0222 27.1207 23.0992 31.9699 19.7748C36.819 16.4504 46.3672 10.9764 51.0664 9.77664C55.7655 8.57686 65.4638 5.82735 75.6369 8.10194C85.8101 10.3765 93.9836 14.9257 97.7829 19.1749C101.582 23.4242 102.182 29.3231 98.7577 37.8465" stroke="#EEB887" stroke-width="4.7488" stroke-miterlimit="10"/>
<path d="M119.502 72.7117C113.653 89.7586 95.7817 103.182 79.2847 92.5839L79.3847 89.6586C81.4343 89.9585 83.3839 90.591 85.3836 90.891C102.031 93.9904 111.954 86.5342 119.502 72.7117Z" fill="#EEB887"/>
<path d="M40.5683 29.8477C41.1432 36.9964 40.2839 45.6369 35.5347 50.936C30.5106 56.0101 24.9961 60.0422 25.2461 67.4408C22.7965 59.9922 25.1607 53.0184 30.3597 47.8444C34.9589 42.7953 39.2685 36.6464 40.5933 29.8727L40.5683 29.8477Z" fill="#EEB887"/>
<path d="M20.3223 102.785C23.1968 114.358 29.5206 125.106 39.8188 131.48L39.7438 131.705C33.32 130.98 26.2004 125.856 23.4759 120.282C21.0013 115.483 20.1224 107.634 20.3223 102.76V102.785Z" fill="#EEB887"/>
<path d="M45.4675 122.706C48.9669 128.93 53.991 134.704 60.5398 137.679C67.1886 140.303 75.2871 145.202 75.2871 153.351L75.0371 153.401C72.3626 146.377 64.8036 144.113 58.5547 140.514C52.3308 137.189 47.2672 129.055 45.4425 122.706H45.4675Z" fill="#EEB887"/>
<path d="M58.1902 105.134C58.7151 110.783 62.1999 115.222 66.3241 119.046C70.6733 122.796 76.1973 125.27 79.8217 130.044C82.3212 133.219 82.7357 138.278 82.8357 142.178L82.5857 142.228C79.2863 132.779 71.2628 127.605 64.1391 121.232C60.0148 116.982 57.9652 110.908 57.9652 105.109H58.2152L58.1902 105.134Z" fill="#EEB887"/>
<path d="M92.9836 114.632C101.132 121.806 104.507 144.502 95.1832 151.801C90.984 155.2 94.8083 150.801 95.1083 148.601C97.8078 144.452 97.4974 139.303 97.1725 134.354C96.8475 127.43 94.3334 121.331 92.9836 114.607V114.632Z" fill="#EEB887"/>
<path d="M108.006 134.004C109.731 145.202 107.256 159.324 97.1079 165.873C104.557 156.875 106.106 145.177 108.006 134.004Z" fill="#EEB887"/>
<path d="M76.4866 42.3458C77.8863 43.5456 79.8906 45.5492 81.6903 44.4244C83.215 42.8996 83.6177 40.9515 83.2678 38.9269C82.8179 38.6519 82.2855 38.7215 81.6356 38.7715C79.461 38.9714 77.8613 40.7461 76.4866 42.3458ZM76.4866 42.3458C77.7863 39.5213 80.8608 36.3969 84.2852 38.2216C86.0598 45.6202 81.2357 50.0194 76.4866 42.3458Z" fill="#EEB887"/>
<path d="M72.9305 42.0071C74.1803 41.5821 75.4551 41.3322 76.7049 41.0822L76.3549 41.3072C77.1298 39.9324 78.1296 38.6827 79.4794 37.7328C80.7541 36.683 82.9537 36.3831 84.2285 37.5829L84.0285 37.5079C84.7284 37.6079 85.4283 37.6828 86.1281 37.8328C85.4283 37.9828 84.7284 39.9662 84.0285 40.0662C81.1041 38.5415 78.7045 41.0677 77.0048 43.0923C75.655 43.1423 74.3053 42.132 72.9305 42.0071Z" fill="#EEB887"/>
<path d="M74.5376 36.172C76.7372 34.2723 78.8687 31.6653 81.7682 30.9405C82.493 30.8405 84.8107 31.3978 85.0857 32.1227C81.3114 32.7226 77.737 34.5473 74.5376 36.197V36.172Z" fill="#EEB887"/>
<path d="M92.9836 27.7485C95.1582 34.2224 99.6324 40.0713 106.631 41.2211L118.598 43.2002C127.897 45.4248 140.484 51.5268 130.736 63.5746C130.261 64.2495 130.311 63.7746 130.461 64.7244C130.911 66.4491 131.105 68.1891 131.584 71.1157C131.434 72.3654 131.512 73.2653 131.312 74.2151C130.637 77.2395 130.187 80.439 128.588 83.2635C127.663 84.9881 125.913 86.7378 124.788 88.2875C121.064 93.6616 114.776 96.9818 109.277 98.6815C105.752 99.8313 103.163 99.6355 103.163 103.76C103.038 111.908 112.761 116.207 115.761 123.431C117.186 126.781 114.155 130.58 113.38 134.054C113.205 134.504 112.999 134.828 112.628 135.305C112.974 134.778 113.13 134.479 113.28 134.029C113.73 130.655 113.38 126.806 111.855 123.781C108.206 116.682 98.1577 112.583 98.1327 103.71C98.8326 91.262 116.431 95.4128 121.73 86.6394L123.605 84.2148C126.854 80.6405 127.797 77.0516 127.903 72.0589C127.903 70.213 126.81 65.8577 126.26 63.6831C126.16 63.1332 127.323 61.1061 127.797 60.1313C128.147 59.5814 128.337 59.243 128.487 59.018C138.335 46.9702 114.555 47.0614 106.281 44.3368C99.2575 42.8871 94.5334 34.3973 92.9836 27.7735V27.7485Z" fill="#EEB887"/>
<path d="M126.49 52.1106C121.491 52.7355 118.092 54.4102 114.068 57.0847C115.142 51.9606 122.166 48.9112 126.49 52.1106Z" fill="#EEB887"/>
<path d="M114.916 57.2555C116.79 58.4803 118.865 60.7799 120.815 61.0798C121.864 61.2798 123.064 59.0302 123.614 57.9804C125.139 54.2561 124.914 58.6553 124.489 60.4049C122.189 67.0287 115.641 61.9047 114.916 57.2555Z" fill="#EEB887"/>
</svg>
