<svg width="591" height="173" viewBox="0 0 591 173" fill="none" xmlns="http://www.w3.org/2000/svg">
<path d="M162.48 0V172.068" stroke="#131313" stroke-width="3.47293"/>
<path d="M190.348 74.2607L209.059 27.4822H219.351L238.129 74.2607H227.838L224.831 66.843H203.58L200.639 74.2607H190.348ZM207.121 58.1556H221.356L214.205 40.3129L207.121 58.1556ZM249.276 74.2607H240.121V24.1409H249.276V74.2607ZM254.977 30.6899C254.977 26.9476 256.647 25.1433 260.523 25.1433C264.466 25.1433 266.137 26.9476 266.137 30.6899C266.137 34.4322 264.466 36.2365 260.523 36.2365C256.647 36.2365 254.977 34.4322 254.977 30.6899ZM255.979 74.2607V40.8475H265.134V74.2607H255.979ZM295.761 53.0767C295.761 47.9311 291.016 47.3965 287.675 47.3965C284.401 47.3965 279.923 47.7306 279.923 52.4085H271.704C271.704 43.2532 277.852 39.8451 287.809 39.8451C299.236 39.8451 304.849 43.0528 304.849 54.5469V74.2607H295.761V69.7834C294.425 73.0579 291.351 75.2631 284.267 75.2631C276.181 75.2631 269.832 73.0579 269.832 64.6377C269.832 57.7546 275.179 55.1484 283.866 54.2796L295.761 53.2104V53.0767ZM295.761 59.5589L285.603 60.5613C281.861 60.8954 279.322 61.831 279.322 64.5041C279.322 66.6425 281.393 67.7117 285.737 67.7117C292.353 67.7117 295.494 65.1055 295.761 62.9002V59.5589ZM345.278 74.2607H336.123V56.6854C336.123 51.4729 334.586 48.3321 328.438 48.3321C322.958 48.3321 320.018 51.4729 320.018 57.5541V74.2607H310.863V40.8475H320.018V45.3917C322.223 41.9167 325.832 39.8451 331.178 39.8451C340.467 39.8451 345.278 43.9215 345.278 55.8166V74.2607ZM349.988 49.0672V40.8475H379.592V49.0672L362.885 66.0411H379.592V74.2607H349.988V66.0411L366.761 49.0672H349.988ZM408.857 53.0767C408.857 47.9311 404.112 47.3965 400.771 47.3965C397.497 47.3965 393.019 47.7306 393.019 52.4085H384.8C384.8 43.2532 390.948 39.8451 400.905 39.8451C412.332 39.8451 417.946 43.0528 417.946 54.5469V74.2607H408.857V69.7834C407.521 73.0579 404.447 75.2631 397.363 75.2631C389.277 75.2631 382.928 73.0579 382.928 64.6377C382.928 57.7546 388.275 55.1484 396.962 54.2796L408.857 53.2104V53.0767ZM408.857 59.5589L398.699 60.5613C394.957 60.8954 392.418 61.831 392.418 64.5041C392.418 66.6425 394.489 67.7117 398.833 67.7117C405.449 67.7117 408.59 65.1055 408.857 62.9002V59.5589ZM195.026 142.261V95.4822H218.148C231.714 95.4822 236.124 100.16 236.124 109.315C236.124 112.991 234.921 115.931 232.582 118.136C236.191 120.475 238.129 123.883 238.129 128.361C238.129 137.516 233.518 142.261 218.816 142.261H195.026ZM204.582 114.528H217.747C223.294 114.528 226.234 113.325 226.234 109.315C226.234 105.773 223.294 104.17 217.814 104.17H204.582V114.528ZM204.582 133.573H218.883C225.165 133.573 228.239 132.237 228.239 128.361C228.239 124.953 224.63 123.215 218.883 123.215H204.582V133.573ZM251.952 142.261H242.796V92.1409H251.952V142.261ZM282.579 121.077C282.579 115.931 277.834 115.396 274.493 115.396C271.218 115.396 266.741 115.731 266.741 120.408H258.521C258.521 111.253 264.669 107.845 274.626 107.845C286.053 107.845 291.667 111.053 291.667 122.547V142.261H282.579V137.783C281.242 141.058 278.168 143.263 271.084 143.263C262.998 143.263 256.65 141.058 256.65 132.638C256.65 125.755 261.996 123.148 270.683 122.28L282.579 121.21V121.077ZM282.579 127.559L272.421 128.561C268.679 128.895 266.139 129.831 266.139 132.504C266.139 134.643 268.211 135.712 272.555 135.712C279.17 135.712 282.311 133.106 282.579 130.9V127.559ZM314.721 107.845C325.28 107.845 330.96 114.194 330.96 122.213H322.74C322.74 118.738 319.8 116.332 314.654 116.332C309.375 116.332 305.833 118.738 305.833 125.487C305.833 132.504 309.776 134.776 315.189 134.776C320.535 134.776 323.074 132.37 323.074 128.895H331.294C331.294 136.915 326.015 143.263 314.855 143.263C302.826 143.263 296.344 137.182 296.344 125.554C296.344 113.793 301.89 107.845 314.721 107.845ZM345.143 142.261H335.988V92.1409H345.143V142.261ZM356.303 125.554L371.807 142.261H360.647L345.143 125.554L360.647 108.847H371.807L356.303 125.554ZM392.503 142.261V95.4822H411.683C427.186 95.4822 435.406 103.435 435.406 118.871C435.406 134.308 427.186 142.261 411.683 142.261H392.503ZM402.06 133.573H412.017C420.637 133.573 425.449 128.628 425.449 118.805C425.449 109.115 420.637 104.17 412.017 104.17H402.06V133.573ZM439.394 125.554C439.394 113.926 445.475 107.845 458.239 107.845C471.003 107.845 477.151 113.926 477.151 125.554C477.151 137.182 471.003 143.263 458.239 143.263C445.475 143.263 439.394 137.182 439.394 125.554ZM448.884 125.554C448.884 131.635 451.958 134.776 458.239 134.776C464.588 134.776 467.662 131.635 467.662 125.554C467.662 119.473 464.588 116.332 458.239 116.332C451.557 116.332 448.884 119.473 448.884 125.554ZM516.111 100.561V107.511C513.973 106.241 511.099 105.64 508.693 105.64C506.822 105.64 504.216 106.241 503.28 108.112C511.166 109.182 515.109 112.991 515.109 119.54C515.109 127.292 509.762 131.234 498.669 131.234C491.185 131.234 488.846 131.301 488.846 132.838C488.846 134.308 491.385 134.709 499.471 135.578C509.228 136.647 516.779 136.915 516.779 146.003C516.779 153.087 511.032 156.294 499.939 156.294C486.774 156.294 481.161 152.619 481.161 143.931H489.38C489.38 147.54 493.39 148.743 500.407 148.743C506.02 148.743 509.228 148.008 509.228 145.869C509.228 143.263 505.552 143.931 498.402 143.196C490.65 142.394 481.294 141.726 481.294 133.774C481.294 130.633 482.898 128.762 485.304 127.626C483.032 125.755 481.896 123.015 481.896 119.54C481.896 109.048 491.652 107.845 499.939 107.845C500.54 102.967 503.748 99.1577 509.161 99.1577C511.767 99.1577 514.307 99.8927 516.111 100.561ZM491.385 119.54C491.385 122.413 494.125 123.683 498.669 123.683C503.28 123.683 505.619 122.413 505.619 119.54C505.619 116.666 503.08 115.396 498.402 115.396C493.123 115.396 491.385 116.666 491.385 119.54Z" fill="#131313"/>
<path d="M434.233 53.5701V44.0843H437.634C438.429 44.0843 439.111 44.2107 439.68 44.4637C440.249 44.7166 440.687 45.0825 440.995 45.5613C441.302 46.0311 441.455 46.6048 441.455 47.2823C441.455 47.9418 441.302 48.511 440.995 48.9898C440.687 49.4596 440.249 49.8254 439.68 50.0874C439.111 50.3404 438.429 50.4669 437.634 50.4669H434.612L434.924 50.1416V53.5701H434.233ZM440.818 53.5701L438.352 50.1281H439.138L441.604 53.5701H440.818ZM434.924 50.1823L434.612 49.8571H437.634C438.655 49.8571 439.427 49.6312 439.951 49.1795C440.484 48.7278 440.751 48.0954 440.751 47.2823C440.751 46.4602 440.484 45.8278 439.951 45.3852C439.427 44.9335 438.655 44.7076 437.634 44.7076H434.612L434.924 44.3688V50.1823Z" fill="#131313"/>
<circle cx="437.552" cy="49.3311" r="9.47162" stroke="#131313" stroke-width="0.789301"/>
<path d="M13.373 61.7202C14.0479 66.0694 17.1531 70.5012 19.4526 74.0756C21.9522 77.4999 26.0916 79.542 29.6409 81.8666C33.4653 83.9412 36.9896 87.2906 40.214 89.9651C43.9134 92.9895 43.8071 91.8897 46.2316 88.0404C50.5059 81.2167 53.7698 72.2683 51.6452 64.1948C48.0959 56.1462 49.0166 46.448 51.6661 37.9246C50.2413 46.723 51.7661 55.4714 55.7653 63.4449C58.7398 72.4683 54.2406 81.9665 49.5915 89.5652C41.368 101.563 34.1193 88.1404 26.3957 83.5913C22.7713 80.9167 18.6471 78.7421 16.1475 74.7679C14.0729 70.6936 13.498 66.1444 13.398 61.6702L13.373 61.7202Z" fill="#131313"/>
<path d="M3 108.562C3 108.562 3.44992 95.2146 6.3244 90.0655C9.19887 84.9165 10.5736 81.717 6.3244 75.1932C2.07517 68.6694 2.35012 59.2711 5.99945 54.272C9.64879 49.2729 8.14906 42.5992 8.14906 42.5992L16.6475 33.3508C16.6475 33.3508 27.1206 22.4278 31.9697 19.1034C36.8189 15.779 46.3671 10.305 51.0663 9.10525C55.7654 7.90547 65.4636 5.15597 75.6368 7.43055C85.8099 9.70514 93.9835 14.2543 97.7828 18.5035C101.582 22.7528 102.182 28.6517 98.7576 37.1751" stroke="#131313" stroke-width="4.7488" stroke-miterlimit="10"/>
<path d="M119.502 72.0403C113.653 89.0872 95.7817 102.511 79.2847 91.9125L79.3847 88.9872C81.4343 89.2872 83.3839 89.9196 85.3836 90.2196C102.031 93.319 111.954 85.8628 119.502 72.0403Z" fill="#131313"/>
<path d="M40.5682 29.1763C41.1431 36.325 40.2837 44.9656 35.5346 50.2646C30.5105 55.3387 24.996 59.3708 25.246 66.7694C22.7964 59.3208 25.1606 52.3471 30.3596 47.173C34.9588 42.1239 39.2684 35.975 40.5932 29.2013L40.5682 29.1763Z" fill="#131313"/>
<path d="M20.3223 102.114C23.1968 113.686 29.5206 124.434 39.8188 130.808L39.7438 131.033C33.32 130.308 26.2004 125.184 23.4759 119.61C21.0013 114.811 20.1224 106.963 20.3223 102.089V102.114Z" fill="#131313"/>
<path d="M45.4674 122.035C48.9667 128.259 53.9908 134.033 60.5396 137.007C67.1884 139.632 75.287 144.531 75.287 152.679L75.037 152.729C72.3625 145.706 64.8034 143.442 58.5546 139.842C52.3307 136.518 47.2671 128.384 45.4424 122.035H45.4674Z" fill="#131313"/>
<path d="M58.19 104.463C58.715 110.112 62.1998 114.551 66.324 118.375C70.6732 122.124 76.1972 124.599 79.8215 129.373C82.3211 132.548 82.7356 137.607 82.8356 141.506L82.5856 141.556C79.2862 132.108 71.2627 126.934 64.139 120.56C60.0147 116.311 57.9651 110.237 57.9651 104.438H58.215L58.19 104.463Z" fill="#131313"/>
<path d="M92.9836 113.961C101.132 121.135 104.507 143.831 95.1832 151.129C90.984 154.529 94.8083 150.129 95.1083 147.93C97.8078 143.781 97.4974 138.631 97.1725 133.682C96.8475 126.759 94.3334 120.66 92.9836 113.936V113.961Z" fill="#131313"/>
<path d="M108.006 133.333C109.73 144.531 107.256 158.653 97.1077 165.202C104.556 156.203 106.106 144.506 108.006 133.333Z" fill="#131313"/>
<path d="M76.4863 41.6744C77.8861 42.8742 79.8903 44.8778 81.69 43.753C83.2147 42.2283 83.6175 40.2801 83.2675 38.2555C82.8176 37.9805 82.2853 38.0501 81.6354 38.1001C79.4608 38.3001 77.8611 40.0747 76.4863 41.6744ZM76.4863 41.6744C77.7861 38.85 80.8605 35.7255 84.2849 37.5502C86.0596 44.9489 81.2355 49.3481 76.4863 41.6744Z" fill="#131313"/>
<path d="M72.9304 41.3357C74.1802 40.9107 75.455 40.6608 76.7047 40.4108L76.3548 40.6358C77.1297 39.261 78.1295 38.0113 79.4792 37.0615C80.754 36.0116 82.9536 35.7117 84.2284 36.9115L84.0284 36.8365C84.7283 36.9365 85.4282 37.0115 86.128 37.1614C85.4282 37.3114 84.7283 39.2948 84.0284 39.3948C81.1039 37.8701 78.7044 40.3963 77.0047 42.4209C75.6549 42.4709 74.3052 41.4606 72.9304 41.3357Z" fill="#131313"/>
<path d="M74.5374 35.5006C76.737 33.6009 78.8684 30.9939 81.7679 30.2691C82.4928 30.1691 84.8105 30.7265 85.0854 31.4513C81.3111 32.0512 77.7368 33.8759 74.5374 35.5256V35.5006Z" fill="#131313"/>
<path d="M92.9836 27.0771C95.1582 33.551 99.6324 39.3999 106.631 40.5497L118.598 42.5288C127.897 44.7534 140.484 50.8554 130.736 62.9032C130.261 63.5781 130.311 63.1032 130.461 64.053C130.911 65.7777 131.105 67.5177 131.584 70.4443C131.434 71.694 131.512 72.5939 131.312 73.5437C130.637 76.5682 130.187 79.7676 128.588 82.5921C127.663 84.3168 125.913 86.0664 124.788 87.6161C121.064 92.9902 114.776 96.3104 109.277 98.0101C105.752 99.1599 103.163 98.9641 103.163 103.088C103.038 111.237 112.761 115.536 115.761 122.76C117.186 126.109 114.155 129.908 113.38 133.383C113.205 133.833 112.999 134.157 112.628 134.634C112.974 134.107 113.13 133.808 113.28 133.358C113.73 129.983 113.38 126.134 111.855 123.11C108.206 116.011 98.1577 111.912 98.1327 103.038C98.8326 90.5906 116.431 94.7414 121.73 85.968L123.605 83.5434C126.854 79.9691 127.797 76.3802 127.903 71.3875C127.903 69.5417 126.81 65.1863 126.26 63.0117C126.16 62.4618 127.323 60.4347 127.797 59.4599C128.147 58.91 128.337 58.5716 128.487 58.3466C138.335 46.2988 114.555 46.39 106.281 43.6655C99.2575 42.2157 94.5334 33.7259 92.9836 27.1021V27.0771Z" fill="#131313"/>
<path d="M126.49 51.4392C121.491 52.0641 118.092 53.7388 114.068 56.4133C115.142 51.2893 122.166 48.2398 126.49 51.4392Z" fill="#131313"/>
<path d="M114.916 56.5841C116.79 57.8089 118.865 60.1085 120.815 60.4084C121.865 60.6084 123.064 58.3588 123.614 57.309C125.139 53.5847 124.914 57.9839 124.489 59.7336C122.189 66.3574 115.641 61.2333 114.916 56.5841Z" fill="#131313"/>
</svg>
