<svg width="12" height="12" viewBox="0 0 12 12" fill="none" xmlns="http://www.w3.org/2000/svg">
<g clip-path="url(#clip0_10_3621)">
<g clip-path="url(#clip1_10_3621)">
<path d="M3.95312 3.375V4.5H7.70312V3.375C7.70312 2.33906 6.86406 1.5 5.82812 1.5C4.79219 1.5 3.95312 2.33906 3.95312 3.375ZM2.45312 4.5V3.375C2.45312 1.51172 3.96484 0 5.82812 0C7.69141 0 9.20312 1.51172 9.20312 3.375V4.5H9.57812C10.4055 4.5 11.0781 5.17266 11.0781 6V10.5C11.0781 11.3273 10.4055 12 9.57812 12H2.07812C1.25078 12 0.578125 11.3273 0.578125 10.5V6C0.578125 5.17266 1.25078 4.5 2.07812 4.5H2.45312Z" fill="#737373"/>
</g>
</g>
<defs>
<clipPath id="clip0_10_3621">
<rect width="10.5" height="12" fill="white" transform="translate(0.578125)"/>
</clipPath>
<clipPath id="clip1_10_3621">
<path d="M0.578125 0H11.0781V12H0.578125V0Z" fill="white"/>
</clipPath>
</defs>
</svg>
