<svg width="32" height="32" viewBox="0 0 32 32" fill="none" xmlns="http://www.w3.org/2000/svg">
<mask id="mask0_510_2118" style="mask-type:luminance" maskUnits="userSpaceOnUse" x="0" y="0" width="32" height="32">
<path d="M32 0H0V32H32V0Z" fill="white"/>
</mask>
<g mask="url(#mask0_510_2118)">
<path d="M23.8169 28.5761C20.1766 39.4752 10.4665 42.8367 5.33252 29.3028C4.62426 27.4422 6.47013 26.7523 7.76188 25.9303C8.64628 25.3688 9.11234 24.8844 9.05729 24.3817C8.80041 22.0183 7.70316 15.4349 7.70316 15.4349L7.59307 15.222C7.59307 15.222 7.61876 15.1633 7.51233 15.2661C7.40224 15.3761 7.14903 16.5211 6.15454 16.5211C5.25545 16.5211 4.34903 16.1211 3.916 13.3541C3.75087 12.3523 3.83894 9.72477 4.95454 9.24771C5.41325 9.05321 5.83527 8.98349 6.24628 9.21835C6.66096 9.45321 5.76922 8.41101 10.3564 4.59449C13.3362 2.10642 18.0444 1.74312 19.9454 2.16514C21.8463 2.58715 23.7435 3.51559 24.5839 5.48624C25.6041 7.87156 23.6334 9.68073 24.0701 15.1193C23.9894 17.0862 24.0995 21.4018 18.6903 22.8477C17.6628 23.1229 17.9821 24.6239 19.5233 24.9908C21.9821 25.7615 23.8169 27.644 23.8169 28.5835" fill="white"/>
<path fill-rule="evenodd" clip-rule="evenodd" d="M23.8165 11.6404L23.8202 11.589C23.9706 10.2532 24.1211 8.9578 24.8147 7.79449C25.0532 7.95596 25.0238 8.16147 24.9504 8.35229C24.2202 10.2312 24.2899 12.1835 24.3559 14.1358L24.3706 14.6495C24.4477 17.0862 23.8385 19.3028 22.2165 21.1633C21.6514 21.8092 20.9027 22.2569 20.1431 22.6422C19.3578 23.0459 19.1926 23.3798 19.4385 24.2422L19.4679 24.3376C19.5192 24.4807 19.5706 24.6275 19.4312 24.7706C19.266 24.9394 19.0825 24.8917 18.888 24.8367L18.866 24.833C17.0465 24.3236 15.3404 23.473 13.8385 22.3266C13.6183 22.1651 13.4422 21.9486 13.2697 21.7358L13.2587 21.7211C13.1669 21.611 13.1486 21.4349 13.277 21.3394C13.3981 21.2477 13.4899 21.3211 13.5963 21.4055L13.633 21.4385C14.4343 22.0887 15.4069 22.4928 16.433 22.6018C16.9247 22.6532 17.4091 22.6349 17.9009 22.6165C18.1725 22.6055 18.444 22.5945 18.7192 22.5982C19.0936 22.5982 19.4055 22.4257 19.6991 22.2605L19.8018 22.2018C20.822 21.633 21.7945 20.9982 22.4514 19.9743C23.0422 19.0569 23.4018 18.0587 23.611 17.0055C23.8752 15.6807 23.8532 14.3376 23.8312 12.9761C23.8202 12.5358 23.8128 12.0881 23.8128 11.6404H23.8165ZM5.34309 8.87339C6.14676 8.81101 6.5908 9.2844 6.96878 9.83853C7.41676 10.5156 7.69842 11.2889 7.7908 12.0954C7.80915 12.2312 7.8275 12.3743 7.74676 12.5101C7.58163 12.5321 7.56695 12.4 7.56328 12.3046C7.54493 11.545 7.20731 10.8844 6.8697 10.2459C6.6275 9.78716 6.2752 9.34312 5.71741 9.23303C5.08621 9.10459 4.5064 9.67339 4.22016 10.4147C3.68805 11.7945 3.77979 13.1523 4.27153 14.4881C4.48438 15.0716 4.75227 15.6661 5.29172 16.0734C5.83484 16.4881 6.49172 16.4147 6.89172 15.8642L6.96511 15.7725C7.03851 15.6771 7.1119 15.5853 7.1486 15.4789C7.22566 15.2661 7.34676 15.0679 7.56328 15.0972C7.81282 15.1339 7.85686 15.4018 7.88254 15.611C8.1102 17.5334 8.37937 19.4507 8.68988 21.3615L8.9064 22.7853C9.00181 23.4128 9.1119 24.3156 9.03851 24.6972C9.03377 24.724 9.0301 24.7509 9.0275 24.778C9.01282 24.8807 9.00548 24.9615 8.87337 24.9798C8.69355 25.0092 8.61649 24.9064 8.5908 24.745C8.5064 24.1211 8.48071 23.8789 8.44401 22.9248C8.41098 22 8.23851 21.0899 8.06236 20.1761L7.87887 19.1853C7.68805 18.055 7.50089 16.9101 7.48254 15.6257L7.40915 15.7358C7.13025 16.1505 6.9064 16.4881 6.51007 16.6165C6.21586 16.7292 5.89345 16.7455 5.58937 16.6631C5.2853 16.5806 5.01529 16.4037 4.81832 16.1578C4.30121 15.5737 3.93796 14.8699 3.76144 14.1101C3.45319 12.8624 3.39814 11.6477 3.79447 10.4183C3.9853 9.82752 4.66419 8.77798 5.34309 8.87706V8.87339ZM6.61282 13.5523C6.77429 13.6697 6.92108 13.7725 7.05319 13.3541C7.01282 11.8055 6.51374 10.8147 5.73942 10.7743C6.15043 11.3101 6.54676 11.8312 6.58346 12.5541C6.43076 12.4761 6.29679 12.366 6.1908 12.2312C6.11741 12.1505 6.04401 12.0697 5.95227 12.011L5.84218 11.9229C5.66603 11.7908 5.48621 11.6514 5.18897 11.7578C5.32842 11.9706 5.51924 12.1248 5.71374 12.2716C5.93392 12.444 6.1541 12.6128 6.28621 12.8771C5.89722 13.1596 5.72842 13.5266 5.93025 13.9743C6.1064 14.3596 6.36695 14.6789 6.88071 14.7009C6.85869 14.4697 6.70823 14.3009 6.55777 14.1358C6.37429 13.9376 6.20181 13.7468 6.28254 13.4532C6.39997 13.3982 6.51007 13.4789 6.61282 13.5523Z" fill="black"/>
<path d="M38.7967 48.5285L-9.22168 48.5615C-9.22168 48.5615 -6.54645 38.2752 -5.83452 37.0936C-5.11893 35.9156 -2.25287 31.9413 -2.2859 31.2661C-2.31893 30.5908 -2.23085 28.1908 -1.74645 27.244C-1.26205 26.2899 0.279237 24.9945 0.881072 24.8954C1.48291 24.8037 3.51226 24.7119 4.77832 24.3927C6.04437 24.0771 7.21502 23.6844 8.50309 23.6844C8.71227 23.6844 8.51043 24.1431 8.51043 24.1431C8.51043 24.1431 8.57648 28.6312 14.5581 28.9138C19.0169 29.1229 20.4921 24.5982 20.4921 24.5982C20.4921 24.5982 19.5123 23.7248 19.8095 23.7028C23.3178 23.4018 25.1563 24.1872 26.2205 24.3927C27.204 24.5835 28.026 24.5835 29.0095 25.2807C30.1361 26.0771 30.7159 27.8862 31.9783 30.6569C33.4205 33.8349 39.1013 43.4752 38.7967 48.5505" fill="black"/>
<path fill-rule="evenodd" clip-rule="evenodd" d="M27.3583 48.6422C27.3289 48.0184 27.3179 47.3945 27.3033 46.7743C27.2739 45.4128 27.2445 44.0477 27.0684 42.6826C26.9069 41.4349 26.7198 40.1872 26.5179 38.9431C26.1651 36.9036 25.754 34.8747 25.2849 32.8587C25.1308 32.1651 24.8629 31.4862 24.5767 30.8294C24.3675 30.3523 24.195 29.8606 24.0189 29.3688C23.817 28.8073 23.6152 28.2459 23.3656 27.7028C23.3216 27.6073 23.2666 27.5193 23.2115 27.4312C23.1014 27.2661 22.9913 27.0899 22.9363 26.8294C21.1932 30.2569 18.5179 32.033 14.7455 32.0514C11.0317 32.0661 8.28674 30.356 6.28307 27.2697C5.96748 27.5266 5.82436 27.8936 5.69592 28.2239L5.64454 28.345C4.96197 30.0294 4.32344 31.7211 4.1216 33.5633C4.00784 34.6275 3.84271 35.6917 3.68124 36.7486L3.61518 37.167C3.36197 38.8257 3.13812 40.4954 3.02069 42.1725C2.86289 44.3009 2.69775 46.4294 2.52894 48.6018C2.35647 48.6422 2.195 48.6422 1.99316 48.6422C2.10662 47.7314 2.17033 46.815 2.18399 45.8972C2.24271 44.0734 2.45188 42.2642 2.66105 40.4587L2.82619 38.9725C2.93628 37.945 3.08307 36.9174 3.23353 35.8972C3.38032 34.8881 3.52711 33.8789 3.6372 32.8624C3.81702 31.2477 4.44087 29.7358 5.10509 28.2532L5.13445 28.1798C5.5161 27.3248 5.89775 26.4661 6.5106 25.7395C6.98399 25.178 7.51977 24.6789 8.15463 24.3083C8.66472 24.011 8.82986 24.0734 9.00234 24.6385C9.35463 25.7945 9.96748 26.7853 10.9583 27.4606C12.5289 28.5248 14.2244 29.0092 16.1436 28.4477C17.4831 28.055 18.5877 27.3798 19.384 26.2385C19.6922 25.7982 19.9711 25.3211 20.0629 24.7706C19.8363 24.6956 19.6134 24.6099 19.395 24.5138V24.5101C19.2849 24.4587 19.1491 24.4 19.2078 24.2349C19.2519 24.1101 19.3546 24.0183 19.4941 24.0404C20.7088 24.2055 21.8611 24.4697 22.6647 25.5486C23.4011 26.5491 23.9871 27.6519 24.4042 28.822L24.6794 29.5706C25.1418 30.8073 25.6005 32.044 25.9418 33.3211C26.0739 33.8275 26.1766 34.3376 26.2757 34.8514L26.4078 35.5083L26.5987 36.378C26.7455 37.0459 26.8922 37.7101 26.9987 38.3853C27.0721 38.8477 27.1455 39.3101 27.2262 39.7725C27.4464 41.0899 27.6739 42.4037 27.7326 43.7431C27.762 44.4037 27.806 45.0642 27.8574 45.7248C27.8977 46.2752 27.9381 46.8294 27.9675 47.3872C27.9822 47.6881 27.9528 47.9927 27.9198 48.3046L27.8904 48.6202C27.7143 48.6422 27.5344 48.6532 27.3546 48.6459L27.3583 48.6422ZM20.5656 25.1376C20.2721 25.8165 19.9858 26.4954 19.4904 27.0606C18.2317 28.4954 16.6023 29.1523 14.7418 29.2073C13.4941 29.244 12.2647 28.9872 11.1822 28.2899C10.1363 27.6147 9.2372 26.7963 8.79683 25.5743L8.7528 25.4349C8.6794 25.222 8.60601 25.0018 8.4372 24.8477C7.9528 24.9578 7.82436 25.2624 7.90142 25.6917L7.93445 25.9046C7.9528 26.0514 7.97115 26.1982 8.02252 26.3339C8.48124 27.633 9.38032 28.5872 10.5289 29.2844C11.4317 29.8349 12.4152 30.1945 13.4941 30.3303C15.7069 30.6055 17.7693 30.3119 19.5968 28.9431C20.1389 28.5596 20.5938 28.0658 20.9315 27.494C21.2693 26.9223 21.4822 26.2856 21.5565 25.6257C21.6189 25.0752 21.2922 24.8183 20.65 24.9395L20.5656 25.1376ZM7.3106 25.7174C8.04454 28.7266 10.1363 30.1725 12.951 30.8037C14.3822 31.1633 15.74 31.1046 17.1014 30.7486C18.617 30.356 19.9491 29.6734 20.9473 28.4367C21.5565 27.6734 22.0078 26.833 22.0225 25.8092C22.573 26.0954 22.628 26.2936 22.2611 26.9835C21.4742 28.5133 20.2369 29.7647 18.7161 30.5688C17.0133 31.4495 15.1785 31.6844 13.2629 31.3945C11.2739 31.0972 9.64087 30.1578 8.20968 28.811C7.71561 28.3093 7.28207 27.7513 6.91793 27.1486L6.66839 26.7706C6.56931 26.6239 6.6317 26.5064 6.73078 26.3927C6.92338 26.1658 7.11665 25.9395 7.3106 25.7138V25.7174Z" fill="white"/>
<path fill-rule="evenodd" clip-rule="evenodd" d="M-1.57787 48.6422C-1.40906 48.0771 -1.34667 47.4936 -1.28429 46.9064C-1.25493 46.6129 -1.2219 46.3193 -1.17787 46.0257L-1.07878 45.3652C-0.950342 44.4771 -0.821902 43.589 -0.623737 42.7083L-0.443921 41.9523C-0.330159 41.4642 -0.212728 40.9762 -0.124655 40.4807C0.0221348 39.6367 0.271676 38.811 0.623969 38.0257C1.15485 36.8489 1.43241 35.5736 1.43865 34.2826C1.46006 33.6377 1.51764 32.9944 1.61112 32.356C1.67351 31.8789 1.73223 31.4018 1.76158 30.9248C1.8203 30.0184 1.77626 29.1266 1.72489 28.1505C1.58544 28.2606 1.44966 28.3707 1.32122 28.4807C1.05638 28.7013 0.787212 28.9167 0.513878 29.1266C-1.0641 30.3156 -2.28979 31.8129 -3.33933 33.4569C-3.73764 34.107 -4.10263 34.777 -4.43291 35.4642C-4.57236 35.7395 -4.70814 36.0147 -4.85126 36.2863C-5.41468 37.4071 -5.90858 38.5616 -6.33016 39.7431C-6.40355 39.956 -6.48796 40.1651 -6.56502 40.3743C-7.2219 42.0991 -7.87878 43.8312 -8.13566 45.6734C-8.20906 46.2018 -8.35585 46.7083 -8.49897 47.2184C-8.62741 47.6734 -8.75585 48.1285 -8.84025 48.6092C-9.04209 48.6459 -9.23658 48.6459 -9.46777 48.6459L-9.36502 48.2863C-9.05676 47.2037 -8.74117 46.1174 -8.58337 44.9835C-8.50631 44.411 -8.34117 43.8459 -8.17603 43.2881L-8.06594 42.9028C-7.9008 42.334 -7.68796 41.7835 -7.47878 41.233C-7.2953 40.756 -7.11181 40.2789 -6.95768 39.7835C-6.77787 39.2037 -6.53566 38.6385 -6.29713 38.0771C-6.20539 37.8679 -6.11365 37.6624 -6.02924 37.4532C-5.42007 35.9743 -4.65676 34.5688 -3.8641 33.1853L-3.85309 33.167C-3.58154 32.6936 -3.30264 32.2092 -2.89897 31.8202C-2.5797 31.5156 -2.56135 31.1229 -2.543 30.7303C-2.53747 30.4822 -2.50797 30.2351 -2.45493 29.9927C-2.27144 28.8294 -2.08429 27.6587 -1.49346 26.6239C-0.876948 25.545 0.143235 24.9468 1.33223 24.6569C2.19828 24.444 3.07901 24.3119 3.96709 24.2532C4.33406 24.2349 4.69369 24.1174 5.05333 24C5.24415 23.9376 5.43865 23.8752 5.63314 23.8275C5.81663 23.7835 6.00012 23.7321 6.1836 23.6807C6.89186 23.4936 7.59278 23.3028 8.33039 23.3395H8.36709C8.51388 23.3468 8.67167 23.3505 8.69736 23.5413C8.71938 23.7285 8.58727 23.7541 8.45516 23.7798L8.38177 23.7945L6.84048 24.1578C5.87168 24.3853 4.90654 24.6165 3.92672 24.8294C3.5047 24.9211 3.06434 24.9468 2.62764 24.9762L2.3047 24.9982C1.98911 25.0202 1.69186 25.0606 1.43131 25.2294C2.3781 25.8202 2.9359 26.6165 2.92122 27.7541C2.91021 28.4257 2.93956 29.0936 2.96525 29.7652C3.00195 30.6496 3.03865 31.534 2.98727 32.4184C2.92489 33.5743 2.79645 34.7156 2.62397 35.8606C2.52489 36.5248 2.45149 37.1963 2.37443 37.8642C2.30103 38.4954 2.22764 39.1266 2.13957 39.7541C2.04782 40.378 1.98911 41.0092 1.92672 41.6367C1.87168 42.2165 1.81663 42.7963 1.7359 43.3762C1.64048 44.0551 1.57443 44.734 1.5047 45.4165C1.44599 46.0037 1.38727 46.5982 1.31021 47.1853C1.29186 47.3321 1.28452 47.4862 1.27351 47.6367C1.25516 47.956 1.23681 48.2789 1.12672 48.6092C0.917547 48.6459 0.708373 48.6459 0.502869 48.6092C0.789143 47.3887 0.993876 46.1505 1.11571 44.9028L1.13039 44.7633C1.20378 44.1578 1.25516 43.5523 1.31021 42.9431C1.39461 41.9523 1.48269 40.9615 1.65149 39.978C1.71313 39.5827 1.75599 39.1847 1.77993 38.7853C1.8203 38.2679 1.86067 37.7505 1.98177 37.2404C2.25707 35.9607 2.41673 34.6588 2.45883 33.3505C2.56158 31.4312 2.58727 29.5046 2.46984 27.589C2.43314 26.9762 2.30103 26.3596 1.75424 25.8642C1.81296 26.0477 1.87535 26.2202 1.93773 26.389C2.07351 26.7486 2.20195 27.0863 2.23131 27.4349C2.31196 28.4444 2.33891 29.4574 2.31204 30.4697C2.29369 31.6514 2.16525 32.8257 2.03314 34L1.9047 35.2147C1.77259 36.5505 1.58544 37.8716 1.39461 39.1927L1.14874 40.9578C1.07535 41.4899 1.02397 42.0257 0.965253 42.5615C0.902868 43.2037 0.836814 43.8459 0.741401 44.4844C0.682685 44.8881 0.645988 45.2991 0.60929 45.7064C0.546906 46.3853 0.48819 47.0642 0.315713 47.7285C0.308373 47.7725 0.293694 47.8202 0.279016 47.8642C0.209291 48.1138 0.132226 48.378 0.260667 48.6459C0.0557194 48.6508 -0.14928 48.6385 -0.352178 48.6092C-0.32282 48.3229 -0.278783 48.0477 -0.234746 47.7762C-0.198049 47.5376 -0.157682 47.2991 -0.131994 47.0569C-0.0806179 46.5541 -0.0219021 46.0551 0.033143 45.556L0.21663 43.9009C0.326721 42.8367 0.466171 41.7762 0.60929 40.7156L0.792777 39.3578C0.719382 39.6587 0.631309 39.9523 0.543235 40.2422C0.414795 40.6642 0.286355 41.0826 0.2203 41.5119C0.124887 42.1285 0.000115395 42.734 -0.131994 43.3468C-0.297132 44.1358 -0.462269 44.9248 -0.557682 45.7321L-0.671444 46.5652C-0.790965 47.2525 -0.855999 47.9483 -0.865939 48.6459H-1.57787V48.6422ZM0.634978 28.3009C0.854795 28.0583 1.10811 27.8482 1.38727 27.6771C1.63314 27.5376 1.70287 27.3101 1.61479 27.0789C1.57076 26.9688 1.55608 26.8404 1.53773 26.7156C1.49736 26.4294 1.457 26.1395 1.11204 25.9927C0.928555 25.9119 0.75241 25.9817 0.623969 26.0734C0.377944 26.2386 0.161986 26.4446 -0.0145626 26.6826C-0.645755 27.6367 -0.99438 28.7083 -1.32465 29.9229C-0.920985 29.5193 -0.509975 29.2074 -0.102636 28.8918C0.146905 28.7009 0.392776 28.5101 0.634978 28.3046V28.3009ZM-0.744838 26.833C-1.10447 27.6991 -1.46777 28.5578 -1.55218 29.5119C-1.57353 29.9269 -1.7193 30.3259 -1.97053 30.6569L-1.83475 29.9963C-1.58521 28.7707 -1.33566 27.5413 -0.594379 26.4734L-0.741168 26.833H-0.744838ZM37.3763 43.3138C37.9561 45.0385 38.2607 46.8367 38.5359 48.6422C38.7377 48.6422 38.9029 48.6422 39.0717 48.6055C38.9249 47.1596 38.6056 45.7908 38.2864 44.422L38.279 44.4C38.1322 43.7541 37.9194 43.1266 37.7065 42.4991L37.523 41.9486C37.053 40.4513 36.5192 38.9747 35.923 37.5229C35.5876 36.7705 35.214 36.0356 34.8038 35.3211C34.6313 35.0092 34.4735 34.6973 34.3157 34.378C33.9544 33.6037 33.5128 32.8694 32.9983 32.1872C32.7854 31.9156 32.5653 31.6404 32.4662 31.3321C32.0415 30.065 31.5863 28.8084 31.101 27.5633C30.8405 26.8278 30.4322 26.1533 29.901 25.5817C29.1524 24.811 28.1396 24.5358 27.1451 24.2973C26.301 24.0991 25.4533 23.9303 24.6056 23.7651L23.1194 23.4642C21.8662 23.2034 20.5814 23.1292 19.3065 23.244C19.1047 23.2624 18.9396 23.3101 18.8662 23.633C19.4019 23.6954 19.9377 23.7064 20.4698 23.7211C21.3579 23.7468 22.246 23.7688 23.1267 24.011C24.0515 24.2606 24.9983 24.4624 25.9671 24.6679C26.4258 24.7633 26.8845 24.8587 27.3579 24.9651C27.0203 25.3211 27.0093 25.6771 26.9983 26.0294L26.9946 26.1945C26.9653 26.7083 27.046 27.211 27.1231 27.7138C27.1781 28.0587 27.2331 28.4037 27.2515 28.7486C27.3396 30.3927 27.6038 32.0147 27.868 33.6294L27.9157 33.9376C28.0442 34.7193 28.1359 35.5046 28.2276 36.2863C28.312 36.9835 28.3928 37.6844 28.5029 38.378C28.6753 39.5156 28.7377 40.6679 28.8001 41.8165C28.8442 42.5982 28.8882 43.3798 28.9653 44.1615C29.0387 44.9321 29.0974 45.7064 29.1524 46.4844C29.2038 47.2037 29.2552 47.9229 29.3249 48.6422H29.7579C29.7359 46.8404 29.6038 45.0459 29.468 43.2477C29.402 42.3229 29.3322 41.4018 29.2772 40.4807C29.223 39.7118 29.1373 38.9454 29.0203 38.1835C28.9616 37.7872 28.9102 37.3945 28.8588 37.0018C28.7231 35.8385 28.5396 34.6826 28.3561 33.5266C28.1983 32.5285 28.0405 31.534 27.9157 30.5321C27.8497 30.0477 27.7689 29.5707 27.6955 29.0899C27.5267 28.0918 27.3653 27.0973 27.3506 26.0807C27.3469 25.6771 27.4753 25.3578 27.8093 25.0899C27.2735 26.1945 27.5084 27.2624 27.7432 28.3193C27.8056 28.6018 27.8643 28.8771 27.912 29.156C27.9561 29.4018 28.0038 29.644 28.0588 29.8899C28.1579 30.378 28.2607 30.8697 28.2864 31.3651C28.3084 31.7762 28.3891 32.1725 28.4625 32.5651C28.5175 32.8404 28.5726 33.1156 28.6093 33.3982C28.6974 34.1211 28.8148 34.8404 28.9322 35.5633C29.1157 36.6863 29.2992 37.8092 29.3799 38.9505C29.446 39.9229 29.6368 40.8918 29.8203 41.8496L29.846 41.9963C29.9377 42.4661 29.9561 42.9431 29.9708 43.4055L29.9744 43.4826C30.0065 44.1604 30.0579 44.8371 30.1286 45.5119C30.2093 46.3927 30.2937 47.2697 30.2937 48.1541L30.2827 48.3156C30.279 48.4037 30.2717 48.4991 30.279 48.6092C30.4164 48.6384 30.5569 48.6507 30.6974 48.6459C30.7964 46.9835 30.6827 45.3285 30.5359 43.5817C31.0497 45.0496 31.3065 46.4954 31.5634 47.9633L31.6735 48.6018C31.8717 48.6385 32.0772 48.6459 32.279 48.6129C32.1322 48.2899 32.1102 47.956 32.0882 47.6294C32.0698 47.4239 32.0552 47.222 32.0148 47.0239L31.89 46.4881C31.6038 45.2037 31.3175 43.9193 30.7891 42.6899L30.6753 42.4367C30.5189 42.1493 30.4157 41.836 30.3708 41.5119C30.3304 40.9615 30.2203 40.422 30.1139 39.8899L30.0221 39.4385C29.9 38.7575 29.8045 38.072 29.7359 37.3835C29.6552 36.6826 29.5744 35.978 29.4386 35.2807C29.3029 34.5908 29.1818 33.8973 29.068 33.2037C28.8845 32.1211 28.701 31.0385 28.4441 29.9633L28.3708 29.6551C28.2475 29.2122 28.1652 28.7589 28.1249 28.3009C28.1836 28.3266 28.2386 28.3413 28.2864 28.3596C28.3744 28.389 28.4405 28.411 28.4955 28.4514L28.5322 28.4807C29.6772 29.3615 30.8295 30.2496 31.7286 31.3982C32.5251 32.3889 33.214 33.4616 33.7836 34.5982C33.9964 35.0385 34.224 35.4789 34.4441 35.9156C34.9411 36.8486 35.3954 37.8037 35.8056 38.778C36.2386 39.8385 36.5909 40.9248 36.9432 42.0074C37.0827 42.4477 37.2258 42.8807 37.3726 43.3138H37.3763ZM28.4368 27.7982C28.213 27.6697 28.0552 27.4973 28.0185 27.233C27.8764 26.8408 27.8397 26.4182 27.912 26.0074C27.9928 25.4459 28.3781 25.2881 28.8845 25.5303C29.6148 25.8716 29.9341 26.5395 30.246 27.189C30.2827 27.2551 30.312 27.3248 30.3451 27.3908C30.646 28.011 30.8955 28.6569 31.1597 29.3431L31.5267 30.2973L31.1084 29.9009C30.4775 29.2764 29.7977 28.7033 29.0753 28.1872C28.8698 28.0477 28.6533 27.9229 28.4368 27.7982Z" fill="white"/>
<path d="M5.22186 1.77982C5.89695 0.808864 6.68129 -0.0813692 7.55947 -0.873392C8.90371 -2.09602 10.5303 -2.96605 12.2934 -3.4055C13.5008 -3.69174 14.7521 -3.75413 16.0108 -3.5266C17.7356 -3.21468 19.2806 -2.57247 20.6053 -1.41284C20.8512 -1.2 21.1228 -1.11926 21.4567 -1.10091C22.2934 -1.04954 23.0604 -0.711924 23.809 -0.377979C24.7682 0.0299346 25.6651 0.571039 26.4732 1.22936C27.009 1.68074 27.5008 2.15413 27.7209 2.86239C27.9998 3.74312 27.6842 4.28624 26.7558 4.41101C26.631 4.42569 26.5063 4.42569 26.3925 4.56514C26.631 5.24771 27.0237 5.89358 27.1191 6.64587C27.3686 8.70459 26.7888 10.3339 24.7778 11.1963C24.576 11.2844 24.3742 11.3982 24.165 11.2184C23.9558 11.0385 24.1283 10.8881 24.187 10.7156C24.2127 10.6349 24.2237 10.5174 24.187 10.4477C23.9485 10 23.9448 9.5156 23.9191 9.03119C23.9044 8.69358 23.7723 8.48808 23.442 8.27156C21.798 7.20367 20.4475 5.83853 19.6402 4.01468C19.5595 3.83119 19.5228 3.6367 19.4494 3.40184C19.0714 3.80551 18.9173 4.28991 18.6384 4.69358C17.9962 5.62569 17.2916 6.49175 16.2897 7.07156C15.6182 7.46055 14.9907 7.48624 14.4255 6.82936C14.0512 7.19633 13.7063 7.54863 13.3466 7.88624C12.8862 8.33266 12.3357 8.67549 11.7319 8.89174C11.4347 8.99817 11.1191 9.08624 10.8255 8.91376C10.587 8.76697 10.4402 8.89174 10.2934 9.02386C9.55213 9.69908 8.71544 10.0734 7.65856 9.88257C7.35397 10.7266 7.84204 11.5596 7.73562 12.3706C7.48975 12.422 7.44938 12.2972 7.42369 12.1725C7.32094 11.6844 7.22186 11.1963 7.13011 10.7046C6.98244 10.0291 6.5786 9.43713 6.00351 9.05321C5.41268 8.61652 4.57232 9.01652 4.21268 9.78349C3.63654 11.0202 3.69158 12.2972 4.00351 13.5817C4.16865 14.2642 4.44388 14.9028 4.78149 15.5229C4.987 15.8972 5.33195 16.0734 5.64021 16.2936C5.86773 16.4587 6.46956 16.1615 6.75947 15.7872C6.83287 15.6881 6.88791 15.567 6.97966 15.4826C7.32461 15.1339 7.57782 15.1927 7.69158 15.6734C7.9081 16.5982 8.02186 17.545 8.12828 18.4881C8.22736 19.3688 8.2347 20.2606 8.54663 21.1119C8.86222 21.9633 8.57232 22.6239 7.73929 22.9651C7.06039 23.2404 5.52644 23.233 4.987 22.4807C4.68241 22.0587 4.28975 21.967 3.85672 21.8569C3.41222 21.762 3.00079 21.5511 2.66431 21.2455C2.32782 20.94 2.07829 20.5508 1.94112 20.1174C1.85305 19.8679 1.80534 19.6183 1.96681 19.3982C3.13745 17.8055 2.78516 16.1872 2.02553 14.5835C1.76865 14.0477 1.62186 13.4679 1.59617 12.8771C1.51177 11.145 1.78333 9.47156 2.34846 7.82386C2.99801 5.92661 3.89709 4.1578 4.82186 2.39266C4.93195 2.19083 5.0714 2.00367 5.22186 1.77982Z" fill="black"/>
<path d="M15.7061 17.6881C15.8418 17.3321 16.095 17.2844 16.1831 17.6037C16.495 18.6385 17.3024 19.0716 18.2161 19.4018C18.0253 19.7761 17.6473 19.8128 17.1886 19.5963C16.3776 19.211 15.985 18.5138 15.7061 17.6881Z" fill="black"/>
<path d="M19.7868 15.4129C19.9887 15.2734 20.1428 15.0679 20.2199 14.8294C20.2696 14.6881 20.2808 14.5362 20.2525 14.3891C20.2241 14.2421 20.1571 14.1053 20.0584 13.9927C19.8639 13.7725 19.6033 13.8569 19.3611 13.9303C19.207 13.978 19.0125 14.1248 18.9134 13.8862C18.8254 13.6807 18.9795 13.5193 19.1336 13.4202C19.2757 13.3217 19.4403 13.2607 19.6122 13.2427C19.7841 13.2248 19.9578 13.2505 20.1171 13.3174C20.5538 13.4899 20.7189 13.8495 20.7813 14.2642C21.0272 15.8899 19.6437 16.2606 18.5538 16.1908C18.4767 16.1835 18.3997 16.1541 18.3336 16.1101C18.2125 16.0294 18.018 15.9707 18.0731 15.7762C18.1318 15.556 18.3189 15.5927 18.4988 15.6294C18.9391 15.7138 19.3611 15.6367 19.7832 15.4165L19.7868 15.4129Z" fill="black"/>
<path d="M21.3356 13.4495C21.8127 13.4605 22.2677 13.4899 22.7154 13.5413C22.8255 13.556 22.8989 13.6624 22.8989 13.7872C22.8989 13.9083 22.8365 13.9927 22.7264 14.044C22.3154 14.2202 21.9191 14.345 21.4897 14.0514C21.2512 13.8862 21.1595 13.7321 21.3356 13.4495ZM15.6035 13.5046C15.8384 13.6073 15.809 13.7468 15.7136 13.8936C15.4971 14.2092 14.7118 14.3523 14.3925 14.1358C14.209 14.011 14.0989 13.8422 14.187 13.622C14.2787 13.3945 14.4696 13.4165 14.6567 13.4899C14.9613 13.611 15.2622 13.5523 15.6035 13.5046ZM21.7833 13.0275C21.6292 12.6789 21.42 12.4697 21.0567 12.4514C20.8365 12.4404 20.7998 12.2642 20.7301 12.0917C20.8035 12.0367 20.8586 11.956 20.9246 11.9523C21.6989 11.8899 22.4806 11.8862 23.2549 11.9486C23.4751 11.9633 23.5962 12.2422 23.3723 12.3303C23.0053 12.4771 22.9136 12.8147 22.6934 13.0569C22.3925 13.3872 22.1356 13.3908 21.7833 13.0275ZM14.8108 11.9303C15.2586 11.956 15.6586 11.967 16.0586 12.0037C16.1907 12.0147 16.3521 12.0697 16.3521 12.2495C16.3521 12.455 16.1833 12.4404 16.0475 12.4367C15.8164 12.4367 15.6916 12.5358 15.5888 12.7523C15.4641 13.0238 15.3356 13.3138 14.9283 13.2954C14.543 13.2734 14.3742 13.0312 14.2604 12.7376C14.187 12.5284 14.0806 12.4294 13.8604 12.4367C13.7356 12.4404 13.5998 12.4294 13.5852 12.2569C13.5705 12.0734 13.6953 12.0367 13.842 11.9927C14.1577 11.9084 14.487 11.8872 14.8108 11.9303Z" fill="black"/>
<path d="M14.4885 9.24404C14.8371 8.85505 15.2885 8.64955 15.6481 8.32661C15.8169 8.17615 16.0004 8.22019 16.1398 8.38533C16.2793 8.54312 16.4077 8.68991 16.2389 8.91744C15.8392 9.42017 15.2907 9.78367 14.6719 9.95597C14.1435 10.1284 13.5784 10.1835 13.0279 10.2862C12.8628 10.3193 12.6536 10.4073 12.6059 10.1541C12.5618 9.91193 12.7233 9.78716 12.9545 9.74312C13.4756 9.64037 13.9967 9.5523 14.4885 9.24404ZM23.0426 9.17432C23.4573 9.24771 23.7031 9.57799 24.0628 9.69542C24.2022 9.73946 24.371 9.8679 24.305 10.044C24.2279 10.2569 24.0114 10.2018 23.8573 10.1541C23.3698 9.99913 22.8897 9.82157 22.4187 9.62202C21.949 9.41652 21.4976 9.16698 21.0463 8.92478C20.8261 8.80735 20.6206 8.63854 20.7747 8.36698C20.9288 8.09909 21.1784 8.01835 21.4463 8.2312C21.9233 8.61652 22.4958 8.8367 23.0463 9.17432H23.0426Z" fill="black"/>
</g>
</svg>
