<svg width="14" height="18" viewBox="0 0 14 18" fill="none" xmlns="http://www.w3.org/2000/svg">
<path d="M13.75 18H0.25V0H13.75V18Z" stroke="#E5E7EB"/>
<g clip-path="url(#clip0_9_2587)">
<path d="M1.375 0C0.752734 0 0.25 0.502734 0.25 1.125C0.25 1.74727 0.752734 2.25 1.375 2.25V2.63672C1.375 4.12734 1.96914 5.5582 3.02383 6.61289L5.40742 9L3.02383 11.3871C1.96914 12.4418 1.375 13.8727 1.375 15.3633V15.75C0.752734 15.75 0.25 16.2527 0.25 16.875C0.25 17.4973 0.752734 18 1.375 18H2.5H11.5H12.625C13.2473 18 13.75 17.4973 13.75 16.875C13.75 16.2527 13.2473 15.75 12.625 15.75V15.3633C12.625 13.8727 12.0309 12.4418 10.9762 11.3871L8.59258 9L10.9797 6.61289C12.0344 5.5582 12.6285 4.12734 12.6285 2.63672V2.25C13.2508 2.25 13.7535 1.74727 13.7535 1.125C13.7535 0.502734 13.2508 0 12.6285 0H11.5H2.5H1.375ZM3.625 2.63672V2.25H10.375V2.63672C10.375 3.30469 10.1781 3.95156 9.8125 4.5H4.1875C3.82539 3.95156 3.625 3.30469 3.625 2.63672ZM4.1875 13.5C4.31055 13.3137 4.45469 13.1379 4.61289 12.9762L7 10.5926L9.38711 12.9797C9.54883 13.1414 9.68945 13.3172 9.8125 13.5035H4.1875V13.5Z" fill="#525252"/>
</g>
<defs>
<clipPath id="clip0_9_2587">
<path d="M0.25 0H13.75V18H0.25V0Z" fill="white"/>
</clipPath>
</defs>
</svg>
