<svg width="25" height="24" viewBox="0 0 25 24" fill="none" xmlns="http://www.w3.org/2000/svg">
<g clip-path="url(#clip0_1985_11146)">
<g clip-path="url(#clip1_1985_11146)">
<path d="M8.80719 2.48242C10.0662 2.48242 11.2736 2.98255 12.1638 3.87278C13.054 4.763 13.5542 5.97041 13.5542 7.22939C13.5542 8.48836 13.054 9.69577 12.1638 10.586C11.2736 11.4762 10.0662 11.9764 8.80719 11.9764C7.54821 11.9764 6.34081 11.4762 5.45058 10.586C4.56035 9.69577 4.06022 8.48836 4.06022 7.22939C4.06022 5.97041 4.56035 4.763 5.45058 3.87278C6.34081 2.98255 7.54821 2.48242 8.80719 2.48242ZM7.11237 13.7565H10.502C11.266 13.7565 12.0003 13.8863 12.6826 14.1236C12.4787 14.7578 12.3674 15.429 12.3674 16.1299C12.3674 18.3365 13.4614 20.2872 15.1414 21.4703H1.60144C0.993239 21.4703 0.5 20.977 0.5 20.3688C0.5 16.7159 3.45944 13.7565 7.11237 13.7565ZM13.5542 16.1299C13.5542 14.7136 14.1168 13.3553 15.1183 12.3538C16.1198 11.3523 17.4781 10.7896 18.8945 10.7896C20.3108 10.7896 21.6692 11.3523 22.6707 12.3538C23.6722 13.3553 24.2348 14.7136 24.2348 16.1299C24.2348 17.5463 23.6722 18.9046 22.6707 19.9061C21.6692 20.9076 20.3108 21.4703 18.8945 21.4703C17.4781 21.4703 16.1198 20.9076 15.1183 19.9061C14.1168 18.9046 13.5542 17.5463 13.5542 16.1299ZM18.8945 13.1631C18.5681 13.1631 18.3011 13.4301 18.3011 13.7565V16.1299C18.3011 16.4563 18.5681 16.7233 18.8945 16.7233H20.6746C21.001 16.7233 21.268 16.4563 21.268 16.1299C21.268 15.8036 21.001 15.5366 20.6746 15.5366H19.4879V13.7565C19.4879 13.4301 19.2208 13.1631 18.8945 13.1631Z" fill="#131313"/>
</g>
</g>
<defs>
<clipPath id="clip0_1985_11146">
<rect width="24" height="24" fill="white" transform="translate(0.5)"/>
</clipPath>
<clipPath id="clip1_1985_11146">
<rect width="24" height="24" fill="white" transform="translate(0.5)"/>
</clipPath>
</defs>
</svg>
