<svg width="20" height="20" viewBox="0 0 20 20" fill="none" xmlns="http://www.w3.org/2000/svg">
<g clip-path="url(#clip0_3066_65959)">
<g clip-path="url(#clip1_3066_65959)">
<path d="M4.9585 16.5834C2.68115 16.5834 0.833496 14.7357 0.833496 12.4584C0.833496 10.6594 1.98506 9.12975 3.58923 8.56543C3.58636 8.48808 3.5835 8.41074 3.5835 8.33339C3.5835 5.8011 5.63454 3.75006 8.16683 3.75006C9.86553 3.75006 11.3465 4.67246 12.14 6.04746C12.5754 5.75527 13.1025 5.58339 13.6668 5.58339C15.1851 5.58339 16.4168 6.81517 16.4168 8.33339C16.4168 8.68287 16.3509 9.01517 16.2335 9.32454C17.9064 9.66256 19.1668 11.1436 19.1668 12.9167C19.1668 14.942 17.5254 16.5834 15.5002 16.5834H4.9585ZM7.22152 10.3672C6.95225 10.6365 6.95225 11.0719 7.22152 11.3383C7.49079 11.6047 7.9262 11.6076 8.19261 11.3383L9.3098 10.2212V14.0626C9.3098 14.4436 9.61631 14.7501 9.9973 14.7501C10.3783 14.7501 10.6848 14.4436 10.6848 14.0626V10.2212L11.802 11.3383C12.0713 11.6076 12.5067 11.6076 12.7731 11.3383C13.0395 11.0691 13.0423 10.6337 12.7731 10.3672L10.4814 8.07558C10.2121 7.80631 9.77672 7.80631 9.51032 8.07558L7.21865 10.3672H7.22152Z" fill="#131313"/>
</g>
</g>
<defs>
<clipPath id="clip0_3066_65959">
<rect width="18.3333" height="14.6667" fill="white" transform="translate(0.833496 2.83337)"/>
</clipPath>
<clipPath id="clip1_3066_65959">
<rect width="18.3333" height="14.6667" fill="white" transform="translate(0.833496 2.83337)"/>
</clipPath>
</defs>
</svg>
