<svg width="24" height="24" viewBox="0 0 24 24" fill="none" xmlns="http://www.w3.org/2000/svg">
<path d="M6.21484 2.21429H17.7861C18.3922 2.21437 18.9738 2.45563 19.4023 2.88422C19.8308 3.31284 20.0713 3.89438 20.0713 4.50043V14.6498C20.0215 14.6922 19.9725 14.736 19.9258 14.7827L19.7861 14.9223V4.50043C19.7861 3.96999 19.5753 3.46046 19.2002 3.08539C18.8252 2.71047 18.3164 2.5005 17.7861 2.50043H6.21484C5.68441 2.50043 5.17488 2.71032 4.7998 3.08539C4.42473 3.46046 4.21484 3.96999 4.21484 4.50043V19.5004C4.21507 20.6044 5.11084 21.5004 6.21484 21.5004H12.9229L13.208 21.7856H6.21484C5.60883 21.7856 5.02725 21.545 4.59863 21.1166C4.17008 20.6881 3.92882 20.1065 3.92871 19.5004V4.50043C3.92871 3.89422 4.16998 3.31287 4.59863 2.88422C5.02729 2.45556 5.60863 2.21429 6.21484 2.21429ZM21.6494 16.3491C21.6684 16.3489 21.6875 16.3526 21.7051 16.3598C21.7226 16.367 21.7386 16.3777 21.752 16.3911C21.7653 16.4044 21.7761 16.4204 21.7832 16.4379C21.7903 16.4553 21.7941 16.4739 21.7939 16.4926C21.7938 16.5116 21.7897 16.5309 21.7822 16.5483C21.7748 16.5656 21.7636 16.581 21.75 16.5942L21.7441 16.601L16.6006 21.7436C16.5738 21.7701 16.5377 21.7856 16.5 21.7856C16.481 21.7856 16.4625 21.781 16.4453 21.7739L16.3994 21.7436L13.8398 19.184C13.816 19.1572 13.8031 19.1223 13.8037 19.0864C13.8044 19.0495 13.8196 19.0138 13.8457 18.9877C13.8718 18.9618 13.9075 18.9474 13.9443 18.9467C13.9628 18.9464 13.9811 18.949 13.998 18.9555L14.0439 18.9848L16.5 21.4409L21.542 16.3989L21.5479 16.392C21.561 16.3784 21.5773 16.3683 21.5947 16.3608C21.6121 16.3533 21.6305 16.3493 21.6494 16.3491ZM7.92871 15.9282C8.08026 15.9282 8.22584 15.989 8.33301 16.0961C8.44004 16.2033 8.5 16.349 8.5 16.5004C8.49989 16.6517 8.4399 16.7967 8.33301 16.9037C8.22584 17.0109 8.08026 17.0717 7.92871 17.0717C7.77716 17.0717 7.63158 17.0109 7.52441 16.9037C7.41752 16.7967 7.35753 16.6517 7.35742 16.5004C7.35742 16.349 7.41738 16.2033 7.52441 16.0961C7.63158 15.989 7.77716 15.9282 7.92871 15.9282ZM10.9287 16.3569H16.5C16.5379 16.3569 16.5748 16.3721 16.6016 16.3989C16.6283 16.4256 16.6426 16.4626 16.6426 16.5004C16.6425 16.5381 16.6281 16.5743 16.6016 16.601C16.5748 16.6278 16.5379 16.643 16.5 16.643H10.9287C10.8909 16.643 10.8549 16.6277 10.8281 16.601C10.8014 16.5743 10.7862 16.5382 10.7861 16.5004C10.7861 16.4625 10.8013 16.4257 10.8281 16.3989C10.8549 16.3722 10.891 16.3569 10.9287 16.3569ZM7.92871 11.4282C8.08026 11.4282 8.22584 11.489 8.33301 11.5961C8.44004 11.7033 8.5 11.849 8.5 12.0004C8.49989 12.1517 8.4399 12.2967 8.33301 12.4037C8.22584 12.5109 8.08026 12.5717 7.92871 12.5717C7.77716 12.5717 7.63158 12.5109 7.52441 12.4037C7.41752 12.2967 7.35753 12.1517 7.35742 12.0004C7.35742 11.849 7.41738 11.7033 7.52441 11.5961C7.63158 11.489 7.77716 11.4282 7.92871 11.4282ZM10.9287 11.8569H16.5C16.5379 11.8569 16.5748 11.8721 16.6016 11.8989C16.6283 11.9256 16.6426 11.9626 16.6426 12.0004C16.6425 12.0381 16.6281 12.0743 16.6016 12.101C16.5748 12.1278 16.5379 12.143 16.5 12.143H10.9287C10.8909 12.143 10.8549 12.1277 10.8281 12.101C10.8014 12.0743 10.7862 12.0382 10.7861 12.0004C10.7861 11.9625 10.8013 11.9257 10.8281 11.8989C10.8549 11.8722 10.891 11.8569 10.9287 11.8569ZM7.92871 6.92816C8.08026 6.92816 8.22584 6.98897 8.33301 7.09613C8.44004 7.20327 8.5 7.34897 8.5 7.50043C8.49989 7.6517 8.4399 7.79671 8.33301 7.90375C8.22584 8.01091 8.08026 8.07172 7.92871 8.07172C7.77716 8.07172 7.63158 8.01091 7.52441 7.90375C7.41752 7.79671 7.35753 7.6517 7.35742 7.50043C7.35742 7.34897 7.41738 7.20327 7.52441 7.09613C7.63158 6.98897 7.77716 6.92816 7.92871 6.92816ZM10.9287 7.35687H16.5C16.5379 7.35687 16.5748 7.37207 16.6016 7.39886C16.6283 7.42564 16.6426 7.4626 16.6426 7.50043C16.6425 7.53807 16.6281 7.57434 16.6016 7.60101C16.5748 7.62781 16.5379 7.64301 16.5 7.64301H10.9287C10.8909 7.64301 10.8549 7.62767 10.8281 7.60101C10.8014 7.57432 10.7862 7.53816 10.7861 7.50043C10.7861 7.46254 10.8013 7.42566 10.8281 7.39886C10.8549 7.37225 10.891 7.35687 10.9287 7.35687Z" fill="#131313" stroke="#131313"/>
</svg>
