<svg width="126" height="30" viewBox="0 0 126 30" fill="none" xmlns="http://www.w3.org/2000/svg">
<path d="M75.1015 11.8386C77.0403 11.8386 78.8762 13.0181 79.2637 15.5666H70.6294C70.9907 13.3303 72.6717 11.8386 75.1015 11.8386ZM78.9877 19.337C78.3283 20.3593 77.0537 21.1456 75.3087 21.1456C72.9042 21.1456 71.0682 19.8348 70.6294 17.5206H81.4618C81.514 17.189 81.5404 16.8538 81.5408 16.5181C81.5408 12.919 79.0106 9.73047 75.1031 9.73047C71.0706 9.73047 68.3301 12.6871 68.3301 16.4929C68.3301 20.3459 71.0975 23.2553 75.258 23.2553C77.8436 23.2553 79.8084 22.0978 80.9454 20.3459L78.9877 19.337Z" fill="#006BFF"/>
<path d="M67.2663 4.15137H65.0176V22.9202H67.2663V4.15137Z" fill="#006BFF"/>
<path d="M94.0536 15.0276V22.9199H91.8041V15.1557C91.8041 13.0476 90.5897 11.8649 88.5987 11.8649C86.5303 11.8649 84.8501 13.0735 84.8501 16.1072V22.9199H82.6006V10.0666H84.8501V11.9176C85.8068 10.4008 87.2285 9.73242 89.0407 9.73242C92.0651 9.73242 94.056 11.7376 94.056 15.0291" fill="#006BFF"/>
<path d="M106.455 16.492C106.455 13.8696 104.464 11.8896 101.854 11.8896C99.268 11.8896 97.2778 13.8696 97.2778 16.492C97.2778 19.1144 99.268 21.0944 101.854 21.0944C104.463 21.0944 106.455 19.1144 106.455 16.492ZM108.704 4.15137V22.9202H106.455V20.7083C105.421 22.281 103.767 23.2544 101.569 23.2544C97.9752 23.2544 95.0283 20.2971 95.0283 16.492C95.0283 12.687 97.9752 9.72958 101.569 9.72958C103.766 9.72958 105.421 10.7062 106.455 12.2749V4.15137H108.704Z" fill="#006BFF"/>
<path d="M112.766 4.15137H110.518V22.9202H112.766V4.15137Z" fill="#006BFF"/>
<path d="M61.009 16.4919C61.009 13.8695 59.0188 11.8895 56.4072 11.8895C53.8225 11.8895 51.8315 13.8695 51.8315 16.4919C51.8315 19.1143 53.8225 21.0943 56.4072 21.0943C59.0165 21.0943 61.009 19.1143 61.009 16.4919ZM63.2585 10.066V22.9194H61.009V20.7082C59.9748 22.2809 58.3207 23.2543 56.1234 23.2543C52.5297 23.2543 49.582 20.297 49.582 16.4919C49.582 12.6869 52.5297 9.72949 56.1234 9.72949C58.3207 9.72949 59.9748 10.7061 61.009 12.2748V10.066H63.2585Z" fill="#006BFF"/>
<path d="M46.2458 20.4448C45.0945 20.8673 43.8517 20.9814 42.6421 20.7756C41.4324 20.5698 40.2985 20.0513 39.3539 19.2722C38.4093 18.4931 37.6872 17.4808 37.2601 16.3366C36.833 15.1925 36.7159 13.9568 36.9205 12.7534C37.125 11.5501 37.6441 10.4213 38.4257 9.48041C39.2073 8.53949 40.2238 7.81944 41.3735 7.39246C42.5231 6.96548 43.7654 6.84658 44.9758 7.04767C46.1863 7.24876 47.3223 7.76279 48.2699 8.5382C48.6651 8.86245 49.0226 9.22958 49.3358 9.63277L51.2816 8.21738C50.148 6.74356 48.5999 5.63762 46.8335 5.03976C45.0672 4.44189 43.1621 4.37901 41.3598 4.85909C39.5574 5.33917 37.939 6.34058 36.7096 7.73641C35.4802 9.13224 34.6952 10.8596 34.454 12.6996C34.2129 14.5397 34.5265 16.4095 35.3551 18.072C36.1837 19.7346 37.4899 21.1151 39.1083 22.0386C40.7267 22.962 42.5843 23.3868 44.4458 23.2592C46.3072 23.1315 48.0886 22.4572 49.5643 21.3215L48.2691 19.285C47.6641 19.7806 46.9803 20.1725 46.2458 20.4448Z" fill="#006BFF"/>
<path d="M123.623 10.0664V17.362C123.623 19.7209 122.243 21.215 120.137 21.215C118.03 21.215 116.505 19.7209 116.505 17.362V10.0664H114.229V17.1434C114.229 20.8517 116.553 23.2594 120.137 23.2594C123.236 23.2594 123.72 21.3093 123.72 21.2606V23.8853C123.72 26.4857 122.582 27.9546 120.209 27.9546C119.362 27.9587 118.542 27.6564 117.902 27.1037C117.262 26.5511 116.845 25.786 116.73 24.9508L114.696 25.6585C114.987 26.8958 115.691 27.9985 116.693 28.7871C117.695 29.5758 118.936 30.0037 120.213 30.0014C123.893 30.0014 125.906 27.5929 125.906 23.8853V10.0664H123.623Z" fill="#006BFF"/>
<path d="M19.2112 17.554C18.347 18.3168 17.2677 19.2659 15.3108 19.2659H14.1406C12.7245 19.2659 11.4365 18.754 10.5145 17.8261C9.61393 16.9195 9.11817 15.6786 9.11817 14.3316V12.7393C9.11817 11.3923 9.61393 10.1515 10.5145 9.24489C11.4365 8.31702 12.7245 7.8059 14.1406 7.8059H15.3108C17.2701 7.8059 18.347 8.75422 19.2112 9.51695C20.1087 10.3033 20.8828 10.9905 22.9472 10.9905C23.2621 10.9905 23.5765 10.9655 23.8874 10.9158L23.8802 10.8977C23.7566 10.5924 23.6115 10.296 23.4462 10.0108L22.0664 7.6337C21.4442 6.56211 20.5493 5.67228 19.4717 5.05363C18.3942 4.43499 17.1718 4.10932 15.9275 4.10938H13.1673C11.923 4.10932 10.7006 4.43499 9.62305 5.05363C8.54546 5.67228 7.65059 6.56211 7.02839 7.6337L5.64865 10.0108C5.02666 11.0825 4.69922 12.2981 4.69922 13.5355C4.69922 14.7729 5.02666 15.9885 5.64865 17.0602L7.02839 19.4373C7.65059 20.5089 8.54546 21.3987 9.62305 22.0173C10.7006 22.636 11.923 22.9616 13.1673 22.9616H15.9275C17.1718 22.9616 18.3942 22.636 19.4717 22.0173C20.5493 21.3987 21.4442 20.5089 22.0664 19.4373L23.4462 17.0641C23.6115 16.7789 23.7566 16.4825 23.8802 16.1772L23.8874 16.1599C23.5766 16.1085 23.2622 16.0822 22.9472 16.0812C20.8828 16.0812 20.1087 16.7645 19.2112 17.5548" fill="#006BFF"/>
<path d="M15.3101 9.24902H14.1399C11.9845 9.24902 10.5684 10.78 10.5684 12.7395V14.3318C10.5684 16.2914 11.9845 17.8224 14.1399 17.8224H15.3101C18.4507 17.8224 18.204 14.6377 22.9465 14.6377C23.3958 14.6372 23.8443 14.6783 24.2859 14.7604C24.4298 13.9502 24.4298 13.1212 24.2859 12.311C23.8442 12.3927 23.3958 12.4338 22.9465 12.4337C18.2024 12.4337 18.4507 9.24902 15.3101 9.24902Z" fill="#006BFF"/>
<path d="M27.0109 15.9236C26.2032 15.3353 25.2719 14.9371 24.2869 14.759C24.2869 14.7677 24.2869 14.7748 24.2869 14.7826C24.2022 15.2521 24.0697 15.7118 23.8916 16.1548C24.7052 16.2801 25.4771 16.5962 26.1435 17.0771C26.1435 17.0834 26.1395 17.0913 26.1371 17.0984C25.2795 19.8601 23.4542 22.2243 20.9929 23.7615C18.5315 25.2987 15.5974 25.9069 12.7235 25.4756C9.8496 25.0443 7.22657 23.6021 5.33092 21.4111C3.43527 19.2201 2.39275 16.4255 2.39275 13.5351C2.39275 10.6447 3.43527 7.85011 5.33092 5.65908C7.22657 3.46805 9.8496 2.02591 12.7235 1.59464C15.5974 1.16336 18.5315 1.77155 20.9929 3.30874C23.4542 4.84592 25.2795 7.21012 26.1371 9.97186C26.1371 9.97893 26.1411 9.9868 26.1435 9.99309C25.4772 10.474 24.7052 10.79 23.8916 10.9147C24.0695 11.3582 24.2019 11.8184 24.2869 12.2884C24.2865 12.2957 24.2865 12.3031 24.2869 12.3104C25.2718 12.1326 26.2032 11.7347 27.0109 11.1466C27.7873 10.575 27.6371 9.92939 27.5193 9.54724C26.5593 6.45077 24.5141 3.79954 21.7555 2.07533C18.9968 0.351114 15.7077 -0.331659 12.4858 0.151077C9.26386 0.633813 6.32302 2.25002 4.19762 4.70602C2.07222 7.16201 0.90332 10.2948 0.90332 13.5351C0.90332 16.7754 2.07222 19.9082 4.19762 22.3642C6.32302 24.8202 9.26386 26.4364 12.4858 26.9191C15.7077 27.4019 18.9968 26.7191 21.7555 24.9949C24.5141 23.2707 26.5593 20.6194 27.5193 17.523C27.6371 17.1408 27.7873 16.4952 27.0109 15.9236Z" fill="#006BFF"/>
<path d="M23.8864 10.9154C23.5756 10.9667 23.2612 10.993 22.9462 10.994C20.8818 10.994 20.1077 10.3107 19.2111 9.52043C18.346 8.75769 17.2691 7.80859 15.3098 7.80859H14.1396C12.7227 7.80859 11.4355 8.32049 10.5135 9.24836C9.61295 10.155 9.11719 11.3958 9.11719 12.7428V14.3351C9.11719 15.6821 9.61295 16.9229 10.5135 17.8296C11.4355 18.7574 12.7227 19.2685 14.1396 19.2685H15.3098C17.2691 19.2685 18.346 18.3202 19.2111 17.5575C20.1077 16.7712 20.8818 16.0839 22.9462 16.0839C23.2611 16.084 23.5755 16.109 23.8864 16.1586C24.0648 15.7158 24.1973 15.2561 24.2817 14.7865C24.2822 14.7786 24.2822 14.7707 24.2817 14.7629C23.84 14.6814 23.3916 14.6406 22.9423 14.641C18.1982 14.641 18.4465 17.8264 15.3059 17.8264H14.1357C11.9803 17.8264 10.5641 16.2946 10.5641 14.3351V12.7397C10.5641 10.7801 11.9803 9.24915 14.1357 9.24915H15.3059C18.4465 9.24915 18.1998 12.433 22.9423 12.433C23.3916 12.4338 23.84 12.3929 24.2817 12.3111C24.2817 12.304 24.2817 12.297 24.2817 12.2891C24.1967 11.8191 24.0643 11.3589 23.8864 10.9154Z" fill="#0AE8F0"/>
<path d="M23.8864 10.9154C23.5756 10.9667 23.2612 10.993 22.9462 10.994C20.8818 10.994 20.1077 10.3107 19.2111 9.52043C18.346 8.75769 17.2691 7.80859 15.3098 7.80859H14.1396C12.7227 7.80859 11.4355 8.32049 10.5135 9.24836C9.61295 10.155 9.11719 11.3958 9.11719 12.7428V14.3351C9.11719 15.6821 9.61295 16.9229 10.5135 17.8296C11.4355 18.7574 12.7227 19.2685 14.1396 19.2685H15.3098C17.2691 19.2685 18.346 18.3202 19.2111 17.5575C20.1077 16.7712 20.8818 16.0839 22.9462 16.0839C23.2611 16.084 23.5755 16.109 23.8864 16.1586C24.0648 15.7158 24.1973 15.2561 24.2817 14.7865C24.2822 14.7786 24.2822 14.7707 24.2817 14.7629C23.84 14.6814 23.3916 14.6406 22.9423 14.641C18.1982 14.641 18.4465 17.8264 15.3059 17.8264H14.1357C11.9803 17.8264 10.5641 16.2946 10.5641 14.3351V12.7397C10.5641 10.7801 11.9803 9.24915 14.1357 9.24915H15.3059C18.4465 9.24915 18.1998 12.433 22.9423 12.433C23.3916 12.4338 23.84 12.3929 24.2817 12.3111C24.2817 12.304 24.2817 12.297 24.2817 12.2891C24.1967 11.8191 24.0643 11.3589 23.8864 10.9154Z" fill="#0AE8F0"/>
</svg>
