<svg width="143" height="28" viewBox="0 0 143 28" fill="none" xmlns="http://www.w3.org/2000/svg">
<g clip-path="url(#clip0_1657_3822)">
<path d="M16.5289 5.26155L8.2713 10.5231L16.5289 15.7847L8.2713 21.0462L0.0136719 15.7562L8.2713 10.4947L0.0136719 5.26155L8.2713 0L16.5289 5.26155ZM8.22859 22.7384L16.4862 17.4769L24.7438 22.7384L16.4862 28L8.22859 22.7384ZM16.5289 15.7562L24.7866 10.4947L16.5289 5.26155L24.7438 0L33.0015 5.26155L24.7438 10.5231L33.0015 15.7847L24.7438 21.0462L16.5289 15.7562Z" fill="#0061FF"/>
<path d="M39.4795 5.26176H46.1568C50.4137 5.26176 53.9303 7.7219 53.9303 13.339V14.5193C53.9303 20.179 50.6415 22.7244 46.2849 22.7244H39.4795V5.26176ZM43.2097 8.43292V19.5391H46.0714C48.4917 19.5391 50.1147 17.9606 50.1147 14.4482V13.5238C50.1147 10.0114 48.4063 8.43292 45.9432 8.43292H43.2097ZM55.9093 8.60356H58.8992L59.3832 11.8885C59.9527 9.65587 61.4049 8.46136 64.0388 8.46136H64.9642V12.2298H63.4266C60.3941 12.2298 59.6537 13.2821 59.6537 16.2684V22.7671H55.9663V8.60356H55.9093ZM65.7046 15.9697V15.5716C65.7046 10.8362 68.7371 8.24805 72.8659 8.24805C77.0802 8.24805 80.0273 10.8362 80.0273 15.5716V15.9697C80.0273 20.6198 77.1656 23.1226 72.8659 23.1226C68.2958 23.0799 65.7046 20.634 65.7046 15.9697ZM76.2544 15.9271V15.5716C76.2544 12.9408 74.9303 11.3623 72.8232 11.3623C70.7588 11.3623 69.392 12.8128 69.392 15.5716V15.9271C69.392 18.4725 70.7161 19.923 72.8232 19.923C74.9303 19.8804 76.2544 18.4725 76.2544 15.9271ZM81.9636 8.60356H85.0388L85.3947 11.277C86.1351 9.48523 87.7154 8.24805 90.0503 8.24805C93.6524 8.24805 96.03 10.8362 96.03 15.6284V16.0266C96.03 20.6767 93.3961 23.1368 90.0503 23.1368C87.8151 23.1368 86.2775 22.1272 85.5229 20.5061V27.6589H81.9208L81.9636 8.60356ZM92.2856 15.9271V15.6142C92.2856 12.7986 90.8334 11.405 88.8971 11.405C86.8327 11.405 85.4659 12.9835 85.4659 15.6142V15.8844C85.4659 18.3872 86.79 19.9657 88.8544 19.9657C90.9758 19.923 92.2856 18.5721 92.2856 15.9271ZM101.483 20.1505L101.17 22.7387H98.009V3.86816H101.611V11.1064C102.408 9.2577 103.989 8.24805 106.224 8.24805C109.612 8.29071 112.118 10.6229 112.118 15.3156V15.7564C112.118 20.4492 109.741 23.1368 106.138 23.1368C103.761 23.0799 102.223 21.985 101.483 20.1505ZM108.331 15.7564V15.4009C108.331 12.8128 106.922 11.3623 104.943 11.3623C102.921 11.3623 101.511 12.9834 101.511 15.4436V15.7564C101.511 18.3872 102.878 19.923 104.9 19.923C107.064 19.923 108.331 18.5721 108.331 15.7564ZM113.698 15.9697V15.5716C113.698 10.8362 116.731 8.24805 120.86 8.24805C125.074 8.24805 128.021 10.8362 128.021 15.5716V15.9697C128.021 20.6198 125.117 23.1226 120.86 23.1226C116.29 23.0799 113.698 20.634 113.698 15.9697ZM124.277 15.9271V15.5716C124.277 12.9408 122.953 11.3623 120.846 11.3623C118.781 11.3623 117.414 12.8128 117.414 15.5716V15.9271C117.414 18.4725 118.738 19.923 120.846 19.923C122.967 19.8804 124.277 18.4725 124.277 15.9271ZM132.848 15.4009L127.879 8.60356H132.136L134.997 12.8555L137.902 8.60356H142.116L137.076 15.3583L142.387 22.7387H138.215L134.969 18.0459L131.808 22.7387H127.452L132.848 15.4009Z" fill="#131313"/>
</g>
<defs>
<clipPath id="clip0_1657_3822">
<rect width="142.373" height="28" fill="white" transform="translate(0.0136719)"/>
</clipPath>
</defs>
</svg>
