<svg width="130" height="28" viewBox="0 0 130 28" fill="none" xmlns="http://www.w3.org/2000/svg">
<g clip-path="url(#clip0_1657_3743)">
<path d="M23.1903 2.99805H8.59375V24.6616H23.1903V2.99805Z" fill="#131313"/>
<path d="M12.18 0C10.6308 -2.51197e-08 9.09676 0.305387 7.66549 0.898722C6.23423 1.49206 4.93378 2.36172 3.83842 3.45803C2.74306 4.55435 1.87423 5.85586 1.28157 7.28822C0.688899 8.72058 0.383999 10.2557 0.384278 11.806V28H16.5671C19.6957 28 22.6962 26.7564 24.9087 24.5428C27.1211 22.3292 28.3644 19.3269 28.3649 16.1961V0H12.18ZM21.7355 4.96805C21.7358 5.4761 21.636 5.97922 21.442 6.44867C21.2479 6.91812 20.9632 7.34471 20.6043 7.70405C20.2454 8.06339 19.8193 8.34845 19.3503 8.54293C18.8813 8.73742 18.3785 8.83752 17.8709 8.83752H13.7259V12.1566H19.3254V16.041H13.762V24.0413H9.16472V3.95872H13.7259V7.60082C13.7833 6.61577 14.2148 5.68994 14.9321 5.01286C15.6494 4.33578 16.5981 3.95867 17.5842 3.95872H21.7419L21.7355 4.96805Z" fill="#0075DD"/>
<path d="M44.1084 10.335V20.8236H46.8455V15.0864C46.8455 14.7612 46.8455 13.771 47.249 13.2993C47.4593 13.0648 47.7191 12.88 48.0096 12.7583C48.3001 12.6367 48.614 12.5812 48.9286 12.596L49.0433 12.6066V10.0014H48.9477C48.1408 9.92707 47.3721 10.2352 47.0579 10.5645L46.8965 10.7218C46.8004 10.8105 46.709 10.9041 46.6226 11.0023V10.3435L44.1084 10.335Z" fill="#131313"/>
<path d="M71.6791 20.824V15.0655C71.6791 13.4994 72.4032 12.5921 73.6687 12.5751C73.9056 12.5657 74.1419 12.6048 74.3631 12.6899C74.5844 12.775 74.786 12.9044 74.9555 13.0702C75.3909 13.4951 75.6223 14.1772 75.6223 15.0293V20.824H78.3148V14.292C78.3148 11.995 76.7584 10.2015 74.6116 10.0273C73.4203 9.91891 72.4393 10.2228 71.6939 10.9346L71.6706 10.958V6.86328H68.9717L68.9929 20.824H71.6791Z" fill="#131313"/>
<path d="M86.7401 13.1963L86.6552 13.1666L86.7444 13.1113C87.838 12.4122 88.1947 10.9864 87.976 10.009C87.5513 7.98179 85.9417 6.86621 83.4424 6.86621H79.7285L79.7476 20.8269H83.6484C86.5448 20.8269 88.3391 19.5902 88.836 17.2528C89.1439 15.8036 88.2945 13.7148 86.7401 13.1963ZM82.4826 9.56273H83.6824C84.1453 9.56273 85.2304 9.67747 85.2771 10.7314C85.2899 10.8994 85.2678 11.0683 85.2123 11.2274C85.1567 11.3864 85.0689 11.5323 84.9543 11.6558C84.5424 12.0808 83.8289 12.17 83.3044 12.17H82.4826V9.56273ZM85.7464 17.4802C85.3387 17.9179 84.5657 18.1389 83.4445 18.1389H82.5039V14.8113H83.9775C84.9076 14.8113 86.0182 15.2129 86.0861 16.3455C86.1143 16.5479 86.0986 16.7541 86.04 16.9499C85.9813 17.1457 85.8812 17.3266 85.7464 17.4802Z" fill="#131313"/>
<path d="M98.7661 11.6339C98.2523 11.1205 97.6409 10.7153 96.968 10.4423C96.2951 10.1693 95.5743 10.0341 94.8483 10.0445C93.3974 10.0748 92.0156 10.6705 90.997 11.7049C89.9784 12.7393 89.4035 14.1307 89.3946 15.5829C89.3858 17.0351 89.9437 18.4335 90.9496 19.4802C91.9555 20.527 93.3299 21.1396 94.7804 21.1876H94.9035C96.3475 21.1844 97.7318 20.6109 98.7555 19.5917C99.2908 19.0771 99.7169 18.4596 100.008 17.7763C100.3 17.0931 100.45 16.358 100.451 15.6151C100.452 14.8722 100.304 14.1367 100.014 13.4527C99.7245 12.7686 99.3 12.1501 98.7661 11.6339ZM95.0012 18.5675C94.6223 18.578 94.2453 18.5113 93.893 18.3714C93.5408 18.2315 93.2206 18.0213 92.9521 17.7537C92.6649 17.4764 92.4359 17.1445 92.2788 16.7773C92.1216 16.4102 92.0394 16.0154 92.0369 15.616C92.0304 14.8556 92.3212 14.1228 92.8473 13.5741C93.3734 13.0254 94.0931 12.7043 94.8526 12.6794H94.9141C95.6725 12.6837 96.3991 12.9846 96.9387 13.5179C97.4784 14.0511 97.7882 14.7744 97.802 15.5332C97.8219 16.3043 97.5404 17.0528 97.0174 17.6195C96.4943 18.1862 95.771 18.5263 95.0012 18.5675Z" fill="#131313"/>
<path d="M110.498 11.634C109.984 11.1202 109.373 10.7147 108.7 10.4417C108.027 10.1687 107.306 10.0336 106.58 10.0446C105.129 10.0748 103.747 10.6705 102.728 11.705C101.71 12.7394 101.135 14.1308 101.126 15.583C101.117 17.0352 101.675 18.4335 102.681 19.4803C103.687 20.5271 105.061 21.1396 106.512 21.1876H106.635C108.079 21.1849 109.464 20.6113 110.487 19.5918C111.022 19.0764 111.447 18.4584 111.737 17.7747C112.028 17.0911 112.178 16.3558 112.178 15.6129C112.178 14.87 112.028 14.1347 111.737 13.4511C111.447 12.7674 111.022 12.1494 110.487 11.634H110.498ZM108.748 17.6369C108.492 17.9205 108.182 18.1496 107.835 18.3106C107.489 18.4716 107.114 18.5612 106.733 18.574C106.354 18.5842 105.977 18.5174 105.625 18.3775C105.272 18.2376 104.952 18.0275 104.684 17.7601C104.396 17.4828 104.167 17.1509 104.01 16.7838C103.853 16.4167 103.771 16.0218 103.768 15.6225C103.762 14.8621 104.053 14.1293 104.579 13.5806C105.105 13.0319 105.825 12.7108 106.584 12.6858H106.646C107.402 12.6912 108.127 12.9917 108.665 13.5235C109.204 14.0553 109.514 14.7763 109.529 15.5332C109.555 16.3099 109.274 17.0656 108.748 17.6369Z" fill="#131313"/>
<path d="M115.526 16.0708L115.761 15.8668H115.972L119.01 20.8773H121.928L117.783 14.016L121.881 10.3165H118.212L115.553 12.7091H115.526V6.8125H112.952V20.8773H115.526V16.0708Z" fill="#131313"/>
<path d="M129.615 17.6924C129.615 15.4592 127.799 14.8854 126.34 14.4222C125.421 14.1311 124.627 13.8803 124.627 13.2917C124.627 12.8859 124.965 12.633 125.51 12.633C125.834 12.6269 126.149 12.7395 126.396 12.9496L126.508 13.0601L128.3 11.2943L128.184 11.1796C127.838 10.847 127.43 10.5874 126.982 10.4162C126.535 10.245 126.057 10.1657 125.578 10.183C123.429 10.183 122.043 11.4303 122.043 13.3597C122.043 15.661 123.814 16.1221 125.238 16.5025C126.239 16.766 127.031 16.9742 127.031 17.6924C127.031 18.3065 126.451 18.7358 125.625 18.7358C124.799 18.7358 124.287 18.3108 124.287 17.6478V17.4884H121.633V17.6478C121.633 19.6984 123.31 21.1858 125.623 21.1858C127.935 21.1858 129.615 19.7175 129.615 17.6924Z" fill="#131313"/>
<path d="M38.0801 9.62355V12.6643H42.6136V15.3481H38.0992V20.824H35.3408V6.86328H42.8918V9.62355H38.0801Z" fill="#131313"/>
<path d="M60.0317 15.6412C60.0317 12.2094 58.1206 10.0781 55.0246 10.0781C51.8713 10.0781 49.5801 12.322 49.5801 15.4117C49.5801 18.6734 51.8904 21.1362 54.9566 21.1362C55.7614 21.1406 56.5586 20.9807 57.2994 20.6661C58.0403 20.3515 58.7092 19.8889 59.2651 19.3066L59.3416 19.2259L57.4305 17.5387L57.3604 17.6216C57.0714 17.9803 56.705 18.2689 56.2887 18.4657C55.8725 18.6626 55.4171 18.7627 54.9566 18.7584C53.5297 18.7584 52.4765 17.8383 52.2068 16.3594L52.1664 16.1469H60.0232L60.0317 15.6412ZM52.3873 13.8307L52.4637 13.6905C52.9372 12.8788 53.8036 12.4325 54.9014 12.4325C56.063 12.4325 56.9527 12.9638 57.2648 13.8307H52.3873Z" fill="#131313"/>
<path d="M65.06 14.4243C64.1406 14.1331 63.3464 13.8824 63.3464 13.2917C63.3464 12.8858 63.6862 12.633 64.2319 12.633C64.5558 12.6268 64.8707 12.7394 65.1174 12.9496L65.2278 13.0622L67.02 11.2943L66.9032 11.1816C66.5586 10.8487 66.1504 10.5887 65.7031 10.4171C65.2558 10.2455 64.7786 10.1658 64.2999 10.1829C62.1509 10.1829 60.7622 11.4303 60.7622 13.3597C60.7622 15.661 62.5353 16.1221 63.958 16.5024C64.9602 16.7659 65.7502 16.9742 65.7502 17.6924C65.7502 18.3065 65.1726 18.7357 64.3444 18.7357C63.5163 18.7357 63.0067 18.3107 63.0067 17.6478V17.4884H60.3545V17.6478C60.3545 19.6983 62.032 21.1879 64.3444 21.1879C66.6569 21.1879 68.3344 19.7174 68.3344 17.6924C68.3344 15.4591 66.5188 14.8854 65.06 14.4243Z" fill="#131313"/>
</g>
<defs>
<clipPath id="clip0_1657_3743">
<rect width="129.231" height="28" fill="white" transform="translate(0.384277)"/>
</clipPath>
</defs>
</svg>
