<svg width="122" height="28" viewBox="0 0 122 28" fill="none" xmlns="http://www.w3.org/2000/svg">
<g clip-path="url(#clip0_1657_3805)">
<path d="M2.68168 28.0002H8.63359V13.6002L0.130859 7.2002V25.4502C0.130859 26.8502 1.28123 28.0002 2.68168 28.0002Z" fill="#4285F4"/>
<path d="M28.9902 28.0002H34.9421C36.3426 28.0002 37.493 26.8502 37.493 25.4502V7.2002L28.9902 13.5502" fill="#34A853"/>
<path d="M28.9902 2.55004V13.6L37.493 7.25004V3.80004C37.493 0.65004 33.8918 -1.14996 31.391 0.75004" fill="#FBBC04"/>
<path d="M8.63379 13.5998V2.5498L18.8371 10.1998L28.9903 2.5498V13.5998L18.7871 21.1998" fill="#EA4335"/>
<path d="M0.130859 3.80006V7.20006L8.63359 13.5501V2.55006L6.23282 0.750061C3.73202 -1.09994 0.130859 0.700061 0.130859 3.80006Z" fill="#C5221F"/>
<path d="M72.9041 15.2996C72.9041 18.0496 72.1038 20.2996 70.4533 21.9496C68.6027 23.8996 66.1519 24.8996 63.151 24.8996C60.25 24.8996 57.8493 23.8996 55.8486 21.8996C53.848 19.8996 52.8477 17.4496 52.8477 14.4996C52.8477 11.5996 53.848 9.09961 55.8486 7.09961C57.8493 5.09961 60.3001 4.09961 63.151 4.09961C64.6014 4.09961 66.0019 4.34961 67.3023 4.89961C68.6027 5.39961 69.6531 6.14961 70.5033 7.09961L68.6527 8.94961C68.0525 8.19961 67.2523 7.64961 66.302 7.19961C65.3517 6.79961 64.3013 6.59961 63.201 6.59961C61.0503 6.59961 59.1997 7.34961 57.6992 8.84961C56.1987 10.3496 55.4985 12.2496 55.4985 14.5496C55.4985 16.8496 56.2487 18.6996 57.6992 20.2496C59.1997 21.7496 61.0503 22.4996 63.201 22.4996C65.2016 22.4996 66.8021 21.9496 68.1526 20.8496C69.453 19.7496 70.2032 18.1996 70.4033 16.2496H63.151V13.8496H72.7541C72.8541 14.2996 72.9041 14.7996 72.9041 15.2996Z" fill="#131313"/>
<path d="M78.1055 24.3994H75.5547V10.7994H78.0055V12.6994H78.1055C78.5056 12.0494 79.1058 11.4994 79.9061 11.0494C80.7063 10.5994 81.5066 10.3994 82.3069 10.3994C83.3072 10.3994 84.2075 10.6494 84.9577 11.0994C85.708 11.5494 86.2581 12.1994 86.6082 12.9994C87.7586 11.2494 89.3091 10.3994 91.3098 10.3994C92.8603 10.3994 94.1107 10.8994 94.9609 11.8494C95.8112 12.7994 96.2613 14.1994 96.2613 15.9494V24.4494H93.6605V16.2994C93.6605 14.9994 93.4104 14.0994 92.9603 13.5494C92.5101 12.9994 91.7099 12.6994 90.6095 12.6994C89.6092 12.6994 88.8089 13.0994 88.1587 13.9494C87.5085 14.7994 87.1584 15.7494 87.1584 16.8994V24.3994H84.6076V16.2994C84.6076 14.9994 84.3575 14.0994 83.9074 13.5494C83.4572 12.9994 82.657 12.6994 81.5566 12.6994C80.5563 12.6994 79.756 13.0994 79.1058 13.9494C78.4556 14.7994 78.1055 15.7494 78.1055 16.8994V24.3994Z" fill="#131313"/>
<path d="M104.214 10.3496C106.115 10.3496 107.565 10.8496 108.666 11.8496C109.766 12.8496 110.316 14.2496 110.316 15.9996V24.3996H107.866V22.4996H107.766C106.715 24.0496 105.315 24.8496 103.564 24.8496C102.064 24.8496 100.813 24.3996 99.813 23.4996C98.8127 22.5996 98.3125 21.4996 98.3125 20.1496C98.3125 18.7496 98.8627 17.6496 99.913 16.7996C100.963 15.9496 102.414 15.5496 104.164 15.5496C105.665 15.5496 106.915 15.8496 107.916 16.3996V15.7996C107.916 14.8996 107.565 14.1496 106.865 13.5496C106.165 12.9496 105.315 12.5996 104.414 12.5996C103.014 12.5996 101.864 13.1996 101.013 14.3996L98.7626 12.9996C99.963 11.2496 101.814 10.3496 104.214 10.3496ZM100.913 20.2496C100.913 20.8996 101.213 21.4496 101.764 21.8996C102.314 22.3496 102.964 22.5496 103.764 22.5496C104.815 22.5496 105.815 22.1496 106.615 21.3496C107.465 20.5496 107.866 19.5996 107.866 18.5496C107.065 17.8996 105.965 17.5996 104.514 17.5996C103.464 17.5996 102.614 17.8496 101.914 18.3496C101.263 18.8996 100.913 19.4996 100.913 20.2496Z" fill="#131313"/>
<path d="M116.518 6.1498C116.518 6.6498 116.318 7.0498 115.967 7.4498C115.617 7.7998 115.167 7.9998 114.667 7.9998C114.167 7.9998 113.767 7.7998 113.367 7.4498C113.016 7.0998 112.816 6.6498 112.816 6.1498C112.816 5.6498 113.016 5.2498 113.367 4.8498C113.717 4.4998 114.167 4.2998 114.667 4.2998C115.167 4.2998 115.567 4.4998 115.967 4.8498C116.318 5.1998 116.518 5.6498 116.518 6.1498ZM115.967 10.7998V24.3998H113.417V10.7998H115.967Z" fill="#131313"/>
<path d="M121.87 4.5498V24.3998H119.319V4.5498H121.87Z" fill="#131313"/>
</g>
<defs>
<clipPath id="clip0_1657_3805">
<rect width="121.739" height="28" fill="white" transform="translate(0.130859)"/>
</clipPath>
</defs>
</svg>
