<svg width="131" height="26" viewBox="0 0 131 26" fill="none" xmlns="http://www.w3.org/2000/svg">
<g clip-path="url(#clip0_1657_3801)">
<path fill-rule="evenodd" clip-rule="evenodd" d="M130.601 9.62813H126.397V5.28125H123.213V9.66875H123.05C121.743 9.66875 120.764 10.6031 120.764 11.9031V12.5531H123.254V21.3281C123.254 24.0906 124.805 25.5938 127.58 25.5938H130.641V22.6687H128.029C127.009 22.6687 126.437 22.1 126.437 21.0437V12.5125H128.07C129.05 12.5125 129.621 12.2688 130.07 11.7812C130.396 11.4156 130.641 10.8469 130.641 10.2375V9.62813H130.601ZM112.641 16.0063C111.417 15.925 110.723 15.2344 110.723 14.1781C110.723 12.8781 111.907 12.025 113.825 12.025C115.499 12.025 116.764 12.8781 116.968 14.1375H120.111C119.907 11.1719 117.417 9.22188 113.825 9.22188C110.111 9.22188 107.662 11.2125 107.662 14.3C107.662 17.0625 109.335 18.6875 112.315 18.85L115.376 19.0531C116.805 19.1344 117.458 19.825 117.458 20.9219C117.458 22.2625 116.233 23.1562 114.152 23.1562C112.152 23.1562 110.682 22.1812 110.478 20.7594H107.294C107.499 23.8875 110.233 25.9187 114.192 25.9187C118.029 25.9187 120.478 23.8875 120.478 20.7594C120.478 17.9562 118.764 16.3313 115.662 16.1281L112.641 16.0063ZM95.0087 16.7375C94.6822 17.1031 94.4373 17.55 94.3557 18.1187V17.6313C94.3557 14.3813 96.1924 12.1062 98.8455 12.1062C101.009 12.1062 102.56 13.6094 102.968 15.9656H97.2128C96.1108 15.9656 95.4577 16.25 95.0087 16.7375ZM106.233 17.8344C106.233 12.7563 103.703 9.2625 98.8455 9.2625C94.3149 9.2625 91.2128 12.675 91.2128 17.6313C91.2128 22.4656 94.274 26 99.0496 26C102.764 26 105.458 23.9688 105.988 20.8406H102.886C102.396 22.2625 100.845 23.1562 99.0496 23.1562C96.274 23.1562 94.6822 21.2875 94.3557 18.6469H106.192V17.8344H106.233ZM84.1924 22.2625L80.07 9.62813H76.6414L82.1108 25.5938H86.1108L91.621 9.62813H88.3557L84.1924 22.2625ZM72.723 9.62813C71.3761 9.62813 70.8047 9.83125 70.3557 10.2375C69.8251 10.725 69.4985 11.375 69.3761 12.0656V9.62813H66.1924V25.5938H69.3761V12.7969H72.8455C74.2741 12.7969 74.8863 12.4719 75.3353 11.9844C75.6618 11.5781 75.9067 11.05 75.9067 10.4406V9.62813H72.723ZM56.3557 23.2781C54.5598 23.2781 53.4577 22.3438 53.4577 20.8813C53.4577 19.4594 54.5598 18.525 56.3149 18.525H60.5598V20.8813C59.4985 22.4656 58.1516 23.2781 56.3557 23.2781ZM57.4169 9.2625C53.4577 9.2625 50.8455 11.4969 50.6822 14.8687H53.8251C54.0292 13.2031 55.3761 12.1062 57.2945 12.1062C59.2536 12.1062 60.519 13.325 60.519 15.1938V17.9969C60.0292 16.7781 58.3557 15.925 56.2741 15.925C52.6822 15.925 50.3149 17.9563 50.3149 21.0844C50.3149 23.8875 52.2332 25.9187 55.4985 25.9187C57.8659 25.9187 59.7434 24.9031 60.5598 22.9531V25.6344H63.6618V14.8281C63.6618 11.4563 61.2128 9.2625 57.4169 9.2625ZM43.0904 9.2625C40.6006 9.2625 38.8047 10.3594 38.0292 12.3094V3.49375H34.8455V25.6344H38.0292V13C39.2945 12.5125 40.3965 12.2688 41.4985 12.2688C43.9883 12.2688 45.2536 13.325 45.2536 15.5594V25.5938H48.4373V14.8281C48.4373 11.2125 46.4373 9.2625 43.0904 9.2625ZM11.7026 16.0469V25.6344H10.1108V11.2125C10.1108 10.3188 10.8455 9.62813 11.7026 9.62813H16.4373V14.4219C16.4373 15.3156 15.7434 16.0469 14.8863 16.0469H11.7026ZM25.9475 0V24.0094C25.9475 24.9031 25.2128 25.6344 24.3557 25.6344H22.8047V1.58438C22.8047 0.690625 23.4985 0 24.3557 0H25.9475ZM19.621 0H21.172V24.0094C21.172 24.9031 20.4373 25.6344 19.621 25.6344H18.0292V8.00313C18.0292 7.10938 18.7638 6.41875 19.621 6.41875V0ZM6.92712 25.6344H5.3761V1.58438C5.3761 0.690625 6.06997 0 6.92712 0H8.51895V17.5906C8.51895 18.4844 7.78426 19.2156 6.92712 19.2156V25.6344ZM0.600586 25.6344V1.58438C0.600586 0.690625 1.33528 0 2.19242 0H3.74344V24.0094C3.74344 24.9031 3.04957 25.6344 2.19242 25.6344H0.600586Z" fill="#FA5D00"/>
</g>
<defs>
<clipPath id="clip0_1657_3801">
<rect width="130" height="26" fill="white" transform="translate(0.600586)"/>
</clipPath>
</defs>
</svg>
