<svg width="132" height="30" viewBox="0 0 132 30" fill="none" xmlns="http://www.w3.org/2000/svg">
<g clip-path="url(#clip0_1657_3826)">
<path d="M45.362 25.9671V20.5569H47.2648V19.8291H42.6787V20.5569H44.5728V25.9671H45.362Z" fill="#131313"/>
<path d="M49.3197 25.9671V23.6611C49.3197 22.8982 49.8545 22.3545 50.556 22.3545C51.1874 22.3545 51.6433 22.8104 51.6433 23.4944V25.9671H52.3536V23.4944C52.3536 22.3895 51.6434 21.6706 50.6787 21.6706C50.0124 21.6706 49.5214 22.0827 49.3283 22.3983H49.3197V19.8291H48.6006V25.9671H49.3197Z" fill="#131313"/>
<path d="M55.9325 26.0552C56.8094 26.0552 57.3969 25.6168 57.6863 25.2397L57.204 24.7925C56.9497 25.0643 56.5551 25.3713 55.9676 25.3713C55.2047 25.3713 54.6172 24.8101 54.5296 24.1262H57.8792C57.888 24.0559 57.9055 23.9244 57.9055 23.7754C57.9055 22.5477 57.0287 21.6709 55.8887 21.6709C54.74 21.6709 53.7842 22.6179 53.7842 23.863C53.7842 25.0906 54.7488 26.0552 55.9325 26.0552ZM54.5208 23.5298C54.6435 22.8546 55.1609 22.3285 55.8887 22.3285C56.5902 22.3285 57.055 22.8108 57.1689 23.5298H54.5208Z" fill="#131313"/>
<path d="M66.4039 25.9671V25.2394H62.8351V23.1437H65.6148V22.4158H62.8351V20.5569H66.3163V19.8291H62.0459V25.9671H66.4039Z" fill="#131313"/>
<path d="M68.6781 25.9675V23.6614C68.6781 22.8985 69.2129 22.3548 69.9144 22.3548C70.5457 22.3548 71.0017 22.8108 71.0017 23.4947V25.9675H71.712V23.4947C71.712 22.3898 71.0017 21.6709 70.0371 21.6709C69.3707 21.6709 68.8796 22.083 68.6867 22.3987H68.6781V21.7585H67.959V25.9675H68.6781Z" fill="#131313"/>
<path d="M75.1174 27.8089C76.3364 27.8089 77.1956 26.8883 77.1956 25.6431V21.7585H76.4766V22.3987H76.4678C76.2749 22.0918 75.7489 21.6709 75.0473 21.6709C74.0214 21.6709 73.1445 22.5477 73.1445 23.7754C73.1445 25.003 74.0214 25.8798 75.0473 25.8798C75.6699 25.8798 76.2136 25.5467 76.4678 25.1521H76.4766V25.6431C76.4766 26.52 75.9418 27.125 75.1174 27.125C74.5299 27.125 74.0126 26.748 73.8197 26.4673L73.3111 26.9321C73.5655 27.3092 74.2757 27.8089 75.1174 27.8089ZM75.1612 25.1959C74.451 25.1959 73.8635 24.6084 73.8635 23.7754C73.8635 22.9423 74.451 22.3548 75.1612 22.3548C75.8978 22.3548 76.4766 22.9423 76.4766 23.7754C76.4766 24.6084 75.8978 25.1959 75.1612 25.1959Z" fill="#131313"/>
<path d="M80.5103 21.6709C79.7475 21.6709 79.2125 22.0918 78.9057 22.4601L79.3704 22.9072C79.6334 22.6179 79.993 22.3285 80.5103 22.3285C81.0891 22.3285 81.4924 22.7231 81.4924 23.258V23.2755L80.0017 23.521C79.1512 23.6614 78.6689 24.1525 78.6689 24.8451C78.6689 25.4852 79.2476 26.0552 80.0895 26.0552C80.7909 26.0552 81.3171 25.6431 81.51 25.3275H81.5187V25.9675H82.2114V23.3106C82.2114 22.3548 81.5187 21.6709 80.5103 21.6709ZM80.1946 25.4239C79.6949 25.4239 79.3879 25.1258 79.3879 24.7838C79.3879 24.4593 79.6334 24.1875 80.1771 24.091L81.4924 23.863V24.0998C81.4924 24.8539 80.9225 25.4239 80.1946 25.4239Z" fill="#131313"/>
<path d="M85.6098 27.8089C86.8286 27.8089 87.6879 26.8883 87.6879 25.6431V21.7585H86.9688V22.3987H86.9601C86.7673 22.0918 86.2411 21.6709 85.5396 21.6709C84.5136 21.6709 83.6367 22.5477 83.6367 23.7754C83.6367 25.003 84.5136 25.8798 85.5396 25.8798C86.1621 25.8798 86.7058 25.5467 86.9601 25.1521H86.9688V25.6431C86.9688 26.52 86.434 27.125 85.6098 27.125C85.0223 27.125 84.5049 26.748 84.312 26.4673L83.8033 26.9321C84.0576 27.3092 84.7679 27.8089 85.6098 27.8089ZM85.6536 25.1959C84.9433 25.1959 84.3558 24.6084 84.3558 23.7754C84.3558 22.9423 84.9433 22.3548 85.6536 22.3548C86.3901 22.3548 86.9688 22.9423 86.9688 23.7754C86.9688 24.6084 86.3901 25.1959 85.6536 25.1959Z" fill="#131313"/>
<path d="M91.3104 26.0552C92.1874 26.0552 92.7749 25.6168 93.0642 25.2397L92.582 24.7925C92.3276 25.0643 91.933 25.3713 91.3455 25.3713C90.5826 25.3713 89.9951 24.8101 89.9075 24.1262H93.2571C93.2659 24.0559 93.2834 23.9244 93.2834 23.7754C93.2834 22.5477 92.4066 21.6709 91.2666 21.6709C90.1179 21.6709 89.1621 22.6179 89.1621 23.863C89.1621 25.0906 90.1267 26.0552 91.3104 26.0552ZM89.8987 23.5298C90.0214 22.8546 90.5388 22.3285 91.2666 22.3285C91.9682 22.3285 92.4329 22.8108 92.5468 23.5298H89.8987Z" fill="#131313"/>
<path d="M95.4388 25.9675V23.6263C95.4388 22.8371 95.921 22.3548 96.5349 22.3548C97.0697 22.3548 97.5081 22.767 97.5081 23.4684V25.9675H98.2272V23.6263C98.2272 22.8371 98.7095 22.3548 99.3233 22.3548C99.867 22.3548 100.305 22.767 100.305 23.4684V25.9675H101.016V23.4684C101.016 22.3723 100.314 21.6709 99.4724 21.6709C98.692 21.6709 98.1921 22.1181 98.0343 22.4513H98.0168C97.8501 22.1181 97.3679 21.6709 96.6751 21.6709C96.035 21.6709 95.5966 22.0742 95.4475 22.3812H95.4388V21.7585H94.7197V25.9675H95.4388Z" fill="#131313"/>
<path d="M104.596 26.0552C105.472 26.0552 106.06 25.6168 106.349 25.2397L105.867 24.7925C105.613 25.0643 105.218 25.3713 104.631 25.3713C103.868 25.3713 103.28 24.8101 103.193 24.1262H106.542C106.551 24.0559 106.569 23.9244 106.569 23.7754C106.569 22.5477 105.692 21.6709 104.552 21.6709C103.403 21.6709 102.447 22.6179 102.447 23.863C102.447 25.0906 103.412 26.0552 104.596 26.0552ZM103.184 23.5298C103.307 22.8546 103.824 22.3285 104.552 22.3285C105.253 22.3285 105.718 22.8108 105.832 23.5298H103.184Z" fill="#131313"/>
<path d="M108.723 25.9675V23.6614C108.723 22.8985 109.258 22.3548 109.959 22.3548C110.591 22.3548 111.047 22.8108 111.047 23.4947V25.9675H111.757V23.4947C111.757 22.3898 111.047 21.6709 110.082 21.6709C109.416 21.6709 108.925 22.083 108.732 22.3987H108.723V21.7585H108.004V25.9675H108.723Z" fill="#131313"/>
<path d="M114.989 26.0114C115.26 26.0114 115.506 25.9324 115.62 25.8798V25.1959C115.515 25.2485 115.313 25.3274 115.111 25.3274C114.717 25.3274 114.48 25.0906 114.48 24.6347V22.4424H115.506V21.7585H114.48V20.3555H113.84V21.3201C113.84 21.627 113.708 21.7585 113.472 21.7585H112.963V22.4424H113.761V24.696C113.761 25.5553 114.217 26.0114 114.989 26.0114Z" fill="#131313"/>
<path d="M122.373 26.0548C124.171 26.0548 125.574 24.6517 125.574 22.8981C125.574 21.1442 124.171 19.7412 122.373 19.7412C120.576 19.7412 119.173 21.1442 119.173 22.8981C119.173 24.6517 120.576 26.0548 122.373 26.0548ZM122.373 25.327C121.023 25.327 119.962 24.2571 119.962 22.8981C119.962 21.5388 121.023 20.4691 122.373 20.4691C123.715 20.4691 124.785 21.5388 124.785 22.8981C124.785 24.2571 123.715 25.327 122.373 25.327Z" fill="#131313"/>
<path d="M129.061 26.0548C130.386 26.0548 131.192 25.2481 131.192 24.2834C131.192 22.065 127.886 22.8804 127.886 21.4249C127.886 20.9075 128.325 20.4691 129.149 20.4691C129.772 20.4691 130.236 20.7936 130.482 21.0303L131.017 20.5129C130.692 20.1709 130.035 19.7412 129.149 19.7412C127.878 19.7412 127.097 20.5129 127.097 21.4249C127.097 23.6433 130.403 22.8279 130.403 24.2834C130.403 24.8534 129.938 25.327 129.061 25.327C128.281 25.327 127.764 24.9411 127.466 24.6079L126.922 25.134C127.273 25.5549 128.018 26.0548 129.061 26.0548Z" fill="#131313"/>
<path d="M26.0533 16.5083C26.0533 16.7758 25.9479 17.0322 25.7603 17.2213C25.5727 17.4104 25.3182 17.5167 25.0528 17.5167C24.7874 17.5167 24.5329 17.4104 24.3453 17.2213C24.1577 17.0322 24.0523 16.7758 24.0523 16.5083V7.50004C24.0523 7.23262 24.1577 6.97614 24.3453 6.78705C24.5329 6.59795 24.7874 6.49171 25.0528 6.49171C25.3182 6.49171 25.5727 6.59795 25.7603 6.78705C25.9479 6.97614 26.0533 7.23262 26.0533 7.50004V16.5083ZM25.706 22.75C25.5737 22.8833 21.8529 26.0083 15.0315 26.0083C8.21008 26.0083 4.51409 22.9 4.357 22.7666C4.258 22.6825 4.17644 22.5795 4.11702 22.4636C4.0576 22.3475 4.02147 22.2209 4.01072 22.0908C3.99997 21.9608 4.01479 21.8299 4.05435 21.7055C4.0939 21.5813 4.15742 21.4661 4.24123 21.3666C4.41392 21.1653 4.65859 21.0409 4.9219 21.0205C5.18522 21.0003 5.44581 21.0858 5.64686 21.2583C5.70475 21.3 9.02864 24.0166 15.0232 24.0166C21.0178 24.0166 24.3665 21.2833 24.3997 21.2583C24.6029 21.0872 24.8644 21.0029 25.1283 21.0232C25.3924 21.0434 25.6382 21.1666 25.8135 21.3666C25.9822 21.565 26.0664 21.8225 26.0478 22.083C26.0293 22.3436 25.9094 22.5863 25.7143 22.7583L25.706 22.75ZM4.00146 7.50004C4.0164 7.23178 4.13613 6.98037 4.33444 6.8008C4.53276 6.62122 4.79355 6.52808 5.05981 6.54171C5.30664 6.55584 5.53955 6.66158 5.7136 6.83854C5.88767 7.0155 5.99055 7.25116 6.0024 7.50004V16.4917C6.0024 16.7591 5.897 17.0155 5.70938 17.2046C5.52175 17.3938 5.26727 17.5 5.00193 17.5C4.73659 17.5 4.48211 17.3938 4.29448 17.2046C4.10686 17.0155 4.00146 16.7591 4.00146 16.4917V7.50004ZM9.02038 5.50005C9.03533 5.23178 9.15505 4.98038 9.35336 4.80082C9.55168 4.62124 9.81247 4.52809 10.0787 4.54172C10.3256 4.55586 10.5585 4.66159 10.7325 4.83855C10.9066 5.01551 11.0095 5.25116 11.0213 5.50005V18.8333C11.0213 19.1008 10.9159 19.3572 10.7283 19.5463C10.5407 19.7354 10.2862 19.8416 10.0209 19.8416C9.75551 19.8416 9.50104 19.7354 9.3134 19.5463C9.12579 19.3572 9.02038 19.1008 9.02038 18.8333V5.50005ZM14.0641 5.00005C14.0641 4.73263 14.1695 4.47616 14.3572 4.28707C14.5448 4.09796 14.7993 3.99172 15.0645 3.99172C15.3299 3.99172 15.5844 4.09796 15.772 4.28707C15.9597 4.47616 16.065 4.73263 16.065 5.00005V19.5C16.065 19.7674 15.9597 20.0238 15.772 20.213C15.5844 20.4021 15.3299 20.5083 15.0645 20.5083C14.7993 20.5083 14.5448 20.4021 14.3572 20.213C14.1695 20.0238 14.0641 19.7674 14.0641 19.5V5.00005ZM19.0252 5.50005C19.0252 5.23263 19.1306 4.97616 19.3182 4.78705C19.5058 4.59796 19.7603 4.49172 20.0256 4.49172C20.291 4.49172 20.5454 4.59796 20.7331 4.78705C20.9207 4.97616 21.0261 5.23263 21.0261 5.50005V18.8333C21.0261 19.1008 20.9207 19.3572 20.7331 19.5463C20.5454 19.7354 20.291 19.8416 20.0256 19.8416C19.7603 19.8416 19.5058 19.7354 19.3182 19.5463C19.1306 19.3572 19.0252 19.1008 19.0252 18.8333V5.50005ZM26.3261 8.32148e-05H3.76993C3.27844 -0.00320934 2.79114 0.0912358 2.33593 0.278011C1.88071 0.464786 1.46651 0.740224 1.11705 1.08855C0.767597 1.43688 0.489744 1.85125 0.299405 2.30796C0.109065 2.76466 0.00997641 3.25471 0.0078125 3.75007V26.25C0.00997641 26.7453 0.109065 27.2354 0.299405 27.6921C0.489744 28.1487 0.767597 28.5632 1.11705 28.9114C1.46651 29.2597 1.88071 29.5353 2.33593 29.722C2.79114 29.9088 3.27844 30.0032 3.76993 29.9999H26.3261C26.8169 30.0032 27.3036 29.9091 27.7582 29.7228C28.2129 29.5366 28.6268 29.2618 28.9761 28.9143C29.3254 28.567 29.6035 28.1536 29.7943 27.6978C29.9852 27.2421 30.085 26.7529 30.0882 26.2583V3.75007C30.0861 3.25542 29.9873 2.76605 29.7974 2.30989C29.6077 1.85374 29.3306 1.43974 28.9819 1.09151C28.6333 0.743293 28.2202 0.467682 27.7658 0.280414C27.3116 0.0931463 26.8252 -0.00211032 26.3344 8.32148e-05" fill="#131313"/>
<path d="M45.153 4.94797C45.153 4.32212 44.6703 3.80859 43.9945 3.80859C43.3187 3.80859 42.8359 4.32212 42.8359 4.94797V14.1914C42.8359 14.8172 43.3187 15.3308 43.9945 15.3308C44.6863 15.3308 45.153 14.8172 45.153 14.1914V4.94797Z" fill="#131313"/>
<path d="M56.562 3.80859C55.8862 3.80859 55.4195 4.32212 55.4195 4.94798V8.89569L55.4838 12.4262L54.084 9.12036L52.2496 5.36521C51.6865 4.19374 51.0428 3.80859 50.1257 3.80859C48.7741 3.80859 48.1787 4.65912 48.1787 5.87874V14.1914C48.1787 14.8172 48.6453 15.3308 49.3212 15.3308C49.997 15.3308 50.4636 14.8172 50.4636 14.1914L50.4475 10.2918L50.3992 6.29598L51.8957 9.95483L53.7461 13.7742C54.3254 14.9938 54.9369 15.3468 55.87 15.3468C57.0769 15.3468 57.7044 14.6087 57.7044 13.2446V4.94798C57.7044 4.32212 57.2378 3.80859 56.562 3.80859Z" fill="#131313"/>
<path d="M66.2468 6.16769L68.8696 6.23189C69.4811 6.24793 69.9638 5.78255 69.9638 5.10855C69.9638 4.43456 69.4811 3.96918 68.8696 3.96918L61.2747 3.95312C60.6795 3.95312 60.1807 4.41851 60.1807 5.09251C60.1807 5.76651 60.6795 6.23189 61.2747 6.21584L63.9137 6.16769V14.1915C63.9137 14.8173 64.3963 15.3309 65.0722 15.3309C65.7641 15.3309 66.2468 14.8173 66.2468 14.1915V6.16769Z" fill="#131313"/>
<path d="M74.0227 15.1858H79.6705C80.2659 15.1858 80.7486 14.7365 80.7486 14.1107C80.7486 13.4687 80.2659 13.0195 79.6705 13.0195L74.7628 13.0355V10.3556H79.0107C79.5901 10.3556 80.0567 9.92229 80.0567 9.32852C80.0567 8.71871 79.5901 8.28543 79.0107 8.28543L74.7628 8.31752V6.10296H79.6705C80.2659 6.10296 80.7486 5.65362 80.7486 5.01172C80.7486 4.36981 80.2659 3.93652 79.6705 3.93652L74.0388 3.95258C73.0089 3.95258 72.4297 4.53029 72.4297 5.55734V13.5811C72.4297 14.6082 73.0089 15.1858 74.0227 15.1858Z" fill="#131313"/>
<path d="M89.9478 10.6129C91.4764 10.2117 92.3776 9.02416 92.3776 7.45151C92.3776 5.70231 91.2351 3.95312 88.4997 3.95312H84.9597C83.9299 3.95312 83.3506 4.53084 83.3506 5.55789V14.1915C83.3506 14.8173 83.8333 15.3309 84.5414 15.3309C85.2332 15.3309 85.732 14.8173 85.732 14.1915L85.716 11.1745H87.663L89.642 14.737C89.9639 15.2827 90.6397 15.5074 91.2673 15.1864C91.8948 14.8494 92.0718 14.1755 91.7339 13.6298L89.9478 10.6129ZM85.716 6.08745H88.5157C89.4651 6.08745 90.0605 6.68122 90.0605 7.56384C90.0605 8.4304 89.4973 9.07231 88.548 9.07231H85.716V6.08745Z" fill="#131313"/>
<path d="M99.4846 15.3954C101.834 15.3954 103.346 14.3362 103.861 12.6191C104.135 11.6402 103.556 10.9341 102.687 10.9341C102.156 10.9341 101.802 11.207 101.592 11.8007C101.271 12.6994 100.482 13.261 99.3559 13.261C97.5698 13.261 96.7975 12.0575 96.7975 9.55405C96.7975 7.09877 97.5859 5.9273 99.3559 5.9273C100.466 5.9273 101.11 6.39268 101.512 7.46786C101.737 8.07768 102.107 8.35048 102.654 8.35048C103.491 8.35048 104.103 7.67648 103.845 6.74572C103.33 4.85211 101.834 3.79297 99.4202 3.79297C96.1056 3.79297 94.416 5.81497 94.416 9.55405C94.416 13.3253 96.1056 15.3954 99.4846 15.3954Z" fill="#131313"/>
<path d="M110.924 15.363C114.336 15.363 116.025 13.2768 116.025 9.55379C116.025 5.79866 114.287 3.72852 110.924 3.72852C107.546 3.72852 105.856 5.83075 105.84 9.55379C105.84 13.2929 107.562 15.363 110.924 15.363ZM110.924 13.2126C109.026 13.2126 108.205 12.0091 108.205 9.55379C108.205 7.06642 109.042 5.86284 110.908 5.86284C112.791 5.86284 113.676 7.06642 113.66 9.55379C113.66 12.0251 112.823 13.2126 110.924 13.2126Z" fill="#131313"/>
<path d="M131.004 5.81497C131.004 4.54721 130.216 3.79297 128.993 3.79297C127.995 3.79297 127.239 4.33859 126.869 5.5903L125.63 9.61824L124.809 12.5229L124.021 9.61824L122.701 5.5903C122.331 4.41882 121.688 3.79297 120.561 3.79297C119.322 3.79297 118.55 4.53115 118.55 5.81497V14.1918C118.55 14.8176 119 15.3312 119.66 15.3312C120.32 15.3312 120.77 14.8176 120.77 14.1918L120.754 10.1478L120.642 5.81497L121.913 10.2441L123.264 14.1597C123.554 15.0263 124.101 15.3151 124.809 15.3151C125.469 15.3151 126 15.0745 126.273 14.1918L127.561 10.2441L128.928 5.78286L128.8 10.1478V14.1918C128.8 14.8176 129.266 15.3312 129.91 15.3312C130.57 15.3312 131.02 14.8176 131.02 14.1918L131.004 5.81497Z" fill="#131313"/>
</g>
<defs>
<clipPath id="clip0_1657_3826">
<rect width="131.184" height="30" fill="white" transform="translate(0.0078125)"/>
</clipPath>
</defs>
</svg>
