<svg width="151" height="32" viewBox="0 0 151 32" fill="none" xmlns="http://www.w3.org/2000/svg">
<g clip-path="url(#clip0_1657_3758)">
<path d="M11.5944 1.45801L11.4306 1.56694C11.1576 1.73033 10.9392 1.89372 10.7207 2.05712L11.1576 1.73033H14.9799L15.6898 6.9589L12.1951 10.4446L8.70035 12.841V15.6187C8.70035 17.5794 9.73785 19.3768 11.376 20.3571L15.0345 22.5902L7.28062 27.1107H5.86089L3.07604 25.4223C1.43789 24.4419 0.400391 22.6446 0.400391 20.6839V11.316C0.400391 9.35533 1.43789 7.55801 3.07604 6.57765L11.4306 1.56694C11.4852 1.51247 11.5398 1.51247 11.5944 1.45801Z" fill="url(#paint0_radial_1657_3758)"/>
<path d="M11.5944 1.45801L11.4306 1.56694C11.1576 1.73033 10.9392 1.89372 10.7207 2.05712L11.1576 1.73033H14.9799L15.6898 6.9589L12.1951 10.4446L8.70035 12.841V15.6187C8.70035 17.5794 9.73785 19.3768 11.376 20.3571L15.0345 22.5902L7.28062 27.1107H5.86089L3.07604 25.4223C1.43789 24.4419 0.400391 22.6446 0.400391 20.6839V11.316C0.400391 9.35533 1.43789 7.55801 3.07604 6.57765L11.4306 1.56694C11.4852 1.51247 11.5398 1.51247 11.5944 1.45801Z" fill="url(#paint1_linear_1657_3758)"/>
<path d="M19.8402 12.5146V15.6191C19.8402 17.5798 18.8027 19.3771 17.1645 20.3575L8.80995 25.3682C7.11719 26.403 4.98759 26.4575 3.24023 25.4771L11.3764 30.3789C13.1237 31.4682 15.3625 31.4682 17.1099 30.3789L25.5191 25.4227C27.1572 24.4423 28.1947 22.645 28.1947 20.6843V18.4513L27.4849 17.4164L19.8402 12.5146Z" fill="url(#paint2_radial_1657_3758)"/>
<path d="M19.8402 12.5146V15.6191C19.8402 17.5798 18.8027 19.3771 17.1645 20.3575L8.80995 25.3682C7.11719 26.403 4.98759 26.4575 3.24023 25.4771L11.3764 30.3789C13.1237 31.4682 15.3625 31.4682 17.1099 30.3789L25.5191 25.4227C27.1572 24.4423 28.1947 22.645 28.1947 20.6843V18.4513L27.4849 17.4164L19.8402 12.5146Z" fill="url(#paint3_linear_1657_3758)"/>
<path d="M25.5186 6.57797L17.1641 1.56726C15.4713 0.532436 13.3417 0.477971 11.5943 1.45833L11.4305 1.56726C9.79238 2.54761 8.75488 4.34494 8.75488 6.30565V12.8958L11.4305 11.2619C13.1779 10.1726 15.4167 10.1726 17.1641 11.2619L25.5186 16.2726C27.1568 17.253 28.1397 18.9414 28.1943 20.8476C28.1943 20.7932 28.1943 20.7387 28.1943 20.6842V11.3164C28.1943 9.41011 27.1568 7.61279 25.5186 6.57797Z" fill="url(#paint4_radial_1657_3758)"/>
<path d="M25.5186 6.57797L17.1641 1.56726C15.4713 0.532436 13.3417 0.477971 11.5943 1.45833L11.4305 1.56726C9.79238 2.54761 8.75488 4.34494 8.75488 6.30565V12.8958L11.4305 11.2619C13.1779 10.1726 15.4167 10.1726 17.1641 11.2619L25.5186 16.2726C27.1568 17.253 28.1397 18.9414 28.1943 20.8476C28.1943 20.7932 28.1943 20.7387 28.1943 20.6842V11.3164C28.1943 9.41011 27.1568 7.61279 25.5186 6.57797Z" fill="url(#paint5_linear_1657_3758)"/>
<path d="M59.9741 24.8241H58.0629V17.2535C58.0629 16.6544 58.1175 15.8919 58.1721 14.966H58.1175C58.0083 15.4562 57.8991 15.8375 57.7899 16.0553L54.2952 24.8241H52.9301L49.4353 16.1098C49.3261 15.8375 49.2169 15.4562 49.1077 14.966H49.0531C49.1077 15.4562 49.1077 16.2187 49.1077 17.2535V24.8241H47.3604V13.1143H50.0906L53.2031 20.9027C53.4215 21.5018 53.5853 21.9375 53.6399 22.2643H53.6945C53.913 21.6652 54.0768 21.175 54.186 20.9027L57.3531 13.1143H59.9741V24.8241Z" fill="#131313"/>
<path d="M63.633 14.6932C63.3054 14.6932 63.0324 14.5843 62.814 14.3664C62.5955 14.1486 62.4863 13.9307 62.4863 13.6039C62.4863 13.2771 62.5955 13.0593 62.814 12.8414C63.0324 12.6236 63.3054 12.5146 63.633 12.5146C63.9607 12.5146 64.2337 12.6236 64.4521 12.8414C64.6705 13.0593 64.7797 13.3316 64.7797 13.6039C64.7797 13.8763 64.6705 14.1486 64.4521 14.3664C64.2337 14.5843 63.9607 14.6932 63.633 14.6932ZM64.5613 24.8236H62.6501V16.4361H64.5613V24.8236Z" fill="#131313"/>
<path d="M73.079 24.4423C72.4237 24.8236 71.6046 25.0414 70.6763 25.0414C69.4204 25.0414 68.4375 24.6602 67.6731 23.8977C66.9086 23.1352 66.5264 22.1004 66.5264 20.9021C66.5264 19.5405 66.9632 18.3968 67.7823 17.5798C68.6014 16.7629 69.6935 16.3271 71.0586 16.3271C71.8231 16.3271 72.4783 16.4361 73.079 16.7084V18.4513C72.4783 18.0155 71.8777 17.7977 71.2224 17.7977C70.4033 17.7977 69.7481 18.07 69.2566 18.6146C68.7652 19.1593 68.4921 19.8673 68.4921 20.7388C68.4921 21.6102 68.7106 22.2638 69.202 22.8084C69.6935 23.2986 70.3487 23.5709 71.1678 23.5709C71.8777 23.5709 72.4783 23.353 73.079 22.8629V24.4423Z" fill="#131313"/>
<path d="M79.7954 18.2879C79.577 18.1245 79.2493 18.0155 78.8125 18.0155C78.2665 18.0155 77.775 18.2879 77.3928 18.778C77.0105 19.2682 76.8467 19.9763 76.8467 20.8477V24.8236H74.9355V16.4361H76.8467V18.1789H76.9013C77.0651 17.5798 77.3928 17.1441 77.775 16.8173C78.1572 16.4905 78.5941 16.3271 79.0855 16.3271C79.4132 16.3271 79.6862 16.3816 79.85 16.4905V18.2879H79.7954Z" fill="#131313"/>
<path d="M84.7104 25.0412C83.3998 25.0412 82.3623 24.66 81.5979 23.843C80.8334 23.026 80.4512 22.0457 80.4512 20.7385C80.4512 19.3225 80.8334 18.2332 81.6525 17.4707C82.4716 16.7082 83.5637 16.2725 84.9288 16.2725C86.2393 16.2725 87.2768 16.6537 87.9867 17.4162C88.6965 18.1787 89.0788 19.268 89.0788 20.6296C89.0788 21.9367 88.6965 23.026 87.8774 23.843C87.0584 24.66 86.0755 25.0412 84.7104 25.0412ZM84.8196 17.7975C84.0551 17.7975 83.509 18.0698 83.0722 18.56C82.6354 19.0501 82.4169 19.8126 82.4169 20.6841C82.4169 21.5555 82.6354 22.2635 83.0722 22.7537C83.509 23.2439 84.1097 23.5162 84.8196 23.5162C85.584 23.5162 86.1301 23.2439 86.5669 22.7537C87.0038 22.2635 87.1676 21.5555 87.1676 20.6296C87.1676 19.7037 86.9492 18.9957 86.5669 18.5055C86.1847 18.0153 85.584 17.7975 84.8196 17.7975Z" fill="#131313"/>
<path d="M90.498 24.5516V22.8087C91.2078 23.3533 91.9723 23.6257 92.846 23.6257C93.9927 23.6257 94.5933 23.2989 94.5933 22.5908C94.5933 22.373 94.5387 22.2641 94.4295 22.1007C94.3203 21.9917 94.2111 21.8283 94.0473 21.7194C93.8835 21.6105 93.6651 21.5016 93.4466 21.4471C93.2282 21.3926 92.9552 21.2837 92.6822 21.1748C92.3545 21.0658 92.0269 20.9025 91.7539 20.7391C91.4809 20.5757 91.2624 20.4123 91.044 20.1944C90.8802 19.9766 90.7164 19.7587 90.6072 19.5408C90.498 19.323 90.4434 18.9962 90.4434 18.6694C90.4434 18.2882 90.5526 17.9069 90.7164 17.5801C90.8802 17.2533 91.1532 17.0355 91.4809 16.8176C91.8085 16.5998 92.1907 16.4364 92.573 16.3275C92.9552 16.2185 93.392 16.1641 93.8289 16.1641C94.5933 16.1641 95.3032 16.273 95.9039 16.4908V18.1248C95.3032 17.7435 94.6479 17.5257 93.8835 17.5257C93.6651 17.5257 93.4466 17.5257 93.2282 17.5801C93.0098 17.6346 92.846 17.6891 92.7368 17.798C92.6276 17.9069 92.5184 18.0158 92.4091 18.1248C92.3545 18.2337 92.2999 18.3971 92.2999 18.506C92.2999 18.6694 92.3545 18.8328 92.4091 18.9417C92.4637 19.0507 92.573 19.1596 92.7368 19.2685C92.9006 19.3775 93.0644 19.4319 93.2828 19.5408C93.5012 19.5953 93.7197 19.7042 93.9927 19.8132C94.3749 19.9766 94.7026 20.0855 94.9756 20.2489C95.2486 20.4123 95.5216 20.5757 95.6854 20.7935C95.9039 21.0114 96.0677 21.2292 96.1769 21.4471C96.2861 21.7194 96.3407 21.9917 96.3407 22.373C96.3407 22.8087 96.2315 23.19 96.0677 23.4623C95.8493 23.7891 95.6308 24.0614 95.3032 24.2248C94.9756 24.4426 94.5933 24.606 94.1565 24.6605C93.7197 24.7694 93.2828 24.8239 92.7914 24.8239C91.9723 25.0417 91.1532 24.8783 90.498 24.5516Z" fill="#131313"/>
<path d="M101.965 25.0412C100.655 25.0412 99.6172 24.66 98.8528 23.843C98.0883 23.026 97.7061 22.0457 97.7061 20.7385C97.7061 19.3225 98.0883 18.2332 98.9074 17.4707C99.7264 16.7082 100.819 16.2725 102.184 16.2725C103.494 16.2725 104.532 16.6537 105.242 17.4162C105.951 18.1787 106.334 19.268 106.334 20.6296C106.334 21.9367 105.951 23.026 105.132 23.843C104.313 24.66 103.276 25.0412 101.965 25.0412ZM102.074 17.7975C101.31 17.7975 100.764 18.0698 100.327 18.56C99.8903 19.0501 99.6718 19.8126 99.6718 20.6841C99.6718 21.5555 99.8903 22.2635 100.327 22.7537C100.764 23.2439 101.365 23.5162 102.074 23.5162C102.839 23.5162 103.385 23.2439 103.822 22.7537C104.204 22.2635 104.422 21.5555 104.422 20.6296C104.422 19.7037 104.204 18.9957 103.822 18.5055C103.385 18.0153 102.784 17.7975 102.074 17.7975Z" fill="#131313"/>
<path d="M112.723 13.9853C112.45 13.8219 112.177 13.7674 111.849 13.7674C110.921 13.7674 110.484 14.3121 110.484 15.3469V16.4906H112.45V17.9612H110.484V24.8237H108.573V17.9612H107.153V16.4906H108.573V15.129C108.573 14.2576 108.846 13.5496 109.447 13.0594C110.047 12.5692 110.757 12.2969 111.631 12.2969C112.122 12.2969 112.45 12.3513 112.723 12.4603V13.9853Z" fill="#131313"/>
<path d="M118.51 24.7146C118.128 24.878 117.637 24.9869 117.036 24.9869C115.398 24.9869 114.579 24.2244 114.579 22.6449V17.9066H113.159V16.436H114.579V14.4753L116.49 13.9307V16.3816H118.51V17.8521H116.49V22.0458C116.49 22.536 116.599 22.9173 116.763 23.0807C116.927 23.2985 117.255 23.4074 117.637 23.4074C117.964 23.4074 118.237 23.2985 118.456 23.1351V24.7146H118.51Z" fill="#131313"/>
<path d="M124.627 24.3882V22.5909C125.391 23.19 126.265 23.5168 127.193 23.5168C127.958 23.5168 128.613 23.3534 129.05 22.9722C129.541 22.6454 129.76 22.1552 129.76 21.5561C129.76 20.2489 128.722 19.5409 126.702 19.5409H125.774V18.0159H126.647C128.449 18.0159 129.378 17.4168 129.378 16.1097C129.378 14.9659 128.668 14.3668 127.248 14.3668C126.484 14.3668 125.719 14.6391 125.009 15.1838V13.4954C125.828 13.0597 126.757 12.8418 127.849 12.8418C128.886 12.8418 129.705 13.1141 130.36 13.6043C131.016 14.1489 131.289 14.8025 131.289 15.6195C131.289 17.1445 130.524 18.1248 128.941 18.615V18.7239C129.814 18.7784 130.47 19.1052 130.961 19.5954C131.453 20.0855 131.671 20.7391 131.671 21.5016C131.671 22.5364 131.289 23.4079 130.47 24.0614C129.705 24.715 128.613 25.0418 127.357 25.0418C126.265 25.0418 125.337 24.8239 124.627 24.3882Z" fill="#131313"/>
<path d="M140.734 13.2768V14.9107C140.134 14.5839 139.533 14.4205 138.878 14.4205C137.895 14.4205 137.076 14.8018 136.475 15.6187C135.875 16.4357 135.547 17.525 135.547 18.8866H135.602C136.148 17.9062 137.021 17.416 138.223 17.416C139.206 17.416 140.025 17.7428 140.625 18.3964C141.226 19.05 141.499 19.9214 141.499 21.0652C141.499 22.2089 141.117 23.1893 140.407 23.8973C139.697 24.6598 138.769 24.9866 137.622 24.9866C136.366 24.9866 135.438 24.4964 134.728 23.5705C134.018 22.6446 133.69 21.3375 133.69 19.6491C133.69 17.5794 134.127 15.9455 135.056 14.7473C135.984 13.5491 137.185 12.8955 138.714 12.8955C139.588 12.8955 140.243 13.0044 140.734 13.2768ZM137.677 18.8866C137.076 18.8866 136.584 19.1044 136.257 19.4857C135.875 19.9214 135.711 20.3571 135.711 20.9562C135.711 21.6643 135.875 22.2634 136.257 22.7535C136.639 23.2437 137.131 23.516 137.731 23.516C138.332 23.516 138.769 23.2982 139.151 22.8625C139.479 22.4268 139.697 21.8821 139.697 21.2285C139.697 20.5205 139.533 19.9214 139.206 19.5402C138.769 19.1044 138.277 18.8866 137.677 18.8866Z" fill="#131313"/>
<path d="M143.465 24.5518V22.7544C144.229 23.2446 144.994 23.5169 145.813 23.5169C146.632 23.5169 147.233 23.2991 147.724 22.9178C148.215 22.5366 148.434 21.9919 148.434 21.2839C148.434 20.6303 148.161 20.0857 147.669 19.7589C147.178 19.3777 146.468 19.2143 145.54 19.2143C145.212 19.2143 144.612 19.2687 143.792 19.3232V13.1143H149.854V14.7482H145.485V17.6893C145.867 17.6893 146.195 17.6348 146.468 17.6348C147.724 17.6348 148.652 17.9616 149.362 18.6151C150.017 19.2687 150.4 20.1401 150.4 21.2294C150.4 22.3732 150.017 23.2991 149.253 24.0071C148.489 24.7152 147.396 25.0419 146.031 25.0419C144.885 25.0419 144.065 24.8785 143.465 24.5518Z" fill="#131313"/>
</g>
<defs>
<radialGradient id="paint0_radial_1657_3758" cx="0" cy="0" r="1" gradientUnits="userSpaceOnUse" gradientTransform="translate(9.72646 6.73786) rotate(110.577) scale(23.1363 40.4329)">
<stop offset="0.06441" stop-color="#AE7FE2"/>
<stop offset="1" stop-color="#0078D4"/>
</radialGradient>
<linearGradient id="paint1_linear_1657_3758" x1="14.163" y1="23.106" x2="10.867" y2="17.3906" gradientUnits="userSpaceOnUse">
<stop stop-color="#114A8B"/>
<stop offset="1" stop-color="#0078D4" stop-opacity="0"/>
</linearGradient>
<radialGradient id="paint2_radial_1657_3758" cx="0" cy="0" r="1" gradientUnits="userSpaceOnUse" gradientTransform="translate(4.86793 24.563) rotate(-8.34589) scale(21.5783 14.2187)">
<stop offset="0.1339" stop-color="#D59DFF"/>
<stop offset="1" stop-color="#5E438F"/>
</radialGradient>
<linearGradient id="paint3_linear_1657_3758" x1="22.2927" y1="14.6143" x2="18.7594" y2="19.6938" gradientUnits="userSpaceOnUse">
<stop stop-color="#493474"/>
<stop offset="1" stop-color="#8C66BA" stop-opacity="0"/>
</linearGradient>
<radialGradient id="paint4_radial_1657_3758" cx="0" cy="0" r="1" gradientUnits="userSpaceOnUse" gradientTransform="translate(26.1518 17.7319) rotate(-165.807) scale(17.3182 29.0876)">
<stop offset="0.0584996" stop-color="#50E6FF"/>
<stop offset="1" stop-color="#436DCD"/>
</radialGradient>
<linearGradient id="paint5_linear_1657_3758" x1="9.42212" y1="10.812" x2="14.6426" y2="10.812" gradientUnits="userSpaceOnUse">
<stop stop-color="#2D3F80"/>
<stop offset="1" stop-color="#436DCD" stop-opacity="0"/>
</linearGradient>
<clipPath id="clip0_1657_3758">
<rect width="150" height="30.5" fill="white" transform="translate(0.400391 0.75)"/>
</clipPath>
</defs>
</svg>
