<svg width="132" height="34" viewBox="0 0 132 34" fill="none" xmlns="http://www.w3.org/2000/svg">
<path d="M114.497 7.94199L111.706 25.4326C111.696 25.4968 111.7 25.5625 111.717 25.6251C111.735 25.6878 111.766 25.7458 111.809 25.7951C111.852 25.8444 111.904 25.8838 111.964 25.9106C112.023 25.9374 112.088 25.9509 112.153 25.9502H115.456C115.572 25.9512 115.685 25.9105 115.774 25.8355C115.863 25.7606 115.923 25.6563 115.941 25.5415L118.732 8.05093C118.742 7.9867 118.739 7.92097 118.721 7.85835C118.703 7.79572 118.672 7.73772 118.629 7.6884C118.587 7.63908 118.534 7.59964 118.475 7.57285C118.415 7.54606 118.351 7.53256 118.285 7.5333H114.983C114.866 7.53099 114.752 7.57119 114.663 7.6464C114.573 7.7216 114.515 7.82667 114.497 7.94199ZM110.971 13.0462H107.837C107.721 13.045 107.608 13.0856 107.519 13.1604C107.43 13.2353 107.371 13.3395 107.352 13.4542L107.249 14.0981C107.249 14.0981 104.815 11.4655 100.506 13.2446C98.0334 14.2632 96.8468 16.3677 96.3418 17.9095C96.3418 17.9095 94.7392 22.5953 98.3638 25.1744C98.3638 25.1744 101.725 27.6551 105.51 25.0218L105.444 25.4326C105.429 25.5291 105.446 25.6278 105.492 25.7138C105.539 25.7998 105.612 25.8682 105.702 25.9086C105.761 25.9363 105.825 25.9502 105.891 25.9502H109.026C109.143 25.9525 109.257 25.9123 109.346 25.8371C109.436 25.7619 109.495 25.6568 109.512 25.5415L111.419 13.5638C111.43 13.4996 111.426 13.4339 111.408 13.3714C111.39 13.3089 111.359 13.2511 111.316 13.2023C111.273 13.1525 111.22 13.1127 111.161 13.0856C111.101 13.0585 111.036 13.0455 110.971 13.0462ZM106.36 19.6657C106.237 20.5026 105.813 21.2662 105.167 21.8133C104.517 22.3624 103.691 22.6588 102.84 22.648C102.506 22.6519 102.174 22.6037 101.855 22.5051C100.502 22.0749 99.73 20.7884 99.9519 19.3937C100.075 18.5573 100.5 17.7943 101.146 17.2476C101.795 16.6982 102.621 16.4008 103.471 16.4101C103.805 16.4066 104.138 16.4553 104.456 16.5544C105.818 16.9818 106.586 18.2704 106.363 19.6664H106.36V19.6657ZM89.6267 19.9967C91.326 19.9967 92.9696 19.3944 94.2606 18.2995C95.5489 17.2083 96.4019 15.6921 96.6645 14.0266C97.2134 10.5621 94.4804 7.53815 90.606 7.53815H84.3646C84.2481 7.53704 84.1351 7.57769 84.0461 7.65269C83.9571 7.7277 83.8981 7.83208 83.8798 7.94685L81.0884 25.4374C81.0733 25.5339 81.0902 25.6327 81.1367 25.7187C81.1832 25.8046 81.2566 25.873 81.3458 25.9134C81.4056 25.9412 81.4696 25.9551 81.535 25.9551H84.8397C84.9562 25.9562 85.0692 25.9155 85.1582 25.8405C85.2471 25.7655 85.3062 25.6611 85.3245 25.5464L86.1439 20.4103C86.1611 20.2948 86.2199 20.1896 86.3092 20.1143C86.3986 20.0389 86.5124 19.9986 86.6294 20.0009L89.6267 19.9967ZM92.3909 13.8691C92.1871 15.15 91.1868 16.093 89.2733 16.093H86.8269L87.5698 11.435H89.9724C91.9506 11.4384 92.5947 12.5937 92.3909 13.8726V13.8691Z" fill="#0070E0"/>
<path d="M77.3229 13.3434L73.5432 19.6611L71.6247 13.3899C71.5947 13.2898 71.5329 13.2022 71.4486 13.1402C71.3643 13.0782 71.262 13.0453 71.1573 13.0464H67.7462C67.6579 13.0452 67.5722 13.0759 67.5049 13.1327C67.4375 13.1896 67.393 13.2689 67.3796 13.3559C67.3713 13.4136 67.3773 13.4724 67.397 13.5273L70.8346 24.0908L67.7253 29.0687C67.6989 29.1097 67.6812 29.1556 67.6732 29.2037C67.6652 29.2517 67.6671 29.3009 67.6789 29.3482C67.6906 29.3955 67.7118 29.4399 67.7414 29.4787C67.7709 29.5175 67.808 29.5499 67.8505 29.5739C67.9074 29.6065 67.972 29.6232 68.0376 29.6224H71.7117C71.8165 29.6228 71.9197 29.5962 72.0112 29.5451C72.1027 29.4941 72.1795 29.4203 72.2341 29.331L81.8359 13.6029C81.8707 13.5481 81.8898 13.4849 81.8911 13.4201C81.8925 13.3552 81.876 13.2913 81.8435 13.2351C81.8111 13.1788 81.7641 13.1321 81.7075 13.1C81.6508 13.0679 81.5866 13.0516 81.5215 13.0526H77.8488C77.7434 13.0517 77.6396 13.0779 77.5475 13.1289C77.4553 13.1798 77.378 13.2537 77.3229 13.3434ZM65.8125 13.0464H62.6761C62.5594 13.0453 62.4462 13.086 62.3571 13.1611C62.268 13.2363 62.2089 13.3408 62.1906 13.4558L62.089 14.099C62.089 14.099 59.6531 11.4664 55.344 13.2455C52.8726 14.2641 51.6852 16.3687 51.1823 17.9105C51.1823 17.9105 49.5783 22.5962 53.2023 25.1754C53.2023 25.1754 56.564 27.656 60.3487 25.0227L60.2833 25.4335C60.2679 25.53 60.2848 25.6289 60.3313 25.7149C60.3778 25.8009 60.4514 25.8693 60.5407 25.9095C60.5998 25.9373 60.6645 25.9511 60.7299 25.9511H63.8655C63.982 25.952 64.0948 25.9112 64.1837 25.8363C64.2727 25.7613 64.3318 25.6571 64.3504 25.5424L66.2583 13.5647C66.2739 13.4681 66.2571 13.3691 66.2106 13.2829C66.1641 13.1967 66.0904 13.1283 66.001 13.088C65.9416 13.0608 65.8778 13.0466 65.8125 13.0464ZM61.2008 19.6674C61.0773 20.5032 60.653 21.2656 60.0072 21.8121C59.3583 22.3612 58.5326 22.6583 57.6818 22.649C57.3485 22.6527 57.0167 22.6044 56.6983 22.506C55.3461 22.0758 54.5747 20.7894 54.7966 19.394C54.9201 18.5557 55.3463 17.7913 55.995 17.2444C56.6462 16.695 57.4746 16.399 58.3273 16.411C58.6612 16.4075 58.9944 16.4561 59.313 16.5553C60.6603 16.9828 61.4275 18.2706 61.2049 19.6674H61.2008ZM44.4686 19.9977C46.165 19.9968 47.8059 19.3945 49.0984 18.2984C50.3855 17.2071 51.2375 15.6915 51.4995 14.0268C52.049 10.563 49.3154 7.53909 45.4424 7.53909H39.2002C39.0838 7.53792 38.9707 7.57845 38.8817 7.6533C38.7926 7.72816 38.7334 7.83239 38.7147 7.94709L35.9324 25.4328C35.9169 25.5294 35.9336 25.6285 35.9802 25.7146C36.0267 25.8008 36.1003 25.8693 36.1898 25.9095C36.2489 25.9366 36.3136 25.9511 36.379 25.9511H39.6816C39.7983 25.9522 39.9115 25.9115 40.0006 25.8364C40.0897 25.7612 40.1488 25.6567 40.1671 25.5417L40.9851 20.4057C41.0025 20.2903 41.0613 20.1853 41.1507 20.1101C41.24 20.0349 41.3537 19.9947 41.4706 19.997L44.4686 19.9977ZM47.2328 13.8693C47.029 15.1502 46.0295 16.0932 44.1159 16.0932H41.6696L42.411 11.4352H44.8136C46.7925 11.4387 47.4359 12.5947 47.2328 13.8728V13.8693Z" fill="#003087"/>
<path d="M23.1181 8.43728C23.1925 4.57516 19.9991 1.6123 15.6079 1.6123H6.52497C6.31331 1.61221 6.10857 1.68751 5.94763 1.82464C5.78669 1.96178 5.68013 2.15174 5.64715 2.3603L2.00787 25.0452C1.99159 25.148 1.99783 25.2531 2.02617 25.3533C2.05451 25.4535 2.10428 25.5463 2.17204 25.6254C2.2398 25.7046 2.32395 25.7681 2.41869 25.8117C2.51343 25.8553 2.61651 25.8779 2.72084 25.8779H8.10186L7.2609 31.1305C7.24462 31.2333 7.25086 31.3384 7.2792 31.4386C7.30754 31.5388 7.3573 31.6316 7.42506 31.7107C7.49283 31.7899 7.57697 31.8534 7.67171 31.897C7.76646 31.9406 7.86954 31.9632 7.97387 31.9632H12.3574C12.5689 31.9632 12.7574 31.8876 12.9188 31.7509C13.0787 31.6135 13.1052 31.4241 13.1386 31.2152L14.4254 23.663C14.4581 23.4549 14.5645 23.1843 14.7252 23.0469C14.8859 22.9095 15.0264 22.8345 15.2385 22.8345H17.9207C22.2215 22.8345 25.8698 19.785 26.5368 15.544C27.0091 12.5339 25.7154 9.7952 23.1181 8.43728Z" fill="#001C64"/>
<path d="M9.26597 17.5117L7.92559 25.9895L7.08393 31.3074C7.06775 31.4102 7.0741 31.5153 7.10253 31.6154C7.13096 31.7156 7.1808 31.8083 7.24863 31.8874C7.31645 31.9665 7.40065 32.0299 7.49542 32.0734C7.59019 32.1169 7.69328 32.1394 7.7976 32.1394H12.4371C12.6486 32.1393 12.8531 32.0639 13.0137 31.9268C13.1744 31.7896 13.2807 31.5998 13.3136 31.3914L14.5364 23.6623C14.5694 23.4538 14.6758 23.264 14.8366 23.1268C14.9974 22.9897 15.202 22.9143 15.4135 22.9143H18.1444C22.4451 22.9143 26.0935 19.7849 26.7612 15.5439C27.2342 12.5339 25.7151 9.79444 23.1178 8.43652C23.1108 8.75709 23.083 9.07697 23.0336 9.39407C22.3665 13.6337 18.7168 16.7637 14.4174 16.7637H10.1431C9.93149 16.764 9.72691 16.8395 9.56613 16.9767C9.40535 17.114 9.29892 17.3032 9.26597 17.5117Z" fill="#0070E0"/>
<path d="M7.92559 25.9898H2.52788C2.42357 25.9898 2.32051 25.9672 2.2258 25.9236C2.13108 25.8801 2.04697 25.8165 1.97926 25.7373C1.91155 25.6582 1.86186 25.5653 1.83361 25.4652C1.80535 25.365 1.79921 25.2599 1.81561 25.1572L5.45489 2.1357C5.48785 1.92725 5.59431 1.73738 5.7551 1.60026C5.9159 1.46314 6.12047 1.38776 6.33201 1.3877H15.6083C19.9995 1.3877 23.1929 4.57537 23.1185 8.4368C22.0257 7.86504 20.7417 7.53823 19.3352 7.53823H11.6017C11.3901 7.53813 11.1853 7.61343 11.0244 7.75057C10.8635 7.8877 10.7569 8.07766 10.7239 8.28623L9.26737 17.512L7.92489 25.9898H7.92559Z" fill="#003087"/>
</svg>
