<svg width="114" height="32" viewBox="0 0 114 32" fill="none" xmlns="http://www.w3.org/2000/svg">
<g clip-path="url(#clip0_1657_3788)">
<path d="M25.1349 6.0608C25.1131 5.90185 24.9742 5.81367 24.859 5.80407C24.7446 5.79447 22.5039 5.76042 22.5039 5.76042C22.5039 5.76042 20.6299 3.94059 20.4448 3.75546C20.2597 3.57034 19.8982 3.62622 19.7576 3.66814C19.7558 3.66902 19.4057 3.7773 18.8162 3.9598C18.7176 3.6402 18.5726 3.24724 18.3656 2.85254C17.6985 1.57936 16.7213 0.906098 15.5407 0.904357C15.539 0.904357 15.5381 0.904357 15.5363 0.904357C15.4542 0.904357 15.373 0.912215 15.291 0.919197C15.2561 0.877283 15.2211 0.836244 15.1845 0.796071C14.6701 0.245936 14.0108 -0.0221472 13.2205 0.0014301C11.6959 0.0450918 10.1773 1.14624 8.94608 3.10228C8.07982 4.4785 7.42052 6.20753 7.23366 7.54618C5.48281 8.08845 4.25853 8.46741 4.23146 8.47617C3.34775 8.75384 3.31981 8.78091 3.20454 9.61401C3.11897 10.2436 0.806641 28.124 0.806641 28.124L20.1846 31.4754L28.5833 29.3875C28.5833 29.3875 25.1568 6.21975 25.1349 6.0608ZM17.8461 4.26019C17.3998 4.39816 16.8925 4.55535 16.3423 4.72563C16.331 3.95369 16.2393 2.87961 15.8795 1.95136C17.0366 2.17054 17.6059 3.47952 17.8461 4.26019ZM15.3285 5.03999C14.313 5.35433 13.2048 5.69752 12.0932 6.0416C12.4058 4.84439 12.9987 3.65242 13.727 2.87088C13.9977 2.58009 14.3767 2.25612 14.8255 2.07099C15.2473 2.95121 15.339 4.19732 15.3285 5.03999ZM13.2511 1.01613C13.6091 1.00827 13.9104 1.08686 14.168 1.25627C13.7558 1.47021 13.3576 1.77759 12.9839 2.1784C12.0155 3.21755 11.2732 4.83042 10.9772 6.38652C10.0542 6.67205 9.15124 6.95239 8.31993 7.20913C8.84478 4.75969 10.8977 1.08424 13.2511 1.01613Z" fill="#95BF47"/>
<path d="M24.859 5.80495C24.7446 5.79535 22.5039 5.76131 22.5039 5.76131C22.5039 5.76131 20.6299 3.94147 20.4448 3.75635C20.3758 3.68736 20.2824 3.65156 20.1846 3.63672L20.1855 31.4746L28.5834 29.3875C28.5834 29.3875 25.1568 6.22064 25.135 6.06169C25.1131 5.90274 24.9734 5.81455 24.859 5.80495Z" fill="#5E8E3E"/>
<path d="M15.5298 10.1226L14.5544 13.7718C14.5544 13.7718 13.4664 13.2767 12.1766 13.3579C10.2851 13.4775 10.265 14.6703 10.2843 14.9699C10.3873 16.6019 14.681 16.9582 14.922 20.7812C15.1115 23.7887 13.3266 25.846 10.755 26.0084C7.66806 26.2031 5.96875 24.3824 5.96875 24.3824L6.62281 21.6003C6.62281 21.6003 8.33345 22.891 9.70268 22.8045C10.5969 22.7478 10.9165 22.0204 10.8842 21.506C10.7497 19.3771 7.25327 19.5028 7.03236 16.0046C6.84634 13.061 8.77972 10.078 13.0454 9.80907C14.6889 9.70342 15.5298 10.1226 15.5298 10.1226Z" fill="white"/>
<path d="M39.6431 17.765C38.6774 17.241 38.181 16.7993 38.181 16.1921C38.181 15.4196 38.8705 14.9232 39.9471 14.9232C41.2003 14.9232 42.3193 15.4473 42.3193 15.4473L43.2019 12.7433C43.2019 12.7433 42.3903 12.1084 40.0016 12.1084C36.6775 12.1084 34.3736 14.0121 34.3736 16.6884C34.3736 18.2058 35.4493 19.3647 36.8845 20.1918C38.0433 20.8535 38.4573 21.323 38.4573 22.0124C38.4573 22.7296 37.8779 23.309 36.8022 23.309C35.199 23.309 33.685 22.481 33.685 22.481L32.7471 25.185C32.7471 25.185 34.1458 26.123 36.499 26.123C39.9202 26.123 42.3757 24.4401 42.3757 21.4052C42.3748 19.7787 41.1336 18.6198 39.6431 17.765Z" fill="#131313"/>
<path d="M53.2725 12.0815C51.5895 12.0815 50.2652 12.8818 49.2449 14.0952L49.1895 14.0675L50.6515 6.42578H46.844L43.1475 25.8752H46.9549L48.2238 19.2269C48.72 16.7161 50.0166 15.1718 51.2309 15.1718C52.0857 15.1718 52.4175 15.7512 52.4175 16.5792C52.4175 17.1032 52.362 17.7381 52.252 18.2621L50.8178 25.8761H54.6254L56.1147 18.0135C56.2805 17.1855 56.3912 16.193 56.3912 15.5304C56.3896 13.3781 55.2586 12.0815 53.2725 12.0815Z" fill="#131313"/>
<path d="M64.9967 12.0811C60.4165 12.0811 57.3828 16.2194 57.3828 20.8262C57.3828 23.7779 59.2031 26.1502 62.6245 26.1502C67.1213 26.1502 70.1561 22.1228 70.1561 17.4051C70.1561 14.6742 68.5555 12.0811 64.9967 12.0811ZM63.1208 23.2271C61.824 23.2271 61.2721 22.1237 61.2721 20.7439C61.2721 18.5648 62.4037 15.006 64.4726 15.006C65.8245 15.006 66.2652 16.1648 66.2652 17.296C66.2652 19.6405 65.1352 23.2271 63.1208 23.2271Z" fill="#131313"/>
<path d="M79.8947 12.0811C77.3248 12.0811 75.8664 14.3433 75.8664 14.3433H75.8119L76.0327 12.3019H72.6669C72.5017 13.6816 72.1974 15.7776 71.8947 17.3505L69.2461 31.2819H73.0536L74.1012 25.6539H74.1846C74.1846 25.6539 74.9657 26.1502 76.4193 26.1502C80.8883 26.1502 83.8124 21.5711 83.8124 16.9357C83.8124 14.3711 82.6808 12.0811 79.8947 12.0811ZM76.253 23.2816C75.2647 23.2816 74.6798 22.7299 74.6798 22.7299L75.3146 19.1711C75.7563 16.7988 76.9974 15.2259 78.322 15.2259C79.4809 15.2259 79.8391 16.3016 79.8391 17.3228C79.8391 19.7782 78.3771 23.2816 76.253 23.2816Z" fill="#131313"/>
<path d="M89.2465 6.61816C88.0331 6.61816 87.0674 7.58388 87.0674 8.82501C87.0674 9.95618 87.7845 10.7287 88.8604 10.7287H88.9155C90.1021 10.7287 91.1225 9.92843 91.1503 8.5219C91.1503 7.41843 90.4053 6.61816 89.2465 6.61816Z" fill="#131313"/>
<path d="M83.9229 25.8745H87.7293L90.3234 12.3848H86.4881L83.9229 25.8745Z" fill="#131313"/>
<path d="M100.007 12.3568H97.3587L97.4961 11.722C97.7169 10.4254 98.4897 9.26653 99.7587 9.26653C100.436 9.26653 100.972 9.45968 100.972 9.45968L101.717 6.48027C101.717 6.48027 101.055 6.14941 99.6474 6.14941C98.2956 6.14941 96.9447 6.53567 95.9234 7.41824C94.6266 8.52172 94.0196 10.1214 93.7164 11.722L93.6068 12.3568H91.8405L91.2886 15.2263H93.0549L91.041 25.8752H94.8485L96.8624 15.2263H99.4832L100.007 12.3568Z" fill="#131313"/>
<path d="M109.166 12.3847C109.166 12.3847 106.785 18.3807 105.717 21.6538H105.661C105.589 20.5998 104.723 12.3847 104.723 12.3847H100.723L103.014 24.7709C103.069 25.0464 103.042 25.2127 102.931 25.4058C102.489 26.2607 101.744 27.0887 100.861 27.6958C100.144 28.2198 99.3442 28.5507 98.71 28.7715L99.7581 31.9995C100.531 31.8341 102.13 31.1993 103.482 29.9304C105.221 28.3029 106.82 25.7921 108.475 22.3709L113.138 12.3838H109.166V12.3847Z" fill="#131313"/>
</g>
<defs>
<clipPath id="clip0_1657_3788">
<rect width="112.787" height="32" fill="white" transform="translate(0.806641)"/>
</clipPath>
</defs>
</svg>
