<svg width="118" height="48" viewBox="0 0 118 48" fill="none" xmlns="http://www.w3.org/2000/svg">
<path d="M42.1338 30.472L43.3002 27.7551C44.5607 28.6985 46.235 29.189 47.8906 29.189C49.1134 29.189 49.8847 28.7173 49.8847 28.0003C49.8659 26.0003 42.5665 27.5664 42.51 22.5475C42.4912 20.0004 44.7488 18.0381 47.947 18.0381C49.8471 18.0381 51.7472 18.5098 53.1018 19.5853L52.0106 22.3588C50.7689 21.5664 49.2263 21.0004 47.7589 21.0004C46.7618 21.0004 46.1033 21.472 46.1033 22.0758C46.1221 24.0381 53.478 22.9626 53.5533 27.7551C53.5533 30.3588 51.3521 32.189 48.1916 32.189C45.8776 32.189 43.7517 31.6419 42.1338 30.472Z" fill="#131313"/>
<path d="M86.8901 26.7739C86.3069 27.7928 85.2157 28.4909 83.9553 28.4909C82.0928 28.4909 80.5877 26.9815 80.5877 25.1136C80.5877 23.2456 82.0928 21.7362 83.9553 21.7362C85.2157 21.7362 86.3069 22.4343 86.8901 23.4532L90.1071 21.6607C88.9031 19.5098 86.5891 18.0381 83.9553 18.0381C80.061 18.0381 76.9004 21.2079 76.9004 25.1136C76.9004 29.0192 80.061 32.189 83.9553 32.189C86.6079 32.189 88.9031 30.7362 90.1071 28.5664L86.8901 26.7739Z" fill="#131313"/>
<path d="M59.1969 12.1699H55.1709V31.9246H59.1969V12.1699Z" fill="#131313"/>
<path d="M91.6875 12.1699V31.9246H95.7135V26.0001L100.492 31.9246H105.647L99.5701 24.8869L105.195 18.3209H100.266L95.7135 23.7737V12.1699H91.6875Z" fill="#131313"/>
<path d="M71.1623 26.8117C70.5791 27.7739 69.3751 28.4909 68.0205 28.4909C66.1581 28.4909 64.653 26.9815 64.653 25.1136C64.653 23.2456 66.1581 21.7362 68.0205 21.7362C69.3751 21.7362 70.5791 22.4909 71.1623 23.472V26.8117ZM71.1623 18.3211V19.9249C70.5039 18.8117 68.8671 18.0381 67.1551 18.0381C63.6183 18.0381 60.834 21.1702 60.834 25.0947C60.834 29.0192 63.6183 32.189 67.1551 32.189C68.8671 32.189 70.5039 31.4154 71.1623 30.3022V31.906H75.1883V18.3211H71.1623Z" fill="#131313"/>
<path d="M17.244 26.7913C17.244 28.1687 16.134 29.2819 14.7607 29.2819C13.3873 29.2819 12.2773 28.1687 12.2773 26.7913C12.2773 25.414 13.3873 24.3008 14.7607 24.3008H17.244V26.7913Z" fill="#E01E5A"/>
<path d="M18.4854 26.7913C18.4854 25.414 19.5953 24.3008 20.9687 24.3008C22.342 24.3008 23.452 25.414 23.452 26.7913V33.0178C23.452 34.3951 22.342 35.5083 20.9687 35.5083C19.5953 35.5083 18.4854 34.3951 18.4854 33.0178V26.7913Z" fill="#E01E5A"/>
<path d="M20.9696 16.7917C19.5963 16.7917 18.4863 15.6785 18.4863 14.3011C18.4863 12.9238 19.5963 11.8105 20.9696 11.8105C22.343 11.8105 23.453 12.9238 23.453 14.3011V16.7917H20.9696Z" fill="#36C5F0"/>
<path d="M20.9692 18.0566C22.3425 18.0566 23.4525 19.1698 23.4525 20.5472C23.4525 21.9246 22.3425 23.0378 20.9692 23.0378H14.7421C13.3688 23.0378 12.2588 21.9246 12.2588 20.5472C12.2588 19.1698 13.3688 18.0566 14.7421 18.0566H20.9692Z" fill="#36C5F0"/>
<path d="M30.9209 20.5472C30.9209 19.1698 32.0309 18.0566 33.4042 18.0566C34.7776 18.0566 35.8875 19.1698 35.8875 20.5472C35.8875 21.9246 34.7776 23.0378 33.4042 23.0378H30.9209V20.5472Z" fill="#2EB67D"/>
<path d="M29.6795 20.5464C29.6795 21.9238 28.5696 23.037 27.1962 23.037C25.8229 23.037 24.7129 21.9238 24.7129 20.5464V14.3011C24.7129 12.9238 25.8229 11.8105 27.1962 11.8105C28.5696 11.8105 29.6795 12.9238 29.6795 14.3011V20.5464Z" fill="#2EB67D"/>
<path d="M27.1962 30.5273C28.5696 30.5273 29.6795 31.6406 29.6795 33.0179C29.6795 34.3953 28.5696 35.5085 27.1962 35.5085C25.8229 35.5085 24.7129 34.3953 24.7129 33.0179V30.5273H27.1962Z" fill="#ECB22E"/>
<path d="M27.1962 29.2819C25.8229 29.2819 24.7129 28.1687 24.7129 26.7913C24.7129 25.414 25.8229 24.3008 27.1962 24.3008H33.4233C34.7966 24.3008 35.9066 25.414 35.9066 26.7913C35.9066 28.1687 34.7966 29.2819 33.4233 29.2819H27.1962Z" fill="#ECB22E"/>
</svg>
