<svg width="111" height="40" viewBox="0 0 111 40" fill="none" xmlns="http://www.w3.org/2000/svg">
<g clip-path="url(#clip0_1657_3893)">
<path d="M24.1132 5.89844H5.86978C3.34071 5.89844 1.29102 7.94814 1.29102 10.4772V28.7206C1.29102 31.2497 3.34071 33.2994 5.86978 33.2994H24.1132C26.6423 33.2994 28.692 31.2497 28.692 28.7206V10.4772C28.692 7.94814 26.6423 5.89844 24.1132 5.89844ZM23.711 26.872C23.711 27.671 23.0636 28.3184 22.2646 28.3184H7.71836C6.91942 28.3184 6.272 27.671 6.272 26.872V12.3258C6.272 11.5268 6.91942 10.8794 7.71836 10.8794H22.2646C23.0636 10.8794 23.711 11.5268 23.711 12.3258V26.872ZM12.085 23.3181C11.6249 23.3181 11.2557 22.9462 11.2557 22.4861V16.6786C11.2557 16.2186 11.6249 15.8439 12.085 15.8439H17.9007C18.3581 15.8439 18.73 16.2158 18.73 16.6786V22.4834C18.73 22.9434 18.3581 23.3154 17.9007 23.3154H12.085V23.3181ZM35.9568 22.9214H38.9487C39.0975 24.6157 40.2463 25.9381 42.5632 25.9381C44.6322 25.9381 45.905 24.916 45.905 23.3705C45.905 21.9241 44.9077 21.2767 43.1115 20.8524L40.7918 20.3538C38.2738 19.8055 36.3783 18.1856 36.3783 15.5408C36.3783 12.6233 38.9708 10.6287 42.3373 10.6287C45.9023 10.6287 48.1972 12.4993 48.3955 15.2653H45.5028C45.1584 13.9705 44.084 13.1991 42.3401 13.1991C40.4943 13.1991 39.2242 14.1964 39.2242 15.4692C39.2242 16.742 40.3207 17.5134 42.2161 17.9377L44.511 18.4363C47.029 18.9845 48.7481 20.5053 48.7481 23.1721C48.7481 26.5635 46.2053 28.5829 42.566 28.5829C38.4749 28.5801 36.2075 26.3624 35.9568 22.9214ZM59.4512 33.2994V28.3377L59.6468 26.1612H59.4512C58.7652 27.7261 57.3244 28.5829 55.3683 28.5829C52.2139 28.5829 49.8667 26.0152 49.8667 22.0784C49.8667 18.1415 52.2139 15.5739 55.3683 15.5739C57.2996 15.5739 58.6688 16.4775 59.4512 17.8963H59.6468V15.8163H62.2392V33.2994H59.4512ZM59.5476 22.0756C59.5476 19.5576 58.0076 18.0892 56.1232 18.0892C54.2388 18.0892 52.6988 19.5576 52.6988 22.0756C52.6988 24.5937 54.2388 26.0621 56.1232 26.0621C58.0076 26.0621 59.5476 24.5964 59.5476 22.0756ZM64.3082 23.3732V15.8163H67.0963V23.128C67.0963 25.1089 68.0495 26.0621 69.6391 26.0621C71.5951 26.0621 72.8679 24.6681 72.8679 22.4916V15.8163H75.656V28.3349H73.0635V25.7425H72.8679C72.2563 27.4065 70.9119 28.5801 68.8346 28.5801C65.8483 28.5801 64.3082 26.6737 64.3082 23.3732ZM77.353 24.8389C77.353 22.4916 78.9922 21.1224 81.9015 20.9516L85.3479 20.7312V19.7532C85.3479 18.5796 84.4911 17.8715 82.9759 17.8715C81.5819 17.8715 80.7499 18.5796 80.5295 19.5824H77.7415C78.0362 17.0395 80.1383 15.5711 82.9732 15.5711C86.1772 15.5711 88.1332 16.9404 88.1332 19.5824V28.3349H85.5408V26.0125H85.3452C84.7584 27.5525 83.5352 28.5801 81.1879 28.5801C78.9426 28.5801 77.353 27.0649 77.353 24.8389ZM85.3507 23.2988V22.6376L82.5379 22.8332C81.0226 22.9297 80.3366 23.4944 80.3366 24.6185C80.3366 25.5717 81.1191 26.2577 82.2183 26.2577C84.2019 26.2577 85.3507 24.9876 85.3507 23.2988ZM90.2132 28.3377V15.8163H92.8056V18.2132H93.0013C93.3677 16.5739 94.6157 15.8163 96.4725 15.8163H97.7453V18.3344H96.1557C94.3457 18.3344 93.0013 19.508 93.0013 21.734V28.3349H90.2132V28.3377ZM110.501 22.5908H100.988C101.134 24.8885 102.748 26.186 104.534 26.186C106.049 26.186 107.002 25.5744 107.542 24.5468H110.305C109.548 27.0897 107.322 28.5801 104.509 28.5801C100.817 28.5801 98.2247 25.8169 98.2247 22.0756C98.2247 18.3344 100.889 15.5711 104.534 15.5711C108.2 15.5711 110.597 18.0892 110.597 21.2188C110.6 21.8332 110.55 22.15 110.501 22.5908ZM107.837 20.6596C107.74 18.9239 106.297 17.7503 104.536 17.7503C102.872 17.7503 101.481 18.8027 101.137 20.6596H107.837Z" fill="#131313"/>
</g>
<defs>
<clipPath id="clip0_1657_3893">
<rect width="110" height="40" fill="white" transform="translate(0.799805)"/>
</clipPath>
</defs>
</svg>
